<svg width="45" height="45" viewBox="0 0 45 45" fill="#cd4295" xmlns="http://www.w3.org/2000/svg"><rect width="45" height="45" rx="6" fill="white" fill-opacity="0.2"></rect><path d="M29.1091 19.4758L31.1164 16.0067C31.2909 15.6685 31.16 15.2539 30.8327 15.0794C30.5164 14.9158 30.1236 15.0139 29.9273 15.3194L27.8764 18.8539C24.7564 17.5339 21.2436 17.5339 18.1236 18.8539L16.0727 15.3194C15.8655 15.003 15.44 14.9048 15.1236 15.1012C14.8182 15.2976 14.72 15.6903 14.8836 16.0067L16.8909 19.4758C13.5091 21.4067 11.3055 24.8867 11 28.7703H35C34.6945 24.8867 32.4909 21.4067 29.1091 19.4758ZM17.5455 25.7703C16.7927 25.7703 16.1818 25.1594 16.1818 24.4067C16.1818 23.6539 16.7927 23.043 17.5455 23.043C18.2982 23.043 18.9091 23.6539 18.9091 24.4067C18.9091 25.1594 18.2982 25.7703 17.5455 25.7703ZM28.4545 25.7703C27.7018 25.7703 27.0909 25.1594 27.0909 24.4067C27.0909 23.6539 27.7018 23.043 28.4545 23.043C29.2073 23.043 29.8182 23.6539 29.8182 24.4067C29.8182 25.1594 29.2073 25.7703 28.4545 25.7703Z" fill="#cd4295"></path></svg>