<svg width="21" height="21" viewBox="0 0 21 21" fill="#fff" xmlns="http://www.w3.org/2000/svg"><g id="Fill Ion Icons" clip-path="url(#clip0_685_228077)"><path id="Vector" d="M20.7017 6.16472C20.6548 5.10205 20.483 4.37146 20.2368 3.73841C19.9828 3.06643 19.5921 2.46481 19.0802 1.96468C18.5801 1.45677 17.9745 1.0621 17.3103 0.812115C16.6736 0.565942 15.9468 0.394095 14.8842 0.347241C13.8136 0.29642 13.4737 0.284668 10.7583 0.284668C8.04293 0.284668 7.70305 0.29642 6.6364 0.343273C5.57373 0.390127 4.84314 0.562127 4.21024 0.808147C3.53811 1.0621 2.93649 1.4528 2.43636 1.96468C1.92845 2.46481 1.53393 3.0704 1.28379 3.73459C1.03762 4.37146 0.865775 5.09808 0.818921 6.16075C0.768099 7.23137 0.756348 7.57125 0.756348 10.2866C0.756348 13.002 0.768099 13.3419 0.814953 14.4085C0.861807 15.4712 1.03381 16.2018 1.27998 16.8348C1.53393 17.5068 1.92845 18.1084 2.43636 18.6086C2.93649 19.1165 3.54208 19.5111 4.20627 19.7611C4.84314 20.0073 5.56976 20.1791 6.63259 20.226C7.69908 20.273 8.03911 20.2846 10.7545 20.2846C13.4699 20.2846 13.8097 20.273 14.8764 20.226C15.9391 20.1791 16.6696 20.0073 17.3025 19.7611C18.6467 19.2415 19.7093 18.1788 20.229 16.8348C20.475 16.198 20.647 15.4712 20.6939 14.4085C20.7407 13.3419 20.7525 13.002 20.7525 10.2866C20.7525 7.57125 20.7485 7.23137 20.7017 6.16472ZM18.9006 14.3304C18.8576 15.3071 18.6935 15.8346 18.5568 16.1862C18.2207 17.0575 17.5292 17.749 16.6579 18.0851C16.3063 18.2218 15.775 18.3859 14.8021 18.4288C13.7472 18.4758 13.4308 18.4874 10.7623 18.4874C8.09375 18.4874 7.7734 18.4758 6.72233 18.4288C5.74557 18.3859 5.21813 18.2218 4.8665 18.0851C4.43291 17.9248 4.03824 17.6709 3.71789 17.3388C3.3858 17.0145 3.13184 16.6238 2.97159 16.1902C2.83485 15.8385 2.67078 15.3071 2.6279 14.3343C2.58089 13.2795 2.56929 12.9629 2.56929 10.2944C2.56929 7.62588 2.58089 7.30554 2.6279 6.25461C2.67078 5.27786 2.83485 4.75041 2.97159 4.39878C3.13184 3.96504 3.3858 3.57053 3.72186 3.25003C4.04602 2.91793 4.43672 2.66398 4.87046 2.50388C5.22209 2.36714 5.75351 2.20307 6.72629 2.16003C7.78119 2.11318 8.09772 2.10143 10.7661 2.10143C13.4386 2.10143 13.755 2.11318 14.806 2.16003C15.7828 2.20307 16.3102 2.36714 16.6619 2.50388C17.0954 2.66398 17.4901 2.91793 17.8105 3.25003C18.1426 3.57434 18.3965 3.96504 18.5568 4.39878C18.6935 4.75041 18.8576 5.28168 18.9006 6.25461C18.9475 7.30951 18.9592 7.62588 18.9592 10.2944C18.9592 12.9629 18.9475 13.2755 18.9006 14.3304Z" fill="#fff"></path><path id="Vector_2" d="M10.7583 5.14893C7.92193 5.14893 5.62061 7.4501 5.62061 10.2866C5.62061 13.1232 7.92193 15.4244 10.7583 15.4244C13.5949 15.4244 15.896 13.1232 15.896 10.2866C15.896 7.4501 13.5949 5.14893 10.7583 5.14893ZM10.7583 13.6194C8.91822 13.6194 7.42561 12.1269 7.42561 10.2866C7.42561 8.44638 8.91822 6.95394 10.7583 6.95394C12.5986 6.95394 14.091 8.44638 14.091 10.2866C14.091 12.1269 12.5986 13.6194 10.7583 13.6194Z" fill="#fff"></path><path id="Vector_3" d="M17.2989 4.946C17.2989 5.60837 16.7618 6.14543 16.0993 6.14543C15.437 6.14543 14.8999 5.60837 14.8999 4.946C14.8999 4.28349 15.437 3.74658 16.0993 3.74658C16.7618 3.74658 17.2989 4.28349 17.2989 4.946Z" fill="#fff"></path></g><defs><clipPath id="clip0_685_228077"><rect width="20" height="20" fill="white" transform="translate(0.721191 0.284668)"></rect></clipPath></defs></svg>