<svg width="45" height="45" viewBox="0 0 45 45" fill="#cd4295" xmlns="http://www.w3.org/2000/svg" class="bg-bg-secondary"><rect width="45" height="45" rx="6" fill="white" fill-opacity="0.2"></rect><g clip-path="url(#clip0_1427_847)"><path d="M26.5 26H29C29.2833 26 29.5207 25.904 29.712 25.712C29.904 25.5207 30 25.2833 30 25V21C30 20.7167 29.904 20.479 29.712 20.287C29.5207 20.0957 29.2833 20 29 20H26.5C26.2167 20 25.9793 20.0957 25.788 20.287C25.596 20.479 25.5 20.7167 25.5 21V25C25.5 25.2833 25.596 25.5207 25.788 25.712C25.9793 25.904 26.2167 26 26.5 26ZM27 24.5V21.5H28.5V24.5H27ZM17 26H19.75C19.9667 26 20.146 25.929 20.288 25.787C20.4293 25.6457 20.5 25.4667 20.5 25.25C20.5 25.0333 20.4293 24.854 20.288 24.712C20.146 24.5707 19.9667 24.5 19.75 24.5H17.5V23.5H19.5C19.7833 23.5 20.021 23.404 20.213 23.212C20.4043 23.0207 20.5 22.7833 20.5 22.5V21C20.5 20.7167 20.4043 20.479 20.213 20.287C20.021 20.0957 19.7833 20 19.5 20H16.75C16.5333 20 16.3543 20.0707 16.213 20.212C16.071 20.354 16 20.5333 16 20.75C16 20.9667 16.071 21.1457 16.213 21.287C16.3543 21.429 16.5333 21.5 16.75 21.5H19V22.5H17C16.7167 22.5 16.479 22.5957 16.287 22.787C16.0957 22.979 16 23.2167 16 23.5V25C16 25.2833 16.0957 25.5207 16.287 25.712C16.479 25.904 16.7167 26 17 26ZM23 22C23.2167 22 23.396 21.929 23.538 21.787C23.6793 21.6457 23.75 21.4667 23.75 21.25C23.75 21.0333 23.6793 20.854 23.538 20.712C23.396 20.5707 23.2167 20.5 23 20.5C22.7833 20.5 22.6043 20.5707 22.463 20.712C22.321 20.854 22.25 21.0333 22.25 21.25C22.25 21.4667 22.321 21.6457 22.463 21.787C22.6043 21.929 22.7833 22 23 22ZM23 25.5C23.2167 25.5 23.396 25.429 23.538 25.287C23.6793 25.1457 23.75 24.9667 23.75 24.75C23.75 24.5333 23.6793 24.354 23.538 24.212C23.396 24.0707 23.2167 24 23 24C22.7833 24 22.6043 24.0707 22.463 24.212C22.321 24.354 22.25 24.5333 22.25 24.75C22.25 24.9667 22.321 25.1457 22.463 25.287C22.6043 25.429 22.7833 25.5 23 25.5ZM15 31C14.45 31 13.9793 30.8043 13.588 30.413C13.196 30.021 13 29.55 13 29V17C13 16.45 13.196 15.9793 13.588 15.588C13.9793 15.196 14.45 15 15 15H18V14C18 13.7167 18.0957 13.479 18.287 13.287C18.479 13.0957 18.7167 13 19 13C19.2833 13 19.521 13.0957 19.713 13.287C19.9043 13.479 20 13.7167 20 14V15H26V14C26 13.7167 26.096 13.479 26.288 13.287C26.4793 13.0957 26.7167 13 27 13C27.2833 13 27.5207 13.0957 27.712 13.287C27.904 13.479 28 13.7167 28 14V15H31C31.55 15 32.021 15.196 32.413 15.588C32.8043 15.9793 33 16.45 33 17V29C33 29.55 32.8043 30.021 32.413 30.413C32.021 30.8043 31.55 31 31 31H15ZM23 17C22.7833 17 22.6043 17.071 22.463 17.213C22.321 17.3543 22.25 17.5333 22.25 17.75C22.25 17.9667 22.321 18.1457 22.463 18.287C22.6043 18.429 22.7833 18.5 23 18.5C23.2167 18.5 23.396 18.429 23.538 18.287C23.6793 18.1457 23.75 17.9667 23.75 17.75C23.75 17.5333 23.6793 17.3543 23.538 17.213C23.396 17.071 23.2167 17 23 17ZM23 29C23.2167 29 23.396 28.9293 23.538 28.788C23.6793 28.646 23.75 28.4667 23.75 28.25C23.75 28.0333 23.6793 27.854 23.538 27.712C23.396 27.5707 23.2167 27.5 23 27.5C22.7833 27.5 22.6043 27.5707 22.463 27.712C22.321 27.854 22.25 28.0333 22.25 28.25C22.25 28.4667 22.321 28.646 22.463 28.788C22.6043 28.9293 22.7833 29 23 29Z" fill="#cd4295"></path></g><defs><clipPath id="clip0_1427_847"><rect width="24" height="24" fill="white" transform="translate(11 10)"></rect></clipPath></defs></svg>