<svg width="16" height="16" viewBox="0 0 10 11" fill="none" xmlns="http://www.w3.org/2000/svg" class=" h-3 w-3"><g id="Group"><path id="Vector" d="M9.12109 1.99756H5.70725L6.96496 0.739849C7.07939 0.625415 7.07939 0.440005 6.96496 0.325571C6.85053 0.211138 6.66512 0.211138 6.55068 0.325571L5 1.87625L3.44932 0.325591C3.33488 0.211157 3.14947 0.211157 3.03504 0.325591C2.92061 0.440024 2.92061 0.625435 3.03504 0.739868L4.29275 1.99756H0.878906C0.394258 1.99756 0 2.41135 0 2.896V8.77491C0 9.25956 0.394258 9.65381 0.878906 9.65381H1.75781V9.94678C1.75781 10.1087 1.88885 10.2398 2.05078 10.2398C2.21271 10.2398 2.34375 10.1087 2.34375 9.94678V9.65381H7.63672V9.94678C7.63672 10.1087 7.76775 10.2398 7.92969 10.2398C8.09162 10.2398 8.22266 10.1087 8.22266 9.94678V9.65381H9.12109C9.60574 9.65381 10 9.25956 10 8.77491V2.896C10 2.41135 9.60574 1.99756 9.12109 1.99756ZM7.63672 8.18897C7.63672 8.3509 7.50568 8.48194 7.34375 8.48194H1.46484C1.30291 8.48194 1.17188 8.3509 1.17188 8.18897V3.48194C1.17188 3.32 1.30291 3.18897 1.46484 3.18897H7.34375C7.50568 3.18897 7.63672 3.32 7.63672 3.48194V8.18897ZM8.80859 7.60303C8.80859 7.76497 8.67756 7.896 8.51562 7.896C8.35369 7.896 8.22266 7.76497 8.22266 7.60303V6.41163C8.22266 6.24969 8.35369 6.11866 8.51562 6.11866C8.67756 6.11866 8.80859 6.24969 8.80859 6.41163V7.60303ZM8.51562 5.53272C8.35383 5.53272 8.22266 5.40155 8.22266 5.23975C8.22266 5.07795 8.35383 4.94678 8.51562 4.94678C8.67742 4.94678 8.80859 5.07795 8.80859 5.23975C8.80859 5.40155 8.67742 5.53272 8.51562 5.53272ZM8.51562 4.36084C8.35383 4.36084 8.22266 4.22967 8.22266 4.06788C8.22266 3.90608 8.35383 3.77491 8.51562 3.77491C8.67742 3.77491 8.80859 3.90608 8.80859 4.06788C8.80859 4.22967 8.67742 4.36084 8.51562 4.36084Z" fill="#F5A524"></path></g></svg>