<svg width="16" height="17" viewBox="0 0 16 17" fill="none" xmlns="http://www.w3.org/2000/svg"><g id="Frame" clip-path="url(#clip0_530_104696)"><path id="Vector" d="M13.6568 14.3744C16.781 11.2502 16.781 6.18487 13.6568 3.06068C10.5326 -0.0635191 5.46733 -0.063519 2.34313 3.06068C-0.781061 6.18487 -0.781061 11.2502 2.34313 14.3744C5.46733 17.4986 10.5326 17.4986 13.6568 14.3744Z" fill="url(#paint0_linear_530_104696)"></path><g id="Group"><path id="Vector_2" d="M3.22665 3.98361C5.52491 1.68535 9.39237 1.0832 12.3024 2.65239C9.38997 0.475285 5.26942 0.432343 2.47264 3.22936C-0.324371 6.02613 -0.281429 10.1464 1.89568 13.0593C0.326482 10.1491 0.928635 6.28162 3.22665 3.98361Z" fill="url(#paint1_radial_530_104696)" fill-opacity="0.1"></path></g><path id="Vector_3" d="M8.00002 15.0032C11.4715 15.0032 14.2857 12.189 14.2857 8.71755C14.2857 5.24607 11.4715 2.43188 8.00002 2.43188C4.52854 2.43188 1.71436 5.24607 1.71436 8.71755C1.71436 12.189 4.52854 15.0032 8.00002 15.0032Z" fill="white"></path><g id="Vector_4"><path d="M8.00002 2.43164C4.52864 2.43164 1.71436 5.24593 1.71436 8.7173C1.71436 12.1887 4.52864 15.003 8.00002 15.003C11.4714 15.003 14.2857 12.1887 14.2857 8.7173C14.2857 5.24593 11.4716 2.43164 8.00002 2.43164ZM8.00002 14.7148C4.68794 14.7148 2.00272 12.0299 2.00272 8.71754C2.00272 5.40522 4.68794 2.72024 8.00002 2.72024C11.3121 2.72024 13.9973 5.40522 13.9973 8.71754C13.9973 12.0299 11.3123 14.7148 8.00002 14.7148Z" fill="white"></path></g><g id="Group_2"><path id="Vector_5" d="M4.58995 8.11532C6.39257 5.14822 10.1986 4.14519 13.2163 5.78683C12.7327 4.91311 12.0233 4.14926 11.1088 3.59365C8.30842 1.89227 4.6588 2.78327 2.95766 5.58388C1.51897 7.95195 1.93424 10.927 3.79036 12.8181C3.46097 11.2619 3.69895 9.58208 4.58995 8.11532Z" fill="url(#paint2_radial_530_104696)" fill-opacity="0.2"></path></g><g id="Group_3"><g id="Group_4"><path id="Vector_6" d="M7.82062 2.86926C7.81702 2.88845 7.81006 2.9146 7.80167 2.94579C7.78775 2.99761 7.77576 3.05302 7.76712 3.11372C7.7568 3.17609 7.74961 3.23679 7.74457 3.29916C7.73761 3.36322 7.73401 3.42583 7.73233 3.48461C7.72898 3.5453 7.72898 3.59904 7.72898 3.6475C7.72898 3.70292 7.73233 3.74778 7.73929 3.78256C7.74457 3.81711 7.74793 3.84134 7.74793 3.85189C7.74793 3.86245 7.74457 3.86917 7.73929 3.87613C7.73233 3.88308 7.7237 3.88836 7.71506 3.89172C7.70475 3.89676 7.69587 3.90036 7.68747 3.90203C7.67716 3.90563 7.66828 3.90563 7.66156 3.90563C7.64765 3.90563 7.63373 3.90371 7.61838 3.89868C7.60279 3.89532 7.58887 3.88644 7.57664 3.86917C7.57328 3.86749 7.57136 3.86389 7.56968 3.85693L7.56272 3.8363L7.55936 3.81519C7.55745 3.80991 7.55745 3.80487 7.55745 3.80152C7.55745 3.77369 7.55745 3.7389 7.55936 3.69404L7.56632 3.5573C7.56632 3.51219 7.568 3.46901 7.57136 3.42727C7.57304 3.38553 7.57472 3.35458 7.57832 3.33203L7.58 3.30252C7.58 3.28501 7.58168 3.26246 7.58527 3.23655L7.59223 3.15354C7.59391 3.12571 7.59751 3.09956 7.60087 3.07533C7.59055 3.08565 7.58192 3.09453 7.57304 3.10124L7.54521 3.12907C7.53825 3.13579 7.52962 3.14443 7.52266 3.1533L7.49843 3.17753C7.47756 3.19984 7.46029 3.214 7.44829 3.21736C7.43606 3.22263 7.42406 3.22431 7.41015 3.22431C7.39959 3.22431 7.3876 3.22263 7.37536 3.21903C7.36145 3.21592 7.34945 3.2104 7.3389 3.202C7.3269 3.1948 7.31659 3.18641 7.30963 3.17585C7.30267 3.16554 7.29907 3.15354 7.29907 3.13939C7.29907 3.12931 7.30795 3.11708 7.3269 3.10316L7.34081 3.09453L7.35809 3.08397C7.36313 3.08061 7.3684 3.07701 7.37536 3.07198L7.39095 3.05998L7.44805 3.00264C7.46532 2.98537 7.4826 2.96978 7.50011 2.95226C7.51378 2.93667 7.52938 2.9194 7.54497 2.90212L7.59511 2.84671L7.63158 2.8052C7.64213 2.79129 7.65245 2.7793 7.66276 2.76874C7.67332 2.75842 7.68363 2.74979 7.69395 2.74139C7.70451 2.73443 7.71482 2.73083 7.72682 2.73083C7.73737 2.73083 7.74937 2.73251 7.76328 2.73419C7.7772 2.73755 7.78919 2.74451 7.80311 2.75674C7.81366 2.76874 7.82062 2.78265 7.82398 2.79825C7.82398 2.8052 7.82566 2.81048 7.82566 2.81408V2.83111C7.82566 2.83807 7.82398 2.85031 7.82038 2.86926H7.82062Z" fill="#01164A"></path><path id="Vector_7" d="M9.00159 3.85015C8.9896 3.86383 8.97544 3.8691 8.95817 3.8691C8.91979 3.8691 8.88356 3.86742 8.8471 3.86023C8.80895 3.85519 8.77249 3.85159 8.73602 3.85159C8.67029 3.85159 8.60432 3.85495 8.53858 3.86023C8.47261 3.86742 8.40688 3.87606 8.34114 3.88302L8.31691 3.88638C8.30996 3.8883 8.30156 3.88974 8.29268 3.89165C8.28237 3.89501 8.27541 3.89669 8.26845 3.89861C8.25982 3.90029 8.25118 3.90029 8.24422 3.90029C8.21832 3.90029 8.19408 3.89333 8.17129 3.87774C8.14874 3.86383 8.13843 3.84128 8.13843 3.81009C8.13843 3.79282 8.14179 3.7753 8.15066 3.76163C8.1593 3.74771 8.16961 3.73572 8.18185 3.72348C8.19576 3.70981 8.20968 3.69757 8.22335 3.6839C8.23727 3.66999 8.25286 3.65775 8.27037 3.64384C8.32915 3.59873 8.38481 3.55195 8.4383 3.50181L8.60312 3.35092C8.64462 3.31277 8.68276 3.26767 8.71563 3.21585C8.7485 3.16739 8.76601 3.11197 8.76601 3.0496C8.76601 3.02537 8.76073 3.00114 8.7521 2.97691C8.74178 2.95436 8.72955 2.93373 8.71395 2.91621C8.69668 2.89894 8.67749 2.88503 8.65685 2.87447C8.6343 2.86416 8.61007 2.85912 8.58584 2.85912C8.54074 2.85912 8.50452 2.86775 8.47669 2.88503C8.44886 2.9023 8.42631 2.92821 8.40568 2.96132C8.39176 2.98219 8.38169 3.00138 8.37449 3.01865C8.36753 3.02897 8.36226 3.0376 8.3589 3.04624C8.35194 3.05488 8.34666 3.06375 8.33971 3.07047C8.32939 3.08271 8.31907 3.09134 8.30852 3.09806C8.29628 3.10694 8.28261 3.11029 8.26678 3.11029C8.24255 3.11029 8.22191 3.10166 8.20464 3.08439C8.18569 3.06687 8.17681 3.04624 8.17681 3.02201C8.17681 3.00498 8.18041 2.98555 8.18905 2.96491C8.196 2.94596 8.20632 2.92677 8.22023 2.90782C8.23247 2.89055 8.24614 2.87303 8.26006 2.85576C8.27397 2.84017 8.28597 2.82625 8.29988 2.81594C8.33971 2.78115 8.38481 2.75692 8.43495 2.74133C8.48509 2.72741 8.53738 2.72021 8.5892 2.72021C8.63071 2.72021 8.67053 2.72909 8.71227 2.74468C8.75378 2.76028 8.79024 2.78115 8.82311 2.80706C8.85429 2.83465 8.88212 2.86775 8.90275 2.90422C8.92171 2.94212 8.93226 2.98387 8.93226 3.02897C8.93226 3.09998 8.91835 3.16763 8.89244 3.23001C8.86629 3.29238 8.82814 3.3478 8.77633 3.39626C8.73626 3.43416 8.69812 3.47087 8.66021 3.50709C8.62207 3.54524 8.58225 3.5817 8.54386 3.61793C8.52323 3.63856 8.50068 3.65775 8.48005 3.6767C8.45918 3.69565 8.43663 3.71485 8.41599 3.73212C8.44886 3.72876 8.48173 3.72708 8.51627 3.72516L8.61511 3.71821L8.67245 3.71485C8.6914 3.71485 8.71227 3.71485 8.73314 3.71317C8.75042 3.71317 8.76769 3.71125 8.7852 3.71125C8.8008 3.71125 8.81639 3.71125 8.83366 3.70789L8.85813 3.70453L8.88068 3.69925C8.8946 3.69589 8.91187 3.69398 8.92914 3.69398C8.95865 3.69398 8.9812 3.70789 8.9968 3.73212C9.01071 3.75659 9.01935 3.78058 9.01935 3.80481C9.01935 3.82208 9.01239 3.83624 9.00207 3.84991L9.00159 3.85015Z" fill="#01164A"></path></g><path id="Vector_8" d="M8.39019 14.3394C8.36068 14.3948 8.32277 14.4399 8.27575 14.478C8.22729 14.5162 8.17188 14.5454 8.1131 14.5663C8.05048 14.5855 7.99003 14.5958 7.92766 14.5958C7.85832 14.5958 7.79595 14.5836 7.74221 14.5593C7.68847 14.5351 7.64361 14.5003 7.60715 14.4555C7.569 14.4137 7.54141 14.3636 7.52414 14.3062C7.50351 14.2489 7.49487 14.1865 7.49487 14.1208C7.49487 14.0618 7.50183 14.0028 7.5191 13.944C7.53446 13.885 7.55701 13.8296 7.58484 13.7761C7.61266 13.7221 7.64529 13.6717 7.68344 13.6235C7.72158 13.5765 7.76164 13.5333 7.80651 13.4951C7.82738 13.4779 7.85161 13.4589 7.87752 13.4414C7.90199 13.4241 7.92598 13.4105 7.95045 13.3963C7.97276 13.3821 7.99531 13.3721 8.01618 13.3634C8.03705 13.3565 8.05432 13.3512 8.0716 13.3512C8.09751 13.3512 8.1167 13.3615 8.13061 13.3807C8.14117 13.3999 8.14812 13.4208 8.14812 13.4414C8.14812 13.4481 8.14621 13.4536 8.14621 13.4604C8.14453 13.4692 8.14117 13.4759 8.13565 13.4812C8.12893 13.4882 8.11838 13.4935 8.10806 13.4935C8.09751 13.4951 8.08383 13.4985 8.06632 13.5038C8.06104 13.5057 8.05408 13.5091 8.04545 13.5126C8.04209 13.516 8.03681 13.5179 8.03345 13.5196C8.02817 13.5215 8.0229 13.523 8.01762 13.5246C8.00035 13.5335 7.98139 13.5438 7.96388 13.5578C7.94301 13.5736 7.92574 13.5889 7.90846 13.6045C7.88951 13.6218 7.87224 13.6374 7.85832 13.6532C7.84273 13.6705 7.83049 13.6842 7.82186 13.6947C7.80291 13.7192 7.78731 13.7418 7.77316 13.7624C7.75948 13.7833 7.74917 13.8058 7.73861 13.8284C7.72806 13.8509 7.7211 13.8732 7.71414 13.8975C7.70551 13.9217 7.69879 13.9462 7.69351 13.974C7.74365 13.9255 7.79931 13.8891 7.85808 13.8612C7.9171 13.8353 7.98115 13.8216 8.05384 13.8216C8.10254 13.8216 8.14908 13.8303 8.19611 13.844C8.24121 13.8598 8.28079 13.8802 8.31726 13.908C8.3518 13.9375 8.37963 13.9721 8.4005 14.0136C8.42113 14.0551 8.43337 14.1038 8.43337 14.1556C8.43337 14.2249 8.41777 14.2854 8.38995 14.3394H8.39019ZM8.24121 14.062C8.22729 14.0395 8.2117 14.0205 8.19275 14.003C8.17188 13.9874 8.14932 13.9754 8.12509 13.9665C8.09895 13.9581 8.07304 13.9529 8.04881 13.9529C8.00874 13.9529 7.97084 13.9596 7.93269 13.9737C7.89455 13.9874 7.86 14.0066 7.82858 14.0308C7.79571 14.0551 7.76812 14.0846 7.74533 14.1158C7.7211 14.1503 7.70215 14.1851 7.69183 14.2232C7.69879 14.258 7.71078 14.2892 7.7247 14.3202C7.73693 14.3513 7.75253 14.3773 7.77316 14.4C7.79235 14.4224 7.8149 14.4396 7.84249 14.4519C7.87032 14.4655 7.90151 14.4727 7.93941 14.4727C7.98091 14.4727 8.02098 14.4641 8.05888 14.4466C8.09703 14.4293 8.12989 14.407 8.16108 14.3758C8.18891 14.3463 8.21314 14.3113 8.23041 14.27C8.24768 14.23 8.25824 14.1868 8.25824 14.1417C8.25824 14.1124 8.25128 14.0865 8.24097 14.062H8.24121Z" fill="#01164A"></path><path id="Vector_9" d="M13.8677 9.01045C13.8365 9.06083 13.7986 9.10233 13.7532 9.1352C13.7045 9.16999 13.6527 9.19758 13.5937 9.21485C13.5347 9.23236 13.4778 9.241 13.4188 9.241C13.3982 9.241 13.372 9.23932 13.3442 9.23572C13.3164 9.2326 13.2871 9.22876 13.2576 9.2218C13.2281 9.21677 13.2005 9.20981 13.1727 9.20093C13.1448 9.19422 13.1206 9.18726 13.1033 9.1767C13.0825 9.16807 13.0652 9.15439 13.0496 9.13712C13.0323 9.11961 13.0234 9.09898 13.0234 9.07475C13.0234 9.05195 13.0304 9.033 13.046 9.01741C13.0618 9.00349 13.0808 8.99678 13.1033 8.99678C13.1156 8.99678 13.1292 9.00014 13.1451 9.00709C13.159 9.01429 13.1746 9.02101 13.1918 9.02964L13.2403 9.05747C13.2542 9.06611 13.2679 9.07283 13.2854 9.0781C13.3063 9.08674 13.3269 9.09178 13.3444 9.0937C13.3617 9.09538 13.3826 9.09538 13.4034 9.09538C13.4399 9.09538 13.4761 9.09034 13.5143 9.07978C13.5524 9.06947 13.587 9.05387 13.6182 9.03132C13.6477 9.01045 13.6719 8.98454 13.6911 8.9536C13.71 8.92241 13.7206 8.88594 13.7206 8.8442C13.7206 8.81997 13.7153 8.79742 13.7048 8.77679C13.6925 8.7576 13.6772 8.74032 13.6599 8.72641C13.6407 8.71273 13.6201 8.70026 13.5973 8.68994C13.575 8.68131 13.5524 8.67459 13.5299 8.66763L13.5126 8.66427C13.5056 8.66259 13.5004 8.66068 13.4951 8.659C13.4881 8.659 13.4828 8.65732 13.4795 8.65732C13.4728 8.65732 13.4675 8.65564 13.4625 8.65564C13.4485 8.65564 13.4346 8.65732 13.4207 8.66068L13.3826 8.67459C13.3687 8.67963 13.3567 8.68491 13.3427 8.6885C13.3288 8.69186 13.3132 8.69378 13.2976 8.69378C13.2734 8.69378 13.2525 8.68491 13.2336 8.66787C13.2127 8.65228 13.2024 8.63141 13.2024 8.60718C13.2024 8.58631 13.2077 8.57071 13.2214 8.5604C13.23 8.55344 13.242 8.54648 13.2578 8.54312C13.2734 8.53977 13.2907 8.53617 13.3099 8.53617H13.3238C13.3272 8.53617 13.3324 8.53449 13.3377 8.53449C13.3567 8.53449 13.3759 8.53281 13.3931 8.52921C13.4123 8.52585 13.4349 8.51697 13.4591 8.50474C13.4833 8.49442 13.5078 8.48051 13.5301 8.46156C13.551 8.44428 13.5699 8.42173 13.5858 8.3975C13.5997 8.37327 13.6083 8.34712 13.6083 8.31594C13.6083 8.29363 13.603 8.27443 13.5942 8.25884C13.5838 8.24325 13.5699 8.23101 13.5543 8.22094C13.5371 8.21038 13.5198 8.20342 13.5006 8.20006C13.4797 8.19671 13.461 8.19311 13.4399 8.19311C13.4121 8.19311 13.3878 8.19838 13.3653 8.20534C13.3411 8.21422 13.3168 8.22453 13.2943 8.23461L13.2597 8.25212C13.2475 8.25884 13.2372 8.26412 13.2266 8.26748C13.2163 8.27251 13.2058 8.27611 13.1954 8.27971C13.1851 8.28307 13.1746 8.28307 13.1643 8.28307C13.14 8.28307 13.1225 8.27443 13.1105 8.25524C13.0968 8.23797 13.0916 8.21878 13.0916 8.19982C13.0916 8.17751 13.1019 8.15664 13.1228 8.13721C13.1436 8.11994 13.1715 8.10602 13.2026 8.09235C13.2338 8.08011 13.2667 8.07172 13.3048 8.06452C13.3413 8.05756 13.3759 8.05444 13.4073 8.05444C13.4488 8.05444 13.492 8.05948 13.5373 8.06644C13.5805 8.07507 13.6206 8.08875 13.6565 8.10986C13.6913 8.13049 13.7208 8.15664 13.7434 8.18951C13.7659 8.22405 13.7779 8.26916 13.7779 8.32121C13.7779 8.37639 13.7657 8.42173 13.7434 8.45988C13.7208 8.49802 13.688 8.52921 13.6465 8.5568C13.681 8.56711 13.7141 8.57911 13.747 8.59302C13.7782 8.60862 13.806 8.62781 13.8302 8.65036C13.8547 8.67267 13.8753 8.69882 13.8892 8.73001C13.9032 8.76119 13.9118 8.79598 13.9118 8.8358C13.9118 8.90154 13.8962 8.96055 13.8684 9.01069L13.8677 9.01045Z" fill="#01164A"></path><path id="Vector_10" d="M2.95236 8.27587L2.9454 8.29338C2.94181 8.3001 2.94013 8.30538 2.93845 8.30873C2.93509 8.31401 2.93173 8.31905 2.92981 8.32457C2.92309 8.3452 2.91758 8.36607 2.91422 8.3903C2.90918 8.41453 2.90558 8.43876 2.90222 8.46299C2.89886 8.4889 2.89527 8.51505 2.89335 8.53904C2.88999 8.56519 2.88639 8.58774 2.88471 8.60669C2.87607 8.67602 2.86912 8.74536 2.86216 8.81133L2.83793 9.01596L2.82737 9.11456C2.82401 9.14935 2.82042 9.18222 2.81538 9.21508C2.81202 9.23763 2.80146 9.25323 2.78587 9.26354C2.76836 9.27386 2.74965 9.27938 2.73045 9.27938C2.7235 9.27938 2.71486 9.27746 2.70598 9.27578C2.69567 9.27242 2.68511 9.26906 2.67648 9.26546C2.66616 9.26018 2.6592 9.25491 2.65392 9.24963C2.64697 9.24291 2.64361 9.23595 2.64361 9.22564C2.64361 9.21532 2.64529 9.20453 2.64865 9.19061L2.65201 9.17334L2.65536 9.15775C2.664 9.09177 2.67264 9.02796 2.67959 8.96391C2.68679 8.90153 2.69375 8.8358 2.70406 8.76982C2.6556 8.80797 2.60882 8.8358 2.56012 8.85475C2.50998 8.87562 2.45433 8.88402 2.39363 8.88402C2.35549 8.88402 2.31758 8.8773 2.2828 8.86171C2.24465 8.84779 2.21347 8.82524 2.18588 8.79765C2.15805 8.76982 2.1355 8.73696 2.12014 8.69689C2.10263 8.65875 2.09399 8.61389 2.09399 8.56519C2.09399 8.49586 2.10815 8.43012 2.13742 8.36775C2.16692 8.30538 2.20675 8.25164 2.25545 8.20294C2.30391 8.15448 2.35933 8.11633 2.42338 8.08874C2.48575 8.06092 2.55149 8.04724 2.62106 8.04724C2.64001 8.04724 2.66088 8.0506 2.68487 8.0578C2.70574 8.06451 2.72661 8.07483 2.74725 8.08539C2.76644 8.09906 2.78371 8.11297 2.7993 8.13025C2.81346 8.1492 2.82353 8.16839 2.83073 8.18926C2.83745 8.1859 2.848 8.18231 2.86024 8.18231C2.8672 8.18231 2.87727 8.18423 2.88951 8.18758C2.90006 8.19094 2.91038 8.19622 2.92094 8.20294C2.93125 8.20989 2.93989 8.21853 2.94708 8.22741C2.95404 8.23796 2.9574 8.2466 2.9574 8.25692C2.9574 8.26387 2.95572 8.27083 2.95212 8.27587H2.95236ZM2.73741 8.35192C2.73069 8.32457 2.72206 8.29842 2.70958 8.27227C2.69735 8.24804 2.68175 8.22909 2.66448 8.21181C2.64553 8.19622 2.62274 8.18758 2.59539 8.18758C2.55724 8.18758 2.51718 8.19958 2.47736 8.22405C2.43753 8.24996 2.40107 8.28282 2.36988 8.32097C2.33701 8.35911 2.31087 8.40254 2.29023 8.44764C2.26936 8.49442 2.25905 8.53928 2.25905 8.58078C2.25905 8.60885 2.26241 8.63116 2.27296 8.65035C2.27992 8.67123 2.29191 8.69018 2.30583 8.70409C2.3195 8.71969 2.33534 8.73 2.35261 8.7372C2.36988 8.74584 2.38907 8.74943 2.40803 8.74943C2.43921 8.74943 2.46872 8.74416 2.49823 8.73384C2.52774 8.72352 2.55532 8.71105 2.58315 8.69378C2.60906 8.67818 2.63521 8.65899 2.65944 8.63668C2.68367 8.61605 2.70598 8.59518 2.73045 8.57406C2.73213 8.55175 2.73549 8.52728 2.73909 8.50305C2.74269 8.47882 2.74413 8.45603 2.74413 8.4318C2.74413 8.40757 2.74077 8.38166 2.73717 8.35216L2.73741 8.35192Z" fill="#01164A"></path></g><g id="Group_5"><path id="Vector_11" d="M12.9409 6.29185C12.8679 6.33143 12.7765 6.30456 12.737 6.23139C12.6974 6.15822 12.7245 6.06682 12.7976 6.02723C12.8706 5.98765 12.962 6.01476 13.0016 6.08793C13.0411 6.16086 13.014 6.25226 12.9411 6.29161L12.9409 6.29185Z" fill="#C0000C"></path><path id="Vector_12" d="M3.20259 11.5685C3.12942 11.608 3.03825 11.5807 2.99867 11.5078C2.95909 11.4348 2.98619 11.3432 3.05936 11.3038C3.13229 11.2643 3.2237 11.2914 3.26328 11.3645C3.30286 11.4375 3.27576 11.5289 3.20283 11.5685H3.20259Z" fill="#C0000C"></path><path id="Vector_13" d="M10.506 13.739C10.4664 13.666 10.4935 13.5744 10.5667 13.5348C10.6399 13.4952 10.731 13.5223 10.7708 13.5955C10.8102 13.6684 10.7831 13.7598 10.7102 13.7994C10.637 13.8392 10.5458 13.8119 10.5062 13.739H10.506Z" fill="#C0000C"></path><path id="Vector_14" d="M5.22963 4.00058C5.19004 3.92765 5.21715 3.83601 5.29032 3.79642C5.36349 3.75708 5.45465 3.78395 5.49424 3.85688C5.53382 3.93029 5.50647 4.02145 5.43354 4.06103C5.36061 4.10062 5.26897 4.07351 5.22963 4.00058Z" fill="#C0000C"></path></g><g id="Group_6"><path id="Vector_15" d="M10.9454 4.10563C10.9032 4.17713 10.8108 4.20088 10.7393 4.15865C10.6678 4.11643 10.6438 4.02431 10.6863 3.95282C10.7285 3.88133 10.8209 3.85734 10.8924 3.8998C10.9639 3.94202 10.9876 4.03414 10.9454 4.10587V4.10563Z" fill="#C0000C"></path><path id="Vector_16" d="M5.31394 13.6432C5.27171 13.7146 5.17935 13.7384 5.10786 13.6962C5.03637 13.654 5.01262 13.5616 5.05484 13.4901C5.09707 13.4184 5.18943 13.3946 5.26092 13.4371C5.33241 13.4793 5.3564 13.5714 5.31394 13.6432Z" fill="#C0000C"></path><path id="Vector_17" d="M12.6925 11.7431C12.6207 11.7009 12.5972 11.6087 12.6392 11.5373C12.6814 11.4658 12.7738 11.442 12.8453 11.484C12.9168 11.5262 12.9405 11.6186 12.8983 11.6903C12.8561 11.7618 12.7637 11.7856 12.6922 11.7431H12.6925Z" fill="#C0000C"></path><path id="Vector_18" d="M3.15474 6.11171C3.08325 6.06949 3.0595 5.97712 3.10172 5.90587C3.14394 5.83414 3.2363 5.81039 3.30779 5.85286C3.37928 5.89508 3.40303 5.98744 3.36081 6.05869C3.31859 6.13042 3.22623 6.15417 3.15474 6.11195V6.11171Z" fill="#C0000C"></path></g><g id="Group_7"><path id="Vector_19" d="M8.00012 8.93171C7.88185 8.93171 7.78589 8.83575 7.78589 8.71748V4.65954C7.78589 4.54103 7.88185 4.44507 8.00012 4.44507C8.11839 4.44507 8.21459 4.54103 8.21459 4.65954V8.71748C8.21459 8.83575 8.11863 8.93171 8.00012 8.93171Z" fill="#C0000C"></path><path id="Vector_20" d="M10.9329 8.93176H8.00012C7.88185 8.93176 7.78589 8.8358 7.78589 8.71753C7.78589 8.59926 7.88185 8.5033 8.00012 8.5033H10.9329C11.0514 8.5033 11.1472 8.59926 11.1472 8.71753C11.1472 8.8358 11.0512 8.93176 10.9329 8.93176Z" fill="#C0000C"></path><path id="Vector_21" d="M10.1965 9.34702V8.08801L11.4822 8.71751L10.1965 9.34702Z" fill="#C0000C"></path><path id="Vector_22" d="M8.62961 5.30223H7.37061L8.00011 4.0166L8.62961 5.30223Z" fill="#C0000C"></path></g><path id="Vector_23" d="M8.43766 8.71749C8.43766 8.95907 8.2419 9.15483 8.00008 9.15483C7.75826 9.15483 7.5625 8.95907 7.5625 8.71749C7.5625 8.47591 7.7585 8.28015 8.00008 8.28015C8.24166 8.28015 8.43766 8.47591 8.43766 8.71749Z" fill="url(#paint3_linear_530_104696)"></path></g><defs><linearGradient id="paint0_linear_530_104696" x1="2.34313" y1="14.3744" x2="13.6568" y2="3.06068" gradientUnits="userSpaceOnUse"><stop stop-color="#F2709C"></stop><stop offset="1" stop-color="#FF9472"></stop></linearGradient><radialGradient id="paint1_radial_530_104696" cx="0" cy="0" r="1" gradientUnits="userSpaceOnUse" gradientTransform="translate(1.33618 2.19359) rotate(-45) scale(9.84916)"><stop stop-color="white"></stop><stop offset="0.94" stop-color="white"></stop></radialGradient><radialGradient id="paint2_radial_530_104696" cx="0" cy="0" r="1" gradientUnits="userSpaceOnUse" gradientTransform="translate(4.29559 4.04947) scale(8.3397)"><stop stop-color="white"></stop><stop offset="0.94" stop-color="white"></stop></radialGradient><linearGradient id="paint3_linear_530_104696" x1="7.5625" y1="8.71749" x2="8.43766" y2="8.71749" gradientUnits="userSpaceOnUse"><stop stop-color="#F2709C"></stop><stop offset="1" stop-color="#FF9472"></stop></linearGradient><clipPath id="clip0_530_104696"><rect width="16" height="16" fill="white" transform="translate(0 0.717529)"></rect></clipPath></defs></svg>