<svg width="100%" height="100%" viewBox="0 0 16 17" fill="#9a8f9f" xmlns="http://www.w3.org/2000/svg"><g id="fi_5140359" clip-path="url(#clip0_523_64764)"><path id="Vector" d="M7.52941 16.4864C5.67455 16.3788 3.98926 15.6393 2.68563 14.4799L4.35348 12.812C5.22516 13.5499 6.32357 14.0282 7.52941 14.1277V16.4864ZM2.02012 13.8144C0.860737 12.5107 0.121205 10.8254 0.0136108 8.97058H2.37227C2.47175 10.1764 2.95008 11.2748 3.68797 12.1465L2.02012 13.8144ZM0.0136108 8.02941C0.121205 6.17455 0.860737 4.48926 2.02012 3.18563L3.68797 4.85348C2.95008 5.72516 2.47175 6.82357 2.37227 8.02941H0.0136108ZM2.68563 2.52012C3.98926 1.36074 5.67455 0.621205 7.52941 0.513611V2.87227C6.32357 2.97175 5.22516 3.45008 4.35348 4.18797L2.68563 2.52012ZM8.47058 0.513611C10.3254 0.621205 12.0107 1.36074 13.3144 2.52012L11.6465 4.18797C10.7748 3.45008 9.67642 2.97175 8.47058 2.87227V0.513611ZM13.9799 3.18563C15.1393 4.48926 15.8788 6.17455 15.9864 8.02941H13.6277C13.5282 6.82357 13.0499 5.72516 12.312 4.85348L13.9799 3.18563ZM15.9864 8.97058C15.8788 10.8254 15.1393 12.5107 13.9799 13.8144L12.312 12.1465C13.0499 11.2748 13.5282 10.1764 13.6277 8.97058H15.9864ZM13.3144 14.4799C12.0107 15.6393 10.3254 16.3788 8.47058 16.4864V14.1277C9.67642 14.0282 10.7748 13.5499 11.6465 12.812L13.3144 14.4799ZM8 13.2059C5.40101 13.2059 3.29411 11.099 3.29411 8.5C3.29411 5.90101 5.40101 3.79411 8 3.79411C10.599 3.79411 12.7059 5.90101 12.7059 8.5C12.7059 11.099 10.599 13.2059 8 13.2059Z" fill="var(--color-quaternary)"></path></g><defs><clipPath id="clip0_523_64764"><rect width="16" height="16" fill="white" transform="translate(0 0.5)"></rect></clipPath></defs></svg>