<svg width="20" height="20" viewBox="0 0 20 20" fill="#fff" xmlns="http://www.w3.org/2000/svg" class="w-6 h-6"><g id="fi_69524" clip-path="url(#clip0_523_155769)"><g id="Group"><g id="Group_2"><g id="Group_3"><path id="Vector" d="M19.6643 9.10439L16.6332 6.07329V2.57187C16.6332 1.93876 16.1202 1.42568 15.4861 1.42568C14.8535 1.42568 14.3405 1.93876 14.3405 2.57187V3.78063L12.0836 1.52366C10.9678 0.408433 9.02771 0.410411 7.91442 1.52568L0.335548 9.10439C-0.111849 9.55268 -0.111849 10.278 0.335548 10.7256C0.783148 11.1738 1.50992 11.1738 1.95736 10.7256L9.53551 3.14672C9.78238 2.90114 10.2175 2.90114 10.4631 3.14599L18.0425 10.7256C18.2673 10.9497 18.5603 11.0612 18.8532 11.0612C19.1468 11.0612 19.4403 10.9496 19.6643 10.7256C20.1119 10.2781 20.1119 9.55272 19.6643 9.10439Z" fill="#fff"></path><path id="Vector_2" d="M10.3981 5.32252C10.1779 5.10245 9.82136 5.10245 9.60182 5.32252L2.93543 11.9869C2.83018 12.0921 2.77051 12.2358 2.77051 12.3857V17.2465C2.77051 18.3871 3.69534 19.3119 4.83592 19.3119H8.13646V14.2004H11.8627V19.3119H15.1633C16.3038 19.3119 17.2287 18.3871 17.2287 17.2465V12.3857C17.2287 12.2358 17.1695 12.0921 17.0637 11.9869L10.3981 5.32252Z" fill="var(--color-quaternary)"></path></g></g></g></g><defs><clipPath id="clip0_523_155769"><rect width="20" height="20" fill="white"></rect></clipPath></defs></svg>