<svg width="100%" height="100%" viewBox="0 0 17 17" fill="var(--color-quaternary)" xmlns="http://www.w3.org/2000/svg"><g id="fi_5410262"><g id="Layer_2"><path id="Vector" d="M7.33325 2H3.33325C2.782 2 2.33325 2.44875 2.33325 3V7C2.33325 7.55125 2.782 8 3.33325 8H7.33325C7.8845 8 8.33325 7.55125 8.33325 7V3C8.33325 2.44875 7.8845 2 7.33325 2Z" fill="#9a8f9f"></path><path id="Vector_2" d="M14.3333 2H10.3333C9.782 2 9.33325 2.44875 9.33325 3V7C9.33325 7.55125 9.782 8 10.3333 8H14.3333C14.8845 8 15.3333 7.55125 15.3333 7V3C15.3333 2.44875 14.8845 2 14.3333 2Z" fill="#9a8f9f"></path><path id="Vector_3" d="M7.33325 9H3.33325C2.782 9 2.33325 9.44875 2.33325 10V14C2.33325 14.5512 2.782 15 3.33325 15H7.33325C7.8845 15 8.33325 14.5512 8.33325 14V10C8.33325 9.44875 7.8845 9 7.33325 9Z" fill="#9a8f9f"></path><path id="Vector_4" d="M14.3333 9H10.3333C9.782 9 9.33325 9.44875 9.33325 10V14C9.33325 14.5512 9.782 15 10.3333 15H14.3333C14.8845 15 15.3333 14.5512 15.3333 14V10C15.3333 9.44875 14.8845 9 14.3333 9Z" fill="#9a8f9f"></path></g></g></svg>