<svg width="100%" height="100%" viewBox="0 0 17 17" fill="#9a8f9f" xmlns="http://www.w3.org/2000/svg"><g id="fi_10928218"><path id="Vector" d="M8.33325 8.88308L9.36133 9.50002L8.33325 10.117V8.88308ZM15.3333 8.00002V11C15.3333 13.4812 13.3145 15.5 10.8333 15.5H6.83325C4.35205 15.5 2.33325 13.4812 2.33325 11V8.00002C2.33325 5.6448 4.18384 4.00002 6.83325 4.00002H7.79306L6.44287 2.31228C6.27026 2.0967 6.30518 1.782 6.521 1.60964C6.73633 1.43752 7.05103 1.47219 7.22363 1.68776L8.83325 3.69979L10.4429 1.68776C10.6152 1.47146 10.9302 1.43776 11.1455 1.60964C11.3613 1.782 11.3962 2.0967 11.2236 2.31228L9.87344 4.00002H10.8333C13.4827 4.00002 15.3333 5.6448 15.3333 8.00002ZM10.8333 9.50002C10.8333 9.32448 10.7412 9.16164 10.5906 9.07131L8.09058 7.57131C7.93604 7.47854 7.74341 7.47609 7.58691 7.56496C7.43018 7.65358 7.33325 7.81984 7.33325 8.00002V11C7.33325 11.1802 7.43018 11.3465 7.58691 11.4351C7.66333 11.4785 7.74829 11.5 7.83325 11.5C7.92236 11.5 8.01147 11.4763 8.09058 11.4287L10.5906 9.92873C10.7412 9.8384 10.8333 9.67556 10.8333 9.50002Z" fill="#9a8f9f"></path></g></svg>