<svg width="100%" height="100%" viewBox="0 0 16 17" fill="#9a8f9f" xmlns="http://www.w3.org/2000/svg"><g id="fi_1165187" clip-path="url(#clip0_523_64768)"><path id="Vector" d="M8 0.5C3.58177 0.5 0 4.08177 0 8.5C0 12.9182 3.58177 16.5 8 16.5C12.4182 16.5 16 12.9182 16 8.5C15.9951 4.08385 12.4161 0.504948 8 0.5ZM8.28555 2.80638L11.0667 1.69466C11.3823 1.8375 11.6876 2.00208 11.9805 2.18724L11.9878 2.1918C12.2755 2.37409 12.5505 2.57578 12.8109 2.79544L12.8333 2.81497C12.9501 2.91445 13.0637 3.01745 13.1741 3.1237C13.188 3.13737 13.2026 3.15039 13.2165 3.16432C13.3323 3.27734 13.4444 3.39388 13.5529 3.5138C13.5618 3.52396 13.5704 3.53464 13.5794 3.54479C13.6746 3.65143 13.7661 3.76185 13.8549 3.87409C13.8763 3.90078 13.8977 3.92747 13.9184 3.95417C14.0147 4.07891 14.1079 4.20586 14.196 4.33685L13.6415 6.69362L10.9138 7.603L8.2862 5.50052L8.28555 2.80638ZM2.08138 3.95573C2.10208 3.92904 2.12318 3.90234 2.14453 3.87578C2.23229 3.76445 2.32305 3.65586 2.4168 3.54987C2.42695 3.53867 2.43633 3.52721 2.44635 3.51602C2.55417 3.39583 2.66576 3.27943 2.78138 3.16667C2.79466 3.15365 2.80794 3.13997 2.82188 3.128C2.93138 3.0224 3.04401 2.92005 3.15977 2.82109L3.18646 2.7987C3.44453 2.5806 3.71693 2.38021 4.00182 2.1987L4.01224 2.19206C4.30339 2.00729 4.60677 1.84297 4.92057 1.7L7.71445 2.80638V5.49974L5.08672 7.60182L2.35898 6.69414L1.80456 4.33737C1.89336 4.20664 1.98555 4.07995 2.08138 3.95573ZM1.76003 12.5921C1.68164 12.4725 1.60664 12.3508 1.53516 12.2267L1.51784 12.1967C1.44674 12.0733 1.37943 11.9478 1.31602 11.8203L1.3138 11.8163C1.18021 11.548 1.06289 11.272 0.96263 10.9896V10.987C0.915234 10.8536 0.872005 10.7171 0.832031 10.5797L0.817578 10.529C0.78099 10.4 0.747787 10.2695 0.718099 10.1376C0.715495 10.1247 0.71224 10.1125 0.709635 10.0997C0.644141 9.80182 0.597135 9.50026 0.56875 9.19648L2.19674 7.24297L4.9056 8.14583L5.6918 11.2904L4.4 13.0091L1.76003 12.5921ZM9.77578 15.7514C9.64245 15.7845 9.5056 15.813 9.36875 15.8387C9.34961 15.8424 9.33008 15.8456 9.31094 15.8491C9.1944 15.8699 9.07656 15.8878 8.95846 15.9023C8.92695 15.9064 8.8957 15.9107 8.86432 15.9145C8.75469 15.9272 8.64401 15.9368 8.53307 15.9448C8.49818 15.9471 8.46367 15.9507 8.42878 15.9529C8.28698 15.9616 8.14401 15.9667 8 15.9667C7.8681 15.9667 7.73698 15.9632 7.60664 15.9563C7.59089 15.9563 7.57578 15.9536 7.56003 15.9525C7.44401 15.9458 7.32852 15.9371 7.21328 15.9259L7.2 15.9234C6.94753 15.8961 6.69648 15.856 6.44805 15.8035L4.8707 13.3339L6.14219 11.6384H9.85781L11.1501 13.3451L9.77578 15.7514ZM15.2923 10.1C15.2896 10.1128 15.2865 10.1251 15.2837 10.1379C15.2539 10.2697 15.2207 10.4001 15.1842 10.5293L15.1699 10.5799C15.1298 10.7173 15.0867 10.8534 15.0392 10.9872V10.9898C14.9389 11.2723 14.8217 11.5483 14.688 11.8165L14.6858 11.8206C14.622 11.9482 14.5548 12.0737 14.484 12.197L14.4667 12.227C14.3956 12.3514 14.3207 12.4729 14.2422 12.5918L11.6112 13.0066L10.3104 11.2893L11.0962 8.14557L13.8051 7.24271L15.4331 9.19622C15.4048 9.50013 15.3578 9.80195 15.2923 10.1Z" fill="var(--color-quaternary)"></path></g><defs><clipPath id="clip0_523_64768"><rect width="16" height="16" fill="white" transform="translate(0 0.5)"></rect></clipPath></defs></svg>