<svg width="49" height="25" viewBox="0 0 49 25" fill="none" xmlns="http://www.w3.org/2000/svg"><g id="Frame 18"><path id="Vector" d="M33.6007 7.40674C33.5885 7.40674 33.5739 7.40909 33.5617 7.40909C33.3265 7.41734 33.106 7.49389 32.9014 7.63992C32.6833 7.79538 32.5408 7.98498 32.4701 8.20757C32.4701 8.20757 31.4687 11.4297 31.4663 11.4333C31.4151 11.637 31.4456 11.8101 31.5577 11.9479C31.6295 12.0386 31.7282 12.101 31.8488 12.1375C31.9183 12.1587 31.9974 12.1705 32.0839 12.174C32.0998 12.174 40.1304 12.1764 40.1304 12.1764L39.6261 13.7945H30.728L30.2468 15.3467H39.1437H40.0245C40.0427 15.3467 40.0622 15.3444 40.0805 15.3444C40.3095 15.3338 40.5264 15.2608 40.7298 15.1194C40.9503 14.9687 41.0953 14.7826 41.1659 14.5588C41.1659 14.5588 42.1552 11.3744 42.1588 11.3614C42.2112 11.16 42.1807 10.9881 42.0674 10.8479C41.9456 10.6972 41.7605 10.6218 41.5107 10.6218H33.4947L34.0149 8.95893H42.9093L43.3929 7.40909L33.6031 7.40674H33.6007Z" fill="#fff"></path><path id="Vector_2" d="M3.52938 15.3454H1.75439L4.22378 7.41602H5.99998L3.52938 15.3454Z" fill="#fff"></path><path id="Vector_3" d="M18.9877 7.41602L11.5723 12.9841L8.98717 9.17666L7.79085 7.41602H7.75918L7.19513 9.22377L5.28979 15.3454H7.06478L8.40119 11.0539L11.2336 15.356L15.9202 11.5485L14.7446 15.3454H16.5208L18.2543 9.77964L18.9902 7.41602H18.9877Z" fill="#fff"></path><path id="Vector_4" d="M30.9827 7.63375C30.8609 7.48182 30.6708 7.40527 30.4126 7.40527H20.6495L20.1659 8.95865L29.0469 8.95629L28.5304 10.6168L19.653 10.6204L18.1753 15.3441H19.9527L20.9419 12.1679H28.9287C29.1773 12.1679 29.4124 12.0925 29.6341 11.9417C29.8534 11.791 29.9984 11.6037 30.0678 11.3812L31.057 8.20493C31.1301 7.9741 31.1045 7.78449 30.9827 7.63257V7.63375Z" fill="#fff"></path><path id="Vector_5" d="M46.7382 7.43945L48.9749 11.3965L44.2725 15.3512L46.7382 7.43945Z" fill="#088C45"></path><path id="Vector_6" d="M45.1703 7.43945L47.4058 11.3965L42.6997 15.3512L45.1703 7.43945Z" fill="#F37A21"></path><g id="Group"><path id="Vector_7" d="M0.976072 18.1186L1.43535 16.6465H1.7058L1.2453 18.1186H0.974854H0.976072Z" fill="#fff"></path><path id="Vector_8" d="M3.80606 17.3921C3.80606 17.3815 3.81094 17.3485 3.82068 17.2979C3.82799 17.2543 3.83287 17.2201 3.83774 17.1907C3.8219 17.2248 3.79997 17.259 3.77804 17.292C3.75368 17.3261 3.72931 17.3591 3.69886 17.3944L3.02151 18.1776L2.83756 17.3779C2.83147 17.345 2.82416 17.3132 2.8205 17.2814C2.81807 17.2508 2.81441 17.2201 2.81441 17.1895C2.80467 17.2213 2.79127 17.2531 2.77543 17.2873C2.75959 17.3202 2.74132 17.3556 2.72061 17.3933L2.31615 18.1175H2.06885L2.93989 16.583L3.13725 17.5122C3.1409 17.5263 3.14334 17.5522 3.14943 17.5852C3.1543 17.6194 3.16039 17.6618 3.16649 17.7112C3.19451 17.6688 3.23714 17.6147 3.29196 17.5511C3.30537 17.5322 3.31755 17.5204 3.32486 17.511L4.09235 16.583L4.01195 18.1175H3.76343L3.80728 17.3909L3.80606 17.3921Z" fill="#fff"></path><path id="Vector_9" d="M6.49234 17.3921C6.49234 17.3815 6.49843 17.3485 6.50696 17.2979C6.51427 17.2543 6.51914 17.2201 6.52402 17.1907C6.50696 17.2248 6.48747 17.259 6.46432 17.292C6.44117 17.3261 6.41559 17.3591 6.38514 17.3944L5.70779 18.1776L5.52384 17.3779C5.51653 17.345 5.51044 17.3132 5.50678 17.2814C5.50313 17.2508 5.50069 17.2201 5.50069 17.1895C5.48973 17.2213 5.47754 17.2531 5.46171 17.2873C5.44709 17.3202 5.4276 17.3556 5.40567 17.3933L5.00243 18.1175H4.75391L5.62495 16.583L5.82352 17.5122C5.82718 17.5263 5.83083 17.5522 5.83449 17.5852C5.84058 17.6194 5.84545 17.6618 5.85154 17.7112C5.87956 17.6688 5.92098 17.6147 5.97581 17.5511C5.99042 17.5322 6.00261 17.5204 6.00992 17.511L6.77619 16.583L6.69701 18.1175H6.44727L6.49112 17.3909L6.49234 17.3921Z" fill="#fff"></path><path id="Vector_10" d="M7.60205 18.1186L8.06254 16.6465H8.98597L8.92262 16.8502H8.26721L8.15269 17.22H8.80567L8.7411 17.4285H8.08569L7.93706 17.9043H8.59004L8.52426 18.1186H7.59961H7.60205Z" fill="#fff"></path><path id="Vector_11" d="M9.42944 18.1186L9.88994 16.6465H10.253C10.4893 16.6465 10.6513 16.6571 10.7415 16.6783C10.8304 16.6983 10.9035 16.7348 10.9608 16.7843C11.0363 16.8479 11.0826 16.9315 11.1009 17.0339C11.1179 17.1352 11.107 17.2518 11.0668 17.3825C11.0253 17.5133 10.9644 17.6287 10.8828 17.73C10.8024 17.8312 10.7037 17.9149 10.588 17.9796C10.5003 18.0303 10.4053 18.0656 10.3078 18.0868C10.2091 18.108 10.0617 18.1174 9.86679 18.1174H9.43066L9.42944 18.1186ZM9.7669 17.9019H9.99349C10.1178 17.9019 10.2128 17.8948 10.2798 17.8807C10.348 17.8654 10.4089 17.8407 10.4662 17.8053C10.5429 17.757 10.6087 17.6993 10.6623 17.6275C10.7159 17.5568 10.7573 17.4744 10.7866 17.3814C10.8158 17.2883 10.8256 17.2059 10.8158 17.1352C10.8073 17.0634 10.7793 17.0045 10.7317 16.9574C10.6964 16.9221 10.6477 16.8973 10.5868 16.8832C10.5259 16.8679 10.426 16.8608 10.2871 16.8608H10.0922L9.7669 17.9019Z" fill="#fff"></path><path id="Vector_12" d="M11.7441 18.1186L12.2059 16.6465H12.4739L12.0146 18.1186H11.7454H11.7441Z" fill="#fff"></path><path id="Vector_13" d="M14.0904 18.1189L14.0209 17.7397H13.3643L13.0548 18.1189H12.7722L14.0526 16.5879L14.3754 18.1189H14.0916H14.0904ZM13.5263 17.5406H13.988L13.9235 17.205C13.9198 17.1838 13.9186 17.1591 13.9174 17.1308C13.9149 17.1037 13.9137 17.0719 13.9137 17.0378C13.8954 17.0696 13.8759 17.1002 13.8565 17.1285C13.8382 17.1555 13.8187 17.1803 13.8016 17.205L13.5263 17.5406Z" fill="#fff"></path><path id="Vector_14" d="M15.9312 16.8502L15.534 18.1186H15.2648L15.662 16.8502H15.2222L15.2855 16.6465H16.4319L16.3698 16.8502H15.9312Z" fill="#fff"></path><path id="Vector_15" d="M16.7729 18.1186L17.2322 16.6465H18.1569L18.0935 16.8502H17.4381L17.3224 17.22H17.9766L17.9108 17.4285H17.2554L17.1067 17.9043H17.7609L17.6939 18.1186H16.7705H16.7729Z" fill="#fff"></path><path id="Vector_16" d="M20.3545 17.4581L20.1474 18.1176H19.894L20.3533 16.6455H20.7614C20.8833 16.6455 20.9698 16.6526 21.0234 16.6632C21.077 16.6749 21.1208 16.695 21.1537 16.7209C21.1951 16.755 21.2219 16.801 21.2329 16.8598C21.2439 16.9164 21.239 16.9823 21.2171 17.0506C21.1951 17.1213 21.1598 17.1849 21.1123 17.2438C21.0648 17.3038 21.01 17.3486 20.9478 17.3827C20.8979 17.4098 20.8406 17.4298 20.7821 17.4404C20.72 17.451 20.6311 17.4581 20.5093 17.4581H20.3545ZM20.4325 17.2614H20.5019C20.6518 17.2614 20.7553 17.2473 20.8138 17.2179C20.8735 17.1872 20.9125 17.1378 20.9356 17.0648C20.96 16.9859 20.9515 16.9305 20.9076 16.8987C20.865 16.8657 20.7724 16.8504 20.6299 16.8504H20.5592L20.4313 17.2614H20.4325Z" fill="#fff"></path><path id="Vector_17" d="M22.5511 18.1189L22.4828 17.7397H21.8262L21.5155 18.1189H21.2329L22.5121 16.5879L22.8361 18.1189H22.5498H22.5511ZM21.9882 17.5406H22.4499L22.3854 17.205C22.3817 17.1838 22.3793 17.1591 22.3768 17.1308C22.3744 17.1037 22.3732 17.0719 22.3744 17.0378C22.3549 17.0696 22.3366 17.1002 22.3171 17.1285C22.2977 17.1555 22.2806 17.1803 22.2623 17.205L21.987 17.5406H21.9882Z" fill="#fff"></path><path id="Vector_18" d="M23.6792 18.1188L23.89 17.4452L23.5818 16.6467H23.8644L24.0557 17.146C24.0593 17.159 24.0654 17.1766 24.0703 17.1967C24.0764 17.2179 24.0825 17.2402 24.0874 17.2638C24.1044 17.2402 24.1227 17.2179 24.1422 17.1967C24.1592 17.1766 24.1787 17.1566 24.1958 17.1401L24.7062 16.6455H24.9742L24.1556 17.444L23.9448 18.1176H23.678L23.6792 18.1188Z" fill="#fff"></path><path id="Vector_19" d="M26.6835 17.3921C26.6835 17.3815 26.6896 17.3485 26.6981 17.2979C26.7054 17.2543 26.7115 17.2201 26.7152 17.1907C26.6981 17.2248 26.6786 17.259 26.6555 17.292C26.6323 17.3261 26.6055 17.3591 26.5751 17.3944L25.8977 18.1776L25.7138 17.3779C25.7077 17.345 25.7016 17.3132 25.6979 17.2814C25.6931 17.2508 25.6919 17.2201 25.6919 17.1895C25.6809 17.2213 25.6687 17.2531 25.6529 17.2873C25.637 17.3202 25.6175 17.3556 25.5968 17.3933L25.1936 18.1175H24.9463L25.8161 16.583L26.0159 17.5122C26.0183 17.5263 26.022 17.5522 26.0281 17.5852C26.0317 17.6194 26.0378 17.6618 26.0427 17.7112C26.0732 17.6688 26.1146 17.6147 26.1682 17.5511C26.1828 17.5322 26.1938 17.5204 26.2011 17.511L26.9698 16.583L26.8906 18.1175H26.6409L26.6847 17.3909L26.6835 17.3921Z" fill="#fff"></path><path id="Vector_20" d="M27.7007 18.1186L28.16 16.6465H29.0846L29.0213 16.8502H28.3671L28.2513 17.22H28.9067L28.841 17.4285H28.1868L28.0394 17.9043H28.6923L28.6265 18.1186H27.7019H27.7007Z" fill="#fff"></path><path id="Vector_21" d="M29.5281 18.1189L30.0056 16.5879L30.7768 17.4876C30.7975 17.5136 30.8182 17.5395 30.8389 17.5701C30.8596 17.5983 30.8803 17.6301 30.9023 17.6667L31.2202 16.6468H31.4687L30.9924 18.1766L30.2054 17.2604C30.1847 17.2356 30.164 17.2097 30.1457 17.1826C30.1262 17.1555 30.1116 17.1273 30.0958 17.0955L29.7754 18.1189H29.5281Z" fill="#fff"></path><path id="Vector_22" d="M32.916 16.8502L32.5201 18.1186H32.2497L32.6456 16.8502H32.2058L32.2679 16.6465H33.4167L33.3522 16.8502H32.9148H32.916Z" fill="#fff"></path><path id="Vector_23" d="M35.0503 17.8244L35.2939 17.7361C35.2939 17.8009 35.3159 17.8515 35.3597 17.8857C35.4024 17.921 35.4669 17.9375 35.551 17.9375C35.6302 17.9375 35.7008 17.9186 35.7593 17.8774C35.8202 17.8374 35.8592 17.7844 35.8799 17.7184C35.9067 17.6325 35.8507 17.5547 35.7106 17.4876C35.6911 17.4782 35.6765 17.4711 35.6655 17.4652C35.5071 17.3863 35.4085 17.3145 35.367 17.2509C35.328 17.1873 35.3207 17.1084 35.35 17.0154C35.3865 16.8964 35.4633 16.7987 35.5778 16.7256C35.6935 16.6503 35.8251 16.6138 35.9737 16.6138C36.0955 16.6138 36.1918 16.635 36.26 16.6762C36.3294 16.7186 36.3684 16.7786 36.3757 16.8564L36.1357 16.9541C36.1163 16.907 36.0907 16.874 36.0578 16.8528C36.0249 16.8305 35.9822 16.821 35.9323 16.821C35.8592 16.821 35.7983 16.8375 35.7447 16.8705C35.6923 16.9058 35.657 16.9494 35.6387 17.0059C35.6119 17.0943 35.6789 17.1779 35.8422 17.2533C35.8543 17.2591 35.8653 17.2627 35.8714 17.2674C36.0139 17.3345 36.1065 17.4005 36.1467 17.4641C36.1881 17.5277 36.1942 17.6077 36.1638 17.7031C36.1199 17.8421 36.0371 17.9528 35.9116 18.0352C35.7873 18.1165 35.6411 18.1577 35.4742 18.1577C35.3329 18.1577 35.2257 18.1295 35.1551 18.0706C35.082 18.014 35.0479 17.9316 35.0539 17.8244H35.0503Z" fill="#fff"></path><path id="Vector_24" d="M37.0117 18.1186L37.4722 16.6465H38.3969L38.3335 16.8502H37.6781L37.5624 17.22H38.2178L38.152 17.4285H37.4978L37.3492 17.9043H38.0046L37.9364 18.1186H37.0117Z" fill="#fff"></path><path id="Vector_25" d="M39.3909 17.4603L39.1863 18.1186H38.9341L39.3934 16.6465H39.7698C39.8794 16.6465 39.9635 16.6536 40.0195 16.6653C40.0744 16.6795 40.1219 16.6995 40.1548 16.7289C40.1937 16.7643 40.2193 16.8102 40.2303 16.8667C40.24 16.9232 40.2352 16.9845 40.2132 17.0516C40.1767 17.1694 40.1158 17.2624 40.0305 17.3284C39.9464 17.3955 39.838 17.4355 39.7089 17.4497L40.0695 18.1186H39.7649L39.4189 17.4603H39.3873H39.3909ZM39.4665 17.2742H39.5152C39.6577 17.2742 39.7576 17.2601 39.8124 17.2306C39.8685 17.2 39.9087 17.1482 39.9318 17.0728C39.9574 16.9915 39.9501 16.9338 39.9099 16.902C39.8709 16.8679 39.782 16.8514 39.6468 16.8514H39.5968L39.4652 17.2742H39.4665Z" fill="#fff"></path><path id="Vector_26" d="M41.2426 18.1763L40.9819 16.6465H41.2609L41.3864 17.4308C41.3949 17.4768 41.3986 17.518 41.401 17.558C41.4034 17.5969 41.4034 17.6334 41.401 17.6664C41.4229 17.631 41.4461 17.591 41.4729 17.5533C41.5009 17.5133 41.5301 17.4732 41.5643 17.4308L42.1807 16.6465H42.4597L41.2426 18.1763Z" fill="#fff"></path><path id="Vector_27" d="M42.7192 18.1186L43.1785 16.6465H43.449L42.9872 18.1186H42.718H42.7192Z" fill="#fff"></path><path id="Vector_28" d="M45.4638 17.0047C45.4053 16.947 45.3371 16.9034 45.2628 16.874C45.1873 16.8457 45.102 16.8304 45.0094 16.8304C44.8279 16.8304 44.6646 16.8822 44.5197 16.9847C44.3735 17.0871 44.2748 17.2225 44.2236 17.3862C44.1737 17.5452 44.1883 17.676 44.2663 17.7784C44.3454 17.8821 44.4673 17.9339 44.6354 17.9339C44.7341 17.9339 44.8315 17.9197 44.9302 17.8879C45.0289 17.8561 45.1276 17.809 45.2287 17.7478L45.1446 18.0187C45.0581 18.0658 44.968 18.0988 44.8766 18.1223C44.7828 18.1447 44.6878 18.1565 44.5879 18.1565C44.4612 18.1565 44.3503 18.1388 44.2541 18.1011C44.1578 18.0646 44.0799 18.0104 44.0214 17.9386C43.9629 17.8691 43.9276 17.7855 43.913 17.6901C43.9008 17.5935 43.9093 17.4922 43.9434 17.3851C43.9788 17.2755 44.0311 17.1754 44.1042 17.0812C44.1761 16.9858 44.2675 16.9034 44.3698 16.8304C44.4746 16.7574 44.5867 16.7032 44.7048 16.6667C44.823 16.629 44.9436 16.6113 45.0666 16.6113C45.1653 16.6113 45.2543 16.6231 45.3334 16.6478C45.4151 16.6737 45.4882 16.7114 45.5552 16.7621L45.4662 17.0047H45.4638Z" fill="#fff"></path><path id="Vector_29" d="M45.9988 18.1186L46.4581 16.6465H47.3827L47.3194 16.8502H46.6639L46.5482 17.22H47.2036L47.1366 17.4285H46.4836L46.3338 17.9043H46.988L46.921 18.1186H45.9976H45.9988Z" fill="#fff"></path></g></g></svg>