<svg width="49" height="25" viewBox="0 0 49 25" fill="none" xmlns="http://www.w3.org/2000/svg"><g id="layer1"><g id="g22"><g id="Clip path group"><mask id="mask0_602_406055" maskUnits="userSpaceOnUse" x="0" y="0" width="49" height="25"><g id="clipPath28"><path id="path26" d="M0.974854 0.545898H48.9749V24.5459H0.974854V0.545898Z" fill="#fff"></path></g></mask><g mask="url(#mask0_602_406055)"><g id="g24"><g id="g30"><path id="path32" d="M4.7482 17.7608H5.05598L4.76998 18.9554C4.72754 19.1326 4.73554 19.2661 4.7942 19.3551C4.85265 19.4442 4.96142 19.4887 5.12042 19.4887C5.27842 19.4887 5.40798 19.4442 5.5092 19.3551C5.61054 19.2661 5.68242 19.1326 5.72487 18.9554L6.01076 17.7608H6.32254L6.02954 18.9849C5.96587 19.2509 5.85242 19.4501 5.68998 19.5821C5.52742 19.7143 5.31431 19.7803 5.05065 19.7803C4.78676 19.7803 4.60576 19.7144 4.5072 19.5827C4.40854 19.4512 4.39131 19.2518 4.4552 18.9849L4.7482 17.7608Z" fill="#fff"></path></g><g id="g34"><path id="path36" d="M6.28076 19.7279L6.77032 17.6829L7.70054 18.8854C7.72543 18.9193 7.75054 18.9556 7.77532 18.9942C7.80009 19.0328 7.82543 19.0761 7.85143 19.1245L8.17798 17.7608H8.46609L7.97687 19.8042L7.02709 18.5802C7.00165 18.5472 6.97798 18.5123 6.95587 18.4755C6.93354 18.4388 6.91343 18.4002 6.89498 18.36L6.56754 19.7279H6.28076Z" fill="#fff"></path></g><g id="g38"><path id="path40" d="M8.44385 19.728L8.91474 17.7609H9.22629L8.75551 19.728H8.44385Z" fill="#fff"></path></g><g id="g42"><path id="path44" d="M9.20093 19.728L9.67182 17.7609H10.7418L10.6768 18.0322H9.91848L9.80104 18.5227H10.5594L10.4923 18.8035H9.73382L9.51259 19.728H9.20093Z" fill="#fff"></path></g><g id="g46"><path id="path48" d="M10.6145 19.7275L11.0854 17.7604H11.3969L10.9262 19.7275H10.6145Z" fill="#fff"></path></g><g id="g50"><path id="path52" d="M11.376 19.728L11.8469 17.7609H12.9169L12.8519 18.0322H12.0935L11.9754 18.5254H12.7338L12.6666 18.8062H11.9083L11.7561 19.4418H12.5144L12.446 19.728H11.376Z" fill="#fff"></path></g><g id="g54"><path id="path56" d="M13.182 19.439H13.444C13.588 19.439 13.6985 19.4291 13.7753 19.4095C13.852 19.3898 13.9225 19.3566 13.987 19.31C14.0747 19.2466 14.1479 19.1675 14.2068 19.0729C14.2656 18.9785 14.3102 18.8684 14.3402 18.7429C14.37 18.6175 14.3783 18.5077 14.3647 18.4134C14.351 18.3187 14.3157 18.2397 14.2585 18.176C14.2155 18.1296 14.1587 18.0962 14.0878 18.0765C14.0168 18.0569 13.9013 18.047 13.7406 18.047H13.6279H13.5153L13.182 19.439ZM12.8013 19.728L13.2722 17.7608H13.6925C13.9658 17.7608 14.1547 17.7748 14.2594 17.803C14.3638 17.8314 14.4502 17.8787 14.518 17.9449C14.6082 18.0318 14.6655 18.1434 14.6902 18.2794C14.7147 18.4156 14.706 18.571 14.6643 18.7457C14.6225 18.9204 14.5568 19.0751 14.4673 19.2099C14.3779 19.3448 14.2672 19.456 14.1354 19.5438C14.0357 19.6101 13.9288 19.6574 13.8153 19.6857C13.7014 19.7138 13.5316 19.728 13.3054 19.728H13.2215H12.8013Z" fill="#fff"></path></g><g id="g58"><path id="path60" d="M16.1819 18.5832H16.2619C16.4346 18.5832 16.5545 18.5638 16.6214 18.5254C16.6884 18.4869 16.7334 18.4188 16.7567 18.3211C16.7819 18.2164 16.7689 18.1424 16.7175 18.0995C16.6662 18.0565 16.5582 18.0348 16.3932 18.0348H16.3132L16.1819 18.5832ZM16.0995 18.845L15.8882 19.728H15.5962L16.0672 17.7609H16.5386C16.6783 17.7609 16.7793 17.7687 16.8415 17.7844C16.9035 17.7999 16.9547 17.8258 16.9952 17.8617C17.0444 17.9074 17.0767 17.9689 17.0923 18.0464C17.1077 18.1239 17.1044 18.2092 17.0822 18.3022C17.0597 18.3955 17.0222 18.4815 16.9693 18.5604C16.9164 18.6391 16.8544 18.701 16.7835 18.7457C16.726 18.7816 16.6625 18.8071 16.593 18.8222C16.5233 18.8376 16.4187 18.845 16.2791 18.845H16.2176H16.0995Z" fill="#fff"></path></g><g id="g62"><path id="path64" d="M17.4677 18.9555H18.002L17.9128 18.5066C17.9085 18.478 17.9045 18.4451 17.9011 18.4079C17.8979 18.3707 17.8957 18.3292 17.8942 18.2836C17.8735 18.3266 17.8528 18.3667 17.832 18.4039C17.8113 18.441 17.7912 18.4752 17.7714 18.5066L17.4677 18.9555ZM18.1445 19.728L18.0482 19.2215H17.2885L16.9447 19.728H16.6174L18.0353 17.683L18.4732 19.728H18.1445Z" fill="#fff"></path></g><g id="g66"><path id="path68" d="M18.9212 19.728L19.1366 18.8277L18.7463 17.7609H19.0738L19.316 18.4287C19.3216 18.4458 19.3282 18.4681 19.3359 18.4959C19.3437 18.5237 19.3512 18.5536 19.3583 18.5859C19.3779 18.5546 19.398 18.5248 19.4181 18.4971C19.4382 18.4694 19.4586 18.4439 19.4791 18.4206L20.0494 17.7609H20.3612L19.4457 18.8277L19.2302 19.728H18.9212Z" fill="#fff"></path></g><g id="g70"><path id="path72" d="M21.8943 18.7562C21.8944 18.741 21.8989 18.699 21.9076 18.63C21.9142 18.5727 21.9194 18.5251 21.9232 18.4875C21.9047 18.5324 21.8828 18.5772 21.8577 18.6219C21.8324 18.6667 21.8036 18.7124 21.7706 18.759L21.018 19.8071L20.7724 18.7376C20.762 18.6936 20.754 18.651 20.7487 18.6099C20.7433 18.5687 20.7397 18.5279 20.7379 18.4875C20.7272 18.5288 20.7137 18.5719 20.6971 18.6172C20.6806 18.6625 20.6608 18.7098 20.6376 18.759L20.2 19.7278H19.9133L20.8572 17.6772L21.1259 18.9189C21.1298 18.9386 21.1354 18.9714 21.1423 19.017C21.1492 19.0627 21.1573 19.1191 21.1668 19.1862C21.1986 19.1298 21.2443 19.0582 21.3046 18.9714C21.3206 18.948 21.3328 18.9301 21.341 18.9176L22.1907 17.6772L22.1634 19.7278H21.8739L21.8943 18.7562Z" fill="#fff"></path></g><g id="g74"><path id="path76" d="M22.4128 19.728L22.8838 17.7609H23.9538L23.8888 18.0322H23.1304L23.0124 18.5254H23.7707L23.7036 18.8062H22.9452L22.7931 19.4418H23.5514L23.4827 19.728H22.4128Z" fill="#fff"></path></g><g id="g78"><path id="path80" d="M23.8394 19.7279L24.3289 17.6829L25.2591 18.8854C25.284 18.9193 25.3091 18.9556 25.3339 18.9942C25.3587 19.0328 25.384 19.0761 25.41 19.1245L25.7366 17.7608H26.0248L25.5355 19.8042L24.5857 18.5802C24.5602 18.5472 24.5366 18.5123 24.5145 18.4755C24.4921 18.4388 24.472 18.4002 24.4536 18.36L24.1261 19.7279H23.8394Z" fill="#fff"></path></g><g id="g82"><path id="path84" d="M27.0209 18.0322L26.615 19.728H26.3034L26.7092 18.0322H26.1997L26.2647 17.7609H27.5927L27.5278 18.0322H27.0209Z" fill="#fff"></path></g><g id="g86"><path id="path88" d="M27.345 19.3342L27.6221 19.2161C27.6249 19.3037 27.652 19.3707 27.7038 19.4168C27.7556 19.4631 27.8304 19.4861 27.9284 19.4861C28.0208 19.4861 28.1008 19.4596 28.1679 19.4067C28.2351 19.3539 28.2795 19.2832 28.3007 19.1945C28.3284 19.0788 28.2594 18.9758 28.0944 18.8855C28.0713 18.8721 28.0535 18.8622 28.0413 18.8558C27.8551 18.7502 27.7371 18.6545 27.6874 18.5689C27.6377 18.4834 27.6275 18.3788 27.657 18.2553C27.6954 18.0949 27.7796 17.9651 27.9095 17.8656C28.0394 17.7662 28.1903 17.7164 28.3624 17.7164C28.5038 17.7164 28.6155 17.7444 28.6971 17.8004C28.7789 17.8565 28.8256 17.9368 28.8371 18.0416L28.5628 18.1706C28.539 18.1088 28.5077 18.0636 28.4688 18.0348C28.4298 18.0062 28.3805 17.9918 28.3213 17.9918C28.2375 17.9918 28.1655 18.0144 28.1054 18.0589C28.0456 18.1038 28.0064 18.1638 27.9883 18.2392C27.96 18.3574 28.0419 18.4675 28.234 18.5696C28.2488 18.5776 28.2604 18.5841 28.2687 18.5885C28.4368 18.6779 28.5461 18.7656 28.5963 18.8512C28.6465 18.9368 28.6564 19.0436 28.6256 19.1716C28.581 19.3581 28.4885 19.5061 28.3478 19.6157C28.2071 19.7254 28.0394 19.7803 27.8448 19.7803C27.6814 19.7803 27.5568 19.7418 27.471 19.6647C27.385 19.5877 27.343 19.4776 27.345 19.3342Z" fill="#fff"></path></g><g id="g90"><path id="path92" d="M29.6475 19.728L30.1183 17.7609H30.43L29.9591 19.728H29.6475Z" fill="#fff"></path></g><g id="g94"><path id="path96" d="M30.406 19.7279L30.8956 17.6829L31.8258 18.8854C31.8507 18.9193 31.8758 18.9556 31.9006 18.9942C31.9253 19.0328 31.9507 19.0761 31.9767 19.1245L32.3032 17.7608H32.5913L32.1021 19.8042L31.1523 18.5802C31.1269 18.5472 31.1031 18.5123 31.081 18.4755C31.0588 18.4388 31.0386 18.4002 31.0201 18.36L30.6928 19.7279H30.406Z" fill="#fff"></path></g><g id="g98"><path id="path100" d="M33.5873 18.0322L33.1813 19.728H32.8698L33.2756 18.0322H32.7661L32.8311 17.7609H34.1591L34.0942 18.0322H33.5873Z" fill="#fff"></path></g><g id="g102"><path id="path104" d="M33.9258 19.728L34.3967 17.7609H35.4667L35.4018 18.0322H34.6434L34.5253 18.5254H35.2837L35.2164 18.8062H34.4581L34.306 19.4418H35.0643L34.9958 19.728H33.9258Z" fill="#fff"></path></g><g id="g106"><path id="path108" d="M35.9364 18.5992H35.9928C36.1577 18.5992 36.272 18.5797 36.3356 18.5402C36.3992 18.5008 36.4432 18.431 36.4669 18.3306C36.4929 18.2222 36.4823 18.1458 36.4346 18.1016C36.3874 18.057 36.285 18.0349 36.1279 18.0349H36.0715L35.9364 18.5992ZM35.8573 18.8478L35.6465 19.728H35.3545L35.8255 17.7609H36.2603C36.3877 17.7609 36.4846 17.7694 36.5507 17.7865C36.6169 17.8035 36.6703 17.8316 36.7106 17.8711C36.7586 17.9185 36.7897 17.98 36.8042 18.0552C36.8183 18.1304 36.8146 18.2128 36.7933 18.3022C36.7556 18.4599 36.6889 18.5834 36.5934 18.6726C36.4978 18.7616 36.3754 18.8152 36.2262 18.833L36.6722 19.728H36.3197L35.8926 18.8478H35.8573Z" fill="#fff"></path></g><g id="g110"><path id="path112" d="M36.8542 19.728L37.3251 17.7609H38.3951L38.3302 18.0322H37.5718L37.4544 18.5227H38.2128L38.1456 18.8035H37.3872L37.1659 19.728H36.8542Z" fill="#fff"></path></g><g id="g114"><path id="path116" d="M38.7587 18.9555H39.2931L39.2039 18.5066C39.1996 18.478 39.1957 18.4451 39.1922 18.4079C39.189 18.3707 39.1868 18.3292 39.1853 18.2836C39.1646 18.3266 39.1438 18.3667 39.1231 18.4039C39.1024 18.441 39.0822 18.4752 39.0624 18.5066L38.7587 18.9555ZM39.4357 19.728L39.3393 19.2215H38.5797L38.2358 19.728H37.9084L39.3263 17.683L39.7643 19.728H39.4357Z" fill="#fff"></path></g><g id="g118"><path id="path120" d="M41.7927 18.2392C41.723 18.1622 41.6437 18.1044 41.5546 18.0658C41.4657 18.0275 41.367 18.0081 41.2587 18.0081C41.0493 18.0081 40.8621 18.0771 40.6978 18.2149C40.5333 18.3529 40.4248 18.5316 40.3723 18.7512C40.3215 18.9635 40.3436 19.1385 40.4385 19.2764C40.5334 19.4144 40.6783 19.4835 40.8728 19.4835C40.9865 19.4835 41.0994 19.4628 41.2118 19.4216C41.3243 19.3804 41.4377 19.3182 41.5518 19.2347L41.4653 19.5963C41.3667 19.6581 41.2644 19.7043 41.1585 19.7346C41.0525 19.7651 40.9419 19.7803 40.8267 19.7803C40.68 19.7803 40.5503 19.7557 40.4377 19.7064C40.325 19.6572 40.2329 19.5847 40.1617 19.4887C40.0908 19.3947 40.0454 19.2839 40.0259 19.1562C40.0061 19.0286 40.0136 18.8926 40.048 18.7483C40.0826 18.6042 40.1403 18.4687 40.2208 18.3419C40.3013 18.2152 40.4007 18.1038 40.5187 18.0081C40.6371 17.9113 40.7638 17.8382 40.8987 17.7883C41.0337 17.7387 41.1729 17.7137 41.3161 17.7137C41.4288 17.7137 41.5321 17.7306 41.6263 17.7643C41.7204 17.7977 41.8073 17.8485 41.8871 17.9168L41.7927 18.2392Z" fill="#fff"></path></g><g id="g122"><path id="path124" d="M41.823 19.728L42.2939 17.7609H43.3639L43.2989 18.0322H42.5407L42.4226 18.5254H43.1809L43.1137 18.8062H42.3553L42.2032 19.4418H42.9616L42.893 19.728H41.823Z" fill="#fff"></path></g><g id="g126"><path id="path128" d="M36.1382 16.0464H33.9956L36.9754 5.28472H39.118L36.1382 16.0464Z" fill="#fff"></path></g><g id="g130"><path id="path132" d="M35.0257 5.62528C34.8771 5.42051 34.648 5.31717 34.3368 5.31717H22.555L21.9714 7.42495H24.1152V7.42373H32.6896L32.0658 9.67617H23.4912L23.492 9.67151H21.3491L19.5706 16.0923H21.7146L22.9081 11.7827H32.5466C32.8476 11.7827 33.1309 11.6801 33.3973 11.4747C33.6632 11.2692 33.8382 11.0157 33.9221 10.7131L35.1156 6.40262C35.2027 6.08984 35.1726 5.83028 35.0257 5.62528Z" fill="#fff"></path></g><g id="g134"><path id="path136" d="M18.3233 15.3748C18.205 15.8009 17.817 16.0957 17.3746 16.0957H6.32009C6.01887 16.0957 5.79498 15.993 5.64776 15.7879C5.50065 15.5826 5.46909 15.3286 5.5532 15.026L8.25054 5.31637H10.3951L7.98587 13.9886H16.5643L18.9735 5.31637H21.1176L18.3233 15.3748Z" fill="#fff"></path></g><g id="g138"><path id="path140" d="M42.8174 5.30515L45.5301 10.6999L39.8276 16.0933L42.8174 5.30515Z" fill="#27803B"></path></g><g id="g142"><path id="path144" d="M40.9148 5.30515L43.6254 10.6999L37.9207 16.0933L40.9148 5.30515Z" fill="#E9661C"></path></g></g></g></g></g></g></svg>