<svg width="60" height="16" viewBox="0 0 60 16" fill="none" xmlns="http://www.w3.org/2000/svg"><g id="Group 48243"><g id="Net Banking"><path d="M7.59387 0.751465V9.28271H6.2692L2.82296 3.17139V9.28271H1.49829V0.751465H2.82296L6.27976 6.87451V0.751465H7.59387Z" fill="#fff"></path><path d="M11.5626 9.3999C11.1404 9.3999 10.7586 9.32373 10.4174 9.17139C10.0796 9.01514 9.79109 8.79834 9.55185 8.521C9.31611 8.24365 9.13492 7.91748 9.00826 7.54248C8.8816 7.16748 8.81826 6.76318 8.81826 6.32959V6.09521C8.81826 5.59912 8.88336 5.1499 9.01353 4.74756C9.14371 4.34521 9.32491 4.00146 9.55712 3.71631C9.78934 3.42725 10.0638 3.20654 10.3804 3.0542C10.6971 2.90186 11.0401 2.82568 11.4095 2.82568C11.8177 2.82568 12.1748 2.90186 12.4809 3.0542C12.787 3.20654 13.0403 3.42139 13.2409 3.69873C13.4449 3.97217 13.5962 4.29834 13.6947 4.67725C13.7968 5.05615 13.8478 5.47412 13.8478 5.93115V6.53467H9.43574V5.521H12.5917V5.40967C12.5847 5.15576 12.5389 4.91748 12.4545 4.69482C12.3736 4.47217 12.2487 4.29248 12.0798 4.15576C11.9109 4.01904 11.6857 3.95068 11.4043 3.95068C11.1932 3.95068 11.0049 4.00146 10.8396 4.10303C10.6777 4.20068 10.5423 4.34326 10.4332 4.53076C10.3241 4.71826 10.2397 4.94482 10.1799 5.21045C10.1236 5.47217 10.0954 5.76709 10.0954 6.09521V6.32959C10.0954 6.60693 10.1289 6.86475 10.1957 7.10303C10.2661 7.3374 10.3681 7.54248 10.5018 7.71826C10.6355 7.89404 10.7973 8.03271 10.9873 8.13428C11.1773 8.23193 11.3937 8.28076 11.6365 8.28076C11.9426 8.28076 12.2153 8.2124 12.4545 8.07568C12.6938 7.93896 12.9013 7.74561 13.0773 7.49561L13.7475 8.21631C13.6244 8.41553 13.4643 8.60693 13.2672 8.79053C13.0702 8.97021 12.8292 9.1167 12.5442 9.22998C12.2628 9.34326 11.9355 9.3999 11.5626 9.3999Z" fill="#fff"></path><path d="M17.4576 2.94287V3.97412H14.2383V2.94287H17.4576ZM15.1672 1.39014H16.4391V7.53076C16.4391 7.72607 16.4637 7.87646 16.5129 7.98193C16.5657 8.0835 16.6378 8.15186 16.7293 8.18701C16.8208 8.22217 16.9281 8.23975 17.0513 8.23975C17.1392 8.23975 17.2237 8.23389 17.3046 8.22217C17.3855 8.21045 17.4506 8.19873 17.4998 8.18701L17.5051 9.26514C17.3996 9.30029 17.2764 9.33154 17.1357 9.35889C16.9985 9.38623 16.8402 9.3999 16.6607 9.3999C16.3687 9.3999 16.1101 9.34326 15.8849 9.22998C15.6597 9.11279 15.4838 8.92334 15.3572 8.66162C15.2305 8.3999 15.1672 8.05225 15.1672 7.61865V1.39014Z" fill="#fff"></path><path d="M24.139 5.42725H22.181L22.1705 4.35498H23.8804C24.1689 4.35498 24.4135 4.30811 24.614 4.21436C24.8181 4.1167 24.9729 3.97803 25.0784 3.79834C25.184 3.61475 25.2367 3.39404 25.2367 3.13623C25.2367 2.85107 25.1875 2.61865 25.089 2.43896C24.9905 2.25928 24.8392 2.12842 24.6351 2.04639C24.4346 1.96436 24.1777 1.92334 23.8646 1.92334H22.5821V9.28271H21.2575V0.751465H23.8646C24.2868 0.751465 24.6633 0.796387 24.994 0.88623C25.3282 0.976074 25.6115 1.1167 25.8437 1.30811C26.0794 1.49561 26.2571 1.73389 26.3767 2.02295C26.4998 2.31201 26.5614 2.65576 26.5614 3.0542C26.5614 3.40576 26.4858 3.72803 26.3345 4.021C26.1832 4.31006 25.9598 4.54639 25.6642 4.72998C25.3687 4.91357 25.001 5.02295 24.5612 5.05811L24.139 5.42725ZM24.081 9.28271H21.7641L22.3605 8.1167H24.081C24.38 8.1167 24.6298 8.06201 24.8304 7.95264C25.0309 7.83936 25.1805 7.68506 25.279 7.48975C25.381 7.29053 25.432 7.05811 25.432 6.79248C25.432 6.51514 25.388 6.2749 25.3001 6.07178C25.2121 5.86475 25.0731 5.70654 24.8832 5.59717C24.6932 5.48389 24.4451 5.42725 24.139 5.42725H22.6507L22.6613 4.35498H24.5982L24.899 4.75928C25.3212 4.7749 25.6678 4.87842 25.9387 5.06982C26.2131 5.26123 26.4172 5.50928 26.5509 5.81396C26.6846 6.11865 26.7514 6.44678 26.7514 6.79834C26.7514 7.34131 26.6441 7.79639 26.4295 8.16357C26.2184 8.53076 25.914 8.81006 25.5165 9.00146C25.1189 9.18896 24.6404 9.28271 24.081 9.28271Z" fill="#fff"></path><path d="M31.1793 8.01123V4.98779C31.1793 4.76123 31.1423 4.56592 31.0685 4.40186C30.9946 4.23779 30.882 4.11084 30.7307 4.021C30.5829 3.93115 30.3964 3.88623 30.1713 3.88623C29.9637 3.88623 29.7842 3.92529 29.633 4.00342C29.4817 4.08154 29.3638 4.18701 29.2794 4.31982C29.1949 4.45264 29.1527 4.60303 29.1527 4.771H27.8861C27.8861 4.521 27.9406 4.27881 28.0497 4.04443C28.1588 3.81006 28.3171 3.60107 28.5247 3.41748C28.7323 3.23389 28.9803 3.08936 29.2688 2.98389C29.5573 2.87842 29.881 2.82568 30.2399 2.82568C30.6691 2.82568 31.0491 2.90576 31.3798 3.06592C31.7141 3.22607 31.9762 3.46826 32.1662 3.79248C32.3597 4.11279 32.4565 4.51514 32.4565 4.99951V7.81787C32.4565 8.10693 32.474 8.3667 32.5092 8.59717C32.5479 8.82373 32.6025 9.021 32.6728 9.18896V9.28271H31.3693C31.3095 9.13037 31.262 8.93701 31.2268 8.70264C31.1951 8.46436 31.1793 8.23389 31.1793 8.01123ZM31.364 5.42725L31.3746 6.30029H30.4615C30.2258 6.30029 30.0182 6.32568 29.8388 6.37646C29.6593 6.42334 29.5098 6.49365 29.3902 6.5874C29.2706 6.68115 29.1808 6.79443 29.121 6.92725C29.0612 7.06006 29.0313 7.21045 29.0313 7.37842C29.0313 7.54639 29.0665 7.70068 29.1369 7.84131C29.2072 7.97803 29.3093 8.08545 29.443 8.16357C29.5802 8.2417 29.7455 8.28076 29.9391 8.28076C30.1994 8.28076 30.4263 8.22217 30.6199 8.10498C30.8169 7.98389 30.9717 7.8374 31.0843 7.66553C31.1969 7.48975 31.2567 7.32373 31.2637 7.16748L31.6754 7.79443C31.6332 7.95459 31.561 8.12646 31.459 8.31006C31.357 8.49365 31.2233 8.66943 31.0579 8.8374C30.8961 9.00146 30.7008 9.13623 30.4721 9.2417C30.2469 9.34717 29.9866 9.3999 29.691 9.3999C29.3181 9.3999 28.9856 9.31787 28.6936 9.15381C28.4015 8.98584 28.1728 8.76123 28.0075 8.47998C27.8421 8.19482 27.7594 7.87256 27.7594 7.51318C27.7594 7.17725 27.8157 6.88037 27.9283 6.62256C28.0444 6.36084 28.2133 6.14209 28.435 5.96631C28.6601 5.79053 28.9346 5.65771 29.2583 5.56787C29.5819 5.47412 29.9514 5.42725 30.3665 5.42725H31.364Z" fill="#fff"></path><path d="M35.0477 4.29639V9.28271H33.7758V2.94287H34.9738L35.0477 4.29639ZM34.8208 5.87842L34.4091 5.87256C34.4127 5.42334 34.469 5.01123 34.578 4.63623C34.6906 4.26123 34.8454 3.93896 35.0425 3.66943C35.243 3.3999 35.4823 3.19287 35.7602 3.04834C36.0382 2.8999 36.3478 2.82568 36.6891 2.82568C36.9635 2.82568 37.2115 2.86865 37.4332 2.95459C37.6584 3.03662 37.8501 3.17139 38.0084 3.35889C38.1703 3.54639 38.2934 3.79053 38.3779 4.09131C38.4623 4.38818 38.5045 4.75342 38.5045 5.18701V9.28271H37.2274V5.18115C37.2274 4.87646 37.1869 4.63623 37.106 4.46045C37.0286 4.28076 36.9142 4.15381 36.7629 4.07959C36.6152 4.00146 36.4305 3.9624 36.2088 3.9624C35.9907 3.9624 35.7954 4.01318 35.623 4.11475C35.4506 4.21631 35.3046 4.35498 35.1849 4.53076C35.0688 4.70654 34.9791 4.90967 34.9158 5.14014C34.8525 5.37061 34.8208 5.6167 34.8208 5.87842Z" fill="#fff"></path><path d="M41.0853 0.282715V9.28271H39.8081V0.282715H41.0853ZM44.6318 2.94287L42.146 6.00146L40.7844 7.54834L40.452 6.35303L41.4811 4.94092L43.096 2.94287H44.6318ZM43.3704 9.28271L41.518 6.30615L42.3202 5.31592L44.8429 9.28271H43.3704Z" fill="#fff"></path><path d="M46.8009 2.94287V9.28271H45.5237V2.94287H46.8009ZM45.4392 1.27881C45.4392 1.06396 45.5026 0.88623 45.6292 0.745605C45.7594 0.601074 45.9389 0.528809 46.1675 0.528809C46.3927 0.528809 46.5704 0.601074 46.7006 0.745605C46.8308 0.88623 46.8959 1.06396 46.8959 1.27881C46.8959 1.48975 46.8308 1.66553 46.7006 1.80615C46.5704 1.94678 46.3927 2.01709 46.1675 2.01709C45.9389 2.01709 45.7594 1.94678 45.6292 1.80615C45.5026 1.66553 45.4392 1.48975 45.4392 1.27881Z" fill="#fff"></path><path d="M49.4555 4.29639V9.28271H48.1836V2.94287H49.3816L49.4555 4.29639ZM49.2285 5.87842L48.8169 5.87256C48.8204 5.42334 48.8767 5.01123 48.9858 4.63623C49.0984 4.26123 49.2532 3.93896 49.4502 3.66943C49.6507 3.3999 49.89 3.19287 50.1679 3.04834C50.4459 2.8999 50.7555 2.82568 51.0968 2.82568C51.3712 2.82568 51.6193 2.86865 51.8409 2.95459C52.0661 3.03662 52.2579 3.17139 52.4162 3.35889C52.578 3.54639 52.7012 3.79053 52.7856 4.09131C52.87 4.38818 52.9123 4.75342 52.9123 5.18701V9.28271H51.6351V5.18115C51.6351 4.87646 51.5946 4.63623 51.5137 4.46045C51.4363 4.28076 51.322 4.15381 51.1707 4.07959C51.0229 4.00146 50.8382 3.9624 50.6165 3.9624C50.3984 3.9624 50.2031 4.01318 50.0307 4.11475C49.8583 4.21631 49.7123 4.35498 49.5927 4.53076C49.4766 4.70654 49.3869 4.90967 49.3235 5.14014C49.2602 5.37061 49.2285 5.6167 49.2285 5.87842Z" fill="#fff"></path><path d="M57.8679 2.94287H59.0237V9.10693C59.0237 9.67725 58.9146 10.1616 58.6965 10.5601C58.4783 10.9585 58.174 11.2612 57.7835 11.4683C57.3929 11.6792 56.9408 11.7847 56.4271 11.7847C56.209 11.7847 55.9662 11.7495 55.6988 11.6792C55.4349 11.6089 55.1781 11.4956 54.9283 11.3394C54.682 11.187 54.4762 10.9858 54.3108 10.7358L54.9072 9.90381C55.1113 10.1733 55.3364 10.3706 55.5827 10.4956C55.829 10.6206 56.0876 10.6831 56.3585 10.6831C56.6505 10.6831 56.8986 10.6226 57.1026 10.5015C57.3102 10.3843 57.4703 10.2104 57.5829 9.97998C57.6955 9.74951 57.7518 9.46826 57.7518 9.13623V4.37842L57.8679 2.94287ZM53.9889 6.18311V6.06006C53.9889 5.57959 54.0417 5.14209 54.1472 4.74756C54.2528 4.34912 54.4041 4.00732 54.6011 3.72217C54.7981 3.43311 55.0374 3.2124 55.3188 3.06006C55.6003 2.90381 55.9187 2.82568 56.2741 2.82568C56.6435 2.82568 56.9584 2.8999 57.2188 3.04834C57.4826 3.19678 57.7025 3.40967 57.8785 3.68701C58.0544 3.96045 58.1916 4.28857 58.2901 4.67139C58.3921 5.05029 58.4678 5.47217 58.517 5.93701V6.32959C58.4713 6.78271 58.3939 7.19678 58.2848 7.57178C58.1758 7.94678 58.0315 8.271 57.8521 8.54443C57.6726 8.81787 57.451 9.02881 57.1871 9.17725C56.9267 9.32568 56.6189 9.3999 56.2635 9.3999C55.9152 9.3999 55.6003 9.31982 55.3188 9.15967C55.0409 8.99951 54.8016 8.7749 54.6011 8.48584C54.4041 8.19678 54.2528 7.85693 54.1472 7.46631C54.0417 7.07178 53.9889 6.64404 53.9889 6.18311ZM55.2608 6.06006V6.18311C55.2608 6.47217 55.2854 6.7417 55.3347 6.9917C55.3874 7.2417 55.4666 7.4624 55.5722 7.65381C55.6812 7.84131 55.8184 7.98975 55.9838 8.09912C56.1527 8.20459 56.3515 8.25732 56.5802 8.25732C56.8792 8.25732 57.1238 8.18701 57.3138 8.04639C57.5073 7.90576 57.655 7.71631 57.7571 7.47803C57.8626 7.23584 57.9365 6.96631 57.9787 6.66943V5.60889C57.9576 5.37842 57.9136 5.16357 57.8468 4.96436C57.7835 4.76514 57.6973 4.59131 57.5882 4.44287C57.4791 4.29053 57.3419 4.17334 57.1765 4.09131C57.0112 4.00537 56.8159 3.9624 56.5907 3.9624C56.362 3.9624 56.1632 4.01709 55.9944 4.12646C55.8255 4.23584 55.6865 4.38623 55.5774 4.57764C55.4719 4.76904 55.3927 4.9917 55.3399 5.24561C55.2872 5.49951 55.2608 5.771 55.2608 6.06006Z" fill="#fff"></path></g><path id="Vector 16" d="M59.2053 12.333H0.994385" stroke="#fff" stroke-width="0.5"></path><path id="Vector 17" d="M59.2251 13.5615H0.974854" stroke="#fff" stroke-width="0.5"></path><path id="Vector 18" d="M59.2251 14.8086H0.974854" stroke="#fff" stroke-width="0.5"></path></g></svg>