<svg width="65" height="33" viewBox="0 0 65 33" fill="none" xmlns="http://www.w3.org/2000/svg"><g id="Paytm"><g id="g52"><path id="path54" d="M56.2214 13.5882C55.7874 12.3433 54.6049 11.4494 53.2159 11.4494H53.1868C52.2839 11.4494 51.4701 11.8265 50.8908 12.4318C50.3106 11.8265 49.4968 11.4494 48.5949 11.4494H48.5658C47.7721 11.4494 47.0465 11.741 46.4893 12.2237V11.9783C46.4703 11.734 46.2698 11.5419 46.0223 11.5419H43.8917C43.6311 11.5419 43.4207 11.7531 43.4207 12.0155V23.6243C43.4207 23.8867 43.6311 24.0979 43.8917 24.0979H46.0223C46.2598 24.0979 46.4552 23.9199 46.4863 23.6897L46.4853 15.3559C46.4853 15.3267 46.4863 15.2996 46.4893 15.2724C46.5234 14.9004 46.795 14.5947 47.2239 14.5565H47.3031H47.5265H47.6167C47.7961 14.5726 47.9475 14.6359 48.0667 14.7314C48.2521 14.8792 48.3553 15.1065 48.3553 15.3559L48.3634 23.6484C48.3634 23.9109 48.5748 24.123 48.8344 24.123H50.965C51.2165 24.123 51.421 23.9219 51.433 23.6716L51.432 15.3448C51.431 15.0713 51.5573 14.8239 51.7788 14.6771C51.888 14.6067 52.0193 14.5595 52.1706 14.5454H52.2498H52.4733H52.5635C53.0245 14.5856 53.3031 14.9366 53.3021 15.3448L53.3101 23.6263C53.3101 23.8888 53.5215 24.0999 53.7811 24.0999H55.9117C56.1713 24.0999 56.3827 23.8888 56.3827 23.6263V14.7194C56.3827 14.112 56.3146 13.8536 56.2214 13.5882Z" fill="#54C1F0"></path></g><g id="g56"><path id="path58" d="M41.7973 11.5722H40.5787V9.59128C40.5787 9.58927 40.5787 9.58726 40.5787 9.58525C40.5787 9.34694 40.3862 9.15388 40.1487 9.15388C40.1207 9.15388 40.0936 9.1579 40.0676 9.16293C38.7166 9.53498 38.9872 11.4123 36.5209 11.5722H36.4657H36.2813C36.2453 11.5722 36.2112 11.5772 36.1781 11.5842C35.9677 11.6315 35.8093 11.8195 35.8093 12.0448V14.1825C35.8093 14.4429 36.0208 14.6551 36.2813 14.6551H37.5671L37.5651 23.7199C37.5651 23.9784 37.7736 24.1875 38.0311 24.1875H40.1377C40.3943 24.1875 40.6027 23.9784 40.6027 23.7199L40.6037 14.6551H41.7973C42.0569 14.6551 42.2683 14.4429 42.2683 14.1825V12.0448C42.2683 11.7843 42.0569 11.5722 41.7973 11.5722Z" fill="#54C1F0"></path></g><g id="g60"><path id="path62" d="M34.1317 11.5721H32.0011C31.7416 11.5721 31.5311 11.7843 31.5311 12.0447V16.465C31.5261 16.7385 31.3056 16.9577 31.032 16.9577H30.1401C29.8635 16.9577 29.64 16.7345 29.64 16.457L29.632 12.0447C29.632 11.7843 29.4205 11.5721 29.161 11.5721H27.0303C26.7698 11.5721 26.5593 11.7843 26.5593 12.0447V16.8893C26.5593 18.7295 27.8672 20.0417 29.7021 20.0417C29.7021 20.0417 31.0791 20.0417 31.1212 20.0497C31.3697 20.0779 31.5632 20.287 31.5632 20.5444C31.5632 20.7988 31.3738 21.007 31.1282 21.0381C31.1162 21.0402 31.1052 21.0432 31.0921 21.0452L27.9764 21.0562C27.7158 21.0562 27.5054 21.2684 27.5054 21.5288V23.6656C27.5054 23.927 27.7158 24.1382 27.9764 24.1382H31.4599C33.2959 24.1382 34.6028 22.827 34.6028 20.9859V12.0447C34.6028 11.7843 34.3923 11.5721 34.1317 11.5721Z" fill="#fff"></path></g><g id="g64"><path id="path66" d="M13.5088 15.4891V16.4865V16.8083C13.5088 17.0848 13.2853 17.3101 13.0098 17.3101L11.6578 17.3111V14.6675H13.0098C13.2853 14.6675 13.5088 14.8908 13.5088 15.1683V15.4891ZM13.6962 11.5715H9.03915C8.7836 11.5715 8.57715 11.7797 8.57715 12.0351V14.1296C8.57715 14.1336 8.57815 14.1376 8.57815 14.1416C8.57815 14.1517 8.57715 14.1618 8.57715 14.1708V20.8887V23.6509C8.57715 23.9083 8.76957 24.1185 9.00808 24.1245H9.04817H11.1788C11.4383 24.1245 11.6498 23.9134 11.6498 23.6519L11.6578 20.4031H13.6962C15.4019 20.4031 16.5905 19.2155 16.5905 17.4971V14.4815C16.5905 12.7631 15.4019 11.5715 13.6962 11.5715Z" fill="#fff"></path></g><g id="g68"><path id="path70" d="M22.3489 20.508V20.8418C22.3489 20.8689 22.3449 20.8951 22.3409 20.9202C22.3359 20.9444 22.3289 20.9675 22.3209 20.9896C22.2547 21.1766 22.0683 21.3124 21.8469 21.3124H20.9599C20.6833 21.3124 20.4578 21.1012 20.4578 20.8418V20.4386C20.4578 20.4336 20.4568 20.4285 20.4568 20.4235L20.4578 19.3506V19.3486V19.2299V19.0148L20.4588 19.0117C20.4598 18.7533 20.6833 18.5442 20.9599 18.5442H21.8469C22.1245 18.5442 22.3489 18.7543 22.3489 19.0148V20.508ZM22.0102 11.5839H19.0538C18.7922 11.5839 18.5808 11.783 18.5808 12.0274V12.8589C18.5808 12.864 18.5818 12.87 18.5818 12.875C18.5818 12.881 18.5808 12.8871 18.5808 12.8931V14.0324C18.5808 14.2908 18.8053 14.502 19.0819 14.502H21.897C22.1194 14.5371 22.2958 14.7 22.3209 14.9544V15.23C22.2958 15.4723 22.1214 15.6493 21.909 15.6694H20.515C18.6609 15.6694 17.3401 16.9052 17.3401 18.6407V21.063V21.1264C17.3401 22.8518 18.4755 24.0796 20.3165 24.0796H24.1799C24.8734 24.0796 25.4356 23.5527 25.4356 22.9041V14.7926C25.4356 12.8257 24.4254 11.5839 22.0102 11.5839Z" fill="#fff"></path></g></g></svg>