<svg width="36" height="24" viewBox="0 0 36 24" fill="none" xmlns="http://www.w3.org/2000/svg">
<path fill-rule="evenodd" clip-rule="evenodd" d="M2.09839 7.27002H36V14.6388C36 15.7976 35.0604 16.7372 33.9016 16.7372H0V9.36841C0 8.20961 0.939586 7.27002 2.09839 7.27002ZM12.6 10.0361L12.8404 9.13926C12.8925 8.94498 13.0683 8.80969 13.2695 8.80969H17.8464L17.5179 10.0361H15.8695C15.8424 10.0361 15.8201 10.0584 15.8201 10.0855V14.7531C15.8201 14.9985 15.6212 15.1974 15.3758 15.1974H14.5144V10.0855C14.5144 10.0584 14.4922 10.0361 14.4651 10.0361H12.6ZM3.26732 8.85511L6.02608 13.1242C6.04559 13.1242 6.06139 13.1084 6.06139 13.0889V8.80994H7.36708V14.7531C7.36708 14.9985 7.1681 15.1974 6.92271 15.1974H5.95647C5.92265 15.1974 5.89154 15.1804 5.87327 15.152L3.1145 10.8567C3.08537 10.8567 3.06168 10.8804 3.06168 10.9096V15.1974H1.75598V9.2543C1.75598 9.00891 1.95496 8.80994 2.20035 8.80994H3.18437C3.21794 8.80994 3.24905 8.82697 3.26732 8.85511ZM29.6836 8.80994H34.486L34.1571 10.0364H32.5088C32.4816 10.0364 32.4594 10.0586 32.4594 10.0858V14.7533C32.4594 14.9987 32.2604 15.1977 32.0151 15.1977H31.1537V10.0858C31.1537 10.0586 31.1315 10.0364 31.1044 10.0364H29.2393V9.2543C29.2393 9.00891 29.4382 8.80994 29.6836 8.80994ZM27.2067 13.1242L24.448 8.85511C24.4297 8.82697 24.3986 8.80994 24.365 8.80994H23.381C23.1356 8.80994 22.9366 9.00891 22.9366 9.2543V15.1974H24.2423V10.9096C24.2423 10.8804 24.266 10.8567 24.2952 10.8567L27.0539 15.152C27.0722 15.1804 27.1033 15.1974 27.1371 15.1974H28.1034C28.3488 15.1974 28.5477 14.9985 28.5477 14.7531V8.80994H27.2421V13.0889C27.2421 13.1084 27.2262 13.1242 27.2067 13.1242ZM9.45065 12.4801H11.2839L11.5841 11.3596H9.45065C9.4235 11.3596 9.40128 11.3374 9.40128 11.3102V10.0855C9.40128 10.0584 9.4235 10.0361 9.45065 10.0361H11.887L12.2156 8.80969H8.5397C8.29431 8.80969 8.09534 9.00867 8.09534 9.25406V15.1972H11.6164C11.8176 15.1972 11.9937 15.0622 12.0457 14.8679L12.2862 13.971H9.45065C9.4235 13.971 9.40128 13.9488 9.40128 13.9216V12.5293C9.40128 12.5021 9.4235 12.4801 9.45065 12.4801ZM21.348 12.4801H19.5147C19.4876 12.4801 19.4656 12.5021 19.4656 12.5293V13.9216C19.4656 13.9488 19.4878 13.971 19.515 13.971H22.3505L22.1101 14.8679C22.058 15.0622 21.882 15.1972 21.6808 15.1972H18.1597V12.2133C18.1597 12.1271 18.171 12.0412 18.1932 11.9578L18.9484 9.13902C19.0005 8.94473 19.1765 8.80969 19.3777 8.80969H22.2797L21.9511 10.0361H19.5147C19.4876 10.0361 19.4654 10.0584 19.4654 10.0855V11.3102C19.4654 11.3374 19.4876 11.3596 19.5147 11.3596H21.6482L21.348 12.4801Z" fill="white"/>
</svg>
