<svg width="36" height="24" viewBox="0 0 36 24" fill="none" xmlns="http://www.w3.org/2000/svg">
<path d="M18.0002 11.9447C19.9179 11.9447 21.4725 10.3901 21.4725 8.47236C21.4725 8.24915 21.4515 8.03086 21.4112 7.81937C21.4112 7.81937 20.6279 7.53488 20.1051 7.44294C19.5868 7.3518 18.7607 7.35076 18.7607 7.35076V6.93592C18.7607 6.93592 19.5597 6.93592 20.1358 7.04347C20.712 7.15102 21.2874 7.35076 21.2874 7.35076C20.821 5.98341 19.5254 5 18.0002 5C17.1341 5 16.3421 5.31706 15.7339 5.84143C15.7339 5.84143 15.8899 6.68015 16.0796 7.18943C16.2581 7.66847 16.6558 8.36481 16.6558 8.36481L16.3101 8.60296C16.3101 8.60296 15.9144 7.91546 15.7339 7.44294C15.552 6.96676 15.3882 6.18428 15.3882 6.18428C14.8525 6.7953 14.5278 7.59591 14.5278 8.47236C14.5278 9.99189 15.5039 11.2835 16.8632 11.7543C16.8632 11.7543 17.5011 11.2087 17.8465 10.8001C18.1834 10.4016 18.6071 9.70151 18.6071 9.70151L18.9605 9.89357C18.9605 9.89357 18.5559 10.5883 18.2307 10.9844C17.9172 11.3662 17.3395 11.8819 17.3395 11.8819C17.5534 11.9231 17.7743 11.9447 18.0002 11.9447Z" fill="white"/>
<path d="M0 16.4885C0 17.7883 0.00614577 18.5274 0.0153644 18.5335C0.0230466 18.5381 0.156717 18.5473 0.311898 18.5519C0.625332 18.5627 0.680644 18.5535 0.743638 18.4797L0.780512 18.4352L0.931084 18.4905L1.08319 18.5458H1.91287C2.6688 18.5458 2.74869 18.5427 2.80708 18.5181C2.88697 18.4859 2.95765 18.4075 2.97916 18.3307C2.98992 18.2923 2.99606 17.8559 2.99606 17.0493C2.99606 15.688 2.9976 15.7126 2.89773 15.625C2.80708 15.5451 2.75791 15.542 1.90519 15.5482C1.12928 15.5543 1.12928 15.5543 0.944912 15.5958C0.843506 15.6189 0.759002 15.6373 0.757466 15.6373C0.754393 15.6373 0.752856 15.3715 0.752856 15.0458V14.4542H0.376428H0V16.4885ZM2.22784 17.0355V17.7883H1.49803H0.768221V17.1768C0.768221 16.825 0.774367 16.5438 0.783585 16.5146C0.800486 16.4547 0.858871 16.3871 0.937229 16.3395C1.00791 16.2949 1.11853 16.2872 1.73311 16.2857L2.22784 16.2826V17.0355Z" fill="white"/>
<path d="M7.60083 14.465C7.59468 14.4696 7.59007 14.7109 7.59007 14.9997V15.5252L7.54244 15.5359C7.51632 15.5405 7.45025 15.5451 7.39802 15.5451C7.23976 15.5451 7.25205 15.5144 7.25205 15.9231V16.2826H7.31044C7.34424 16.2826 7.4226 16.2872 7.48713 16.2919L7.60543 16.3026V17.2813C7.60543 18.3645 7.60543 18.3691 7.70069 18.4598C7.72835 18.4859 7.77598 18.5135 7.80517 18.5228C7.88814 18.5474 8.24306 18.5581 8.58415 18.5474L8.89605 18.5366V18.1694V17.8037H8.64253H8.38902V17.0432V16.2826H8.64253H8.89605V15.9139V15.5451H8.63485H8.37366V14.9997V14.4543H7.99262C7.78213 14.4543 7.60543 14.4589 7.60083 14.465Z" fill="white"/>
<path d="M16.9963 16.3809L17.0009 18.3076L17.047 18.3736C17.0731 18.4105 17.1238 18.4612 17.1607 18.4873L17.2268 18.5334L17.617 18.538L18.0073 18.5442V18.1739V17.8036H17.9351C17.8936 17.8036 17.8352 17.799 17.8045 17.7944L17.7461 17.7837V16.1197V14.4542H17.3697H16.9917L16.9963 16.3809Z" fill="white"/>
<path d="M22.3551 14.9904V15.5251L22.3075 15.5359C22.2814 15.5405 22.2199 15.5451 22.1723 15.5451C22.1246 15.5451 22.0709 15.5497 22.0524 15.5543L22.0171 15.5635V15.9215V16.278L22.1861 16.2903L22.3536 16.301L22.3582 17.3013C22.3628 18.2385 22.3643 18.3076 22.392 18.3691C22.4258 18.4474 22.4903 18.5043 22.5671 18.5243C22.6317 18.5412 23.0081 18.5504 23.3891 18.5442L23.6457 18.5412V18.1724V17.8037H23.3922H23.1387V17.0431V16.2826H23.3922H23.6457V15.9138V15.5451H23.3922H23.1387V14.9997V14.4542H22.7469H22.3551V14.9904Z" fill="white"/>
<path d="M24.2758 14.7708V15.0873L24.3203 15.1318L24.3649 15.1764H24.6967H25.0286V14.8153V14.4543H24.6522H24.2758V14.7708Z" fill="white"/>
<path d="M29.7178 15.5405L29.515 15.5466L29.5181 17.04L29.5227 18.5335L29.8945 18.5381L30.2663 18.5411L30.2709 17.524L30.2756 16.5054L30.314 16.4377C30.3954 16.2949 30.4476 16.2841 31.0791 16.2826H31.5124V17.4042V18.5258H31.8888H32.2652V17.1799C32.2652 16.2119 32.2606 15.8155 32.2468 15.7648C32.2222 15.6634 32.1377 15.5835 32.0317 15.5604C31.9733 15.5481 31.7659 15.5435 31.305 15.5497C30.6781 15.5558 30.6551 15.5574 30.483 15.5958L30.3063 15.6357L30.2141 15.5912C30.1081 15.5389 30.0328 15.5312 29.7178 15.5405Z" fill="white"/>
<path d="M3.95947 15.562C3.81812 15.5958 3.76127 15.6588 3.73361 15.8216C3.72132 15.8908 3.71825 16.281 3.72132 17.1122C3.72593 18.22 3.72747 18.3076 3.75359 18.3644C3.79354 18.4536 3.83656 18.492 3.92413 18.5181C3.98866 18.5381 4.20377 18.5411 5.35763 18.5411H6.71431V18.1724V17.8036H5.60807H4.50184V17.6193V17.4349H5.48209C6.11664 17.4349 6.48077 17.4288 6.51918 17.418C6.55145 17.4103 6.60061 17.3811 6.62981 17.3565C6.72507 17.272 6.72968 17.2367 6.72968 16.49C6.72968 15.7648 6.72507 15.7202 6.6421 15.6342C6.55606 15.5451 6.56374 15.5451 5.23318 15.5466C4.56483 15.5481 3.99174 15.5543 3.95947 15.562ZM5.96145 16.49V16.682H5.23165H4.50184V16.49V16.2979H5.23165H5.96145V16.49Z" fill="white"/>
<path d="M9.69957 15.5697C9.62275 15.5973 9.549 15.6757 9.52749 15.7556C9.50445 15.8339 9.50445 17.1445 9.52596 17.2229C9.54747 17.2997 9.61046 17.3719 9.68728 17.4057C9.74413 17.4318 9.81173 17.4349 10.7444 17.4349H11.7384V17.6116V17.7883H11.0178H10.2972L10.2696 17.7115L10.2419 17.6346H9.87626H9.51059V17.9711V18.3076L9.55361 18.3875C9.5828 18.4459 9.612 18.4782 9.65655 18.5012C9.71801 18.5335 9.73337 18.5335 10.9856 18.5381C11.8567 18.5411 12.2716 18.5381 12.31 18.5258C12.3914 18.5027 12.4544 18.4444 12.4867 18.3598C12.5113 18.2938 12.5143 18.2293 12.5143 17.6116V16.9356L12.4759 16.8587C12.4483 16.8019 12.4191 16.7712 12.3684 16.7435L12.2992 16.7051L11.2975 16.7005L10.2942 16.6959V16.4885V16.2795L10.8596 16.2841C11.1699 16.2857 11.4696 16.2826 11.5249 16.2764C11.6785 16.258 11.7354 16.2903 11.7845 16.4239L11.7999 16.467H12.1625H12.5251L12.5189 16.1243C12.5143 15.8201 12.5097 15.7756 12.4805 15.7126C12.4452 15.6327 12.3899 15.5866 12.2992 15.562C12.2562 15.5497 11.8613 15.5451 11.0009 15.5466C9.94694 15.5466 9.75489 15.5512 9.69957 15.5697Z" fill="white"/>
<path d="M13.4824 15.5589C13.4117 15.5774 13.3426 15.6173 13.3072 15.6603C13.2442 15.7418 13.2427 15.8032 13.2473 17.0969L13.2519 18.3337L13.2934 18.4044C13.3748 18.5412 13.278 18.5335 14.7162 18.5381C15.5597 18.5396 16.0022 18.5365 16.0406 18.5258C16.1251 18.5027 16.1865 18.4444 16.2203 18.3599C16.2464 18.2923 16.248 18.2108 16.248 17.0585C16.248 15.7249 16.248 15.7279 16.1635 15.6373C16.0774 15.5451 16.082 15.5451 14.7438 15.5466C14.0755 15.5482 13.5085 15.5528 13.4824 15.5589ZM15.4874 17.0431V17.7883H14.7576H14.0278V17.0431V16.2979H14.7576H15.4874V17.0431Z" fill="white"/>
<path d="M25.9828 15.5682C25.8936 15.5959 25.8199 15.6696 25.7953 15.7572C25.7784 15.8156 25.7738 16.0706 25.7738 17.0585C25.7738 18.3784 25.7723 18.3538 25.8522 18.449C25.9321 18.5443 25.9075 18.5428 27.3041 18.5381L28.5701 18.5335L28.6331 18.4967C28.67 18.4767 28.713 18.4337 28.733 18.3968L28.7699 18.3338L28.7745 17.097C28.7775 16.2074 28.7745 15.8371 28.7622 15.7787C28.7376 15.6696 28.6746 15.5989 28.5732 15.5682C28.4626 15.5359 26.0888 15.5359 25.9828 15.5682ZM28.0093 17.0509V17.7884H27.2795H26.5497V17.0509V16.3134H27.2795H28.0093V17.0509Z" fill="white"/>
<path d="M33.201 15.5696C33.118 15.5942 33.0428 15.6649 33.0151 15.7433C32.9997 15.7847 32.9951 15.9691 32.9951 16.49C32.9951 17.1245 32.9982 17.1875 33.0228 17.2551C33.0535 17.3335 33.1134 17.3888 33.201 17.418C33.2379 17.4303 33.5436 17.4349 34.2412 17.4349H35.2307V17.6177V17.8006L34.5439 17.8067C33.7787 17.8144 33.8064 17.8175 33.7526 17.7099C33.7065 17.6162 33.7219 17.6193 33.3393 17.6193H32.9844L32.9905 17.9603C32.9951 18.2676 32.9997 18.3107 33.0274 18.3721C33.0658 18.4551 33.1042 18.4904 33.1826 18.5196C33.2625 18.5473 35.7346 18.5488 35.8068 18.5211C35.879 18.4935 35.9159 18.4612 35.9559 18.3952L35.9912 18.3337L35.9958 17.673C36.0019 16.9448 35.9958 16.8848 35.919 16.7957C35.8329 16.6974 35.8299 16.6974 34.7436 16.6974H33.771V16.4977V16.2979H34.4901L35.2076 16.2995L35.2383 16.3486C35.2906 16.4316 35.3966 16.4731 35.5764 16.4808C35.71 16.4854 35.9174 16.4639 35.9789 16.4408C36.0081 16.4285 36.0066 15.8539 35.9774 15.7525C35.9482 15.6572 35.8867 15.5958 35.793 15.5681C35.6808 15.5343 33.3086 15.5358 33.201 15.5696Z" fill="white"/>
<path d="M18.7476 16.9387C18.7537 18.4398 18.7491 18.3783 18.8383 18.4598C18.9166 18.532 18.9581 18.5381 19.4206 18.5489C19.9214 18.5596 20.3117 18.5412 20.5237 18.4966L20.6666 18.4644L20.7788 18.5028C20.9002 18.5443 21.0092 18.552 21.3227 18.5443L21.4948 18.5412V17.0509V15.5605H21.1183H20.7419V16.5715V17.5825L20.7081 17.6501C20.6635 17.7346 20.6098 17.7745 20.516 17.7899C20.4761 17.796 20.2333 17.8022 19.9783 17.8022L19.5127 17.8037V16.6821V15.5605H19.1271H18.7415L18.7476 16.9387Z" fill="white"/>
<path d="M24.2758 17.0432V18.5259H24.6445H25.0132V17.0432V15.5605H24.6445H24.2758V17.0432Z" fill="white"/>
</svg>
