<svg width="36" height="24" viewBox="0 0 36 24" fill="none" xmlns="http://www.w3.org/2000/svg">
<path opacity="0.739" fill-rule="evenodd" clip-rule="evenodd" d="M5.64709 5.79004C5.70593 5.79004 5.76473 5.79004 5.82357 5.79004C5.82357 5.84886 5.82357 5.90769 5.82357 5.96651C5.76473 5.96651 5.70593 5.96651 5.64709 5.96651C5.64709 5.90769 5.64709 5.84886 5.64709 5.79004Z" fill="white"/>
<path opacity="0.739" fill-rule="evenodd" clip-rule="evenodd" d="M6.90442 5.79004C6.96325 5.79004 7.02206 5.79004 7.08089 5.79004C7.08089 5.84886 7.08089 5.90769 7.08089 5.96651C7.02206 5.96651 6.96325 5.96651 6.90442 5.96651C6.90442 5.90769 6.90442 5.84886 6.90442 5.79004Z" fill="white"/>
<path opacity="0.721" fill-rule="evenodd" clip-rule="evenodd" d="M4.38965 5.81213C4.44111 5.81213 4.4926 5.81213 4.54406 5.81213C4.54406 5.85625 4.54406 5.90037 4.54406 5.94449C4.4926 5.94449 4.44111 5.94449 4.38965 5.94449C4.38965 5.90037 4.38965 5.85625 4.38965 5.81213Z" fill="white"/>
<path opacity="0.803" fill-rule="evenodd" clip-rule="evenodd" d="M8.18384 5.81213C8.22796 5.81213 8.27207 5.81213 8.31619 5.81213C8.31619 5.85625 8.31619 5.90037 8.31619 5.94449C8.27207 5.94449 8.22796 5.94449 8.18384 5.94449C8.18384 5.90037 8.18384 5.85625 8.18384 5.81213Z" fill="white"/>
<path opacity="0.907" fill-rule="evenodd" clip-rule="evenodd" d="M3.68384 6.38562C3.77942 6.38562 3.87502 6.38562 3.9706 6.38562C3.9706 6.48121 3.9706 6.5768 3.9706 6.67238C3.87502 6.67238 3.77942 6.67238 3.68384 6.67238C3.68384 6.5768 3.68384 6.48121 3.68384 6.38562Z" fill="white"/>
<path opacity="0.907" fill-rule="evenodd" clip-rule="evenodd" d="M4.98535 6.38562C5.08093 6.38562 5.17654 6.38562 5.27212 6.38562C5.27212 6.48121 5.27212 6.5768 5.27212 6.67238C5.17654 6.67238 5.08093 6.67238 4.98535 6.67238C4.98535 6.5768 4.98535 6.48121 4.98535 6.38562Z" fill="white"/>
<path opacity="0.907" fill-rule="evenodd" clip-rule="evenodd" d="M6.24268 6.38562C6.33826 6.38562 6.43386 6.38562 6.52944 6.38562C6.52944 6.48121 6.52944 6.5768 6.52944 6.67238C6.43386 6.67238 6.33826 6.67238 6.24268 6.67238C6.24268 6.5768 6.24268 6.48121 6.24268 6.38562Z" fill="white"/>
<path opacity="0.907" fill-rule="evenodd" clip-rule="evenodd" d="M7.5 6.38562C7.59558 6.38562 7.69118 6.38562 7.78676 6.38562C7.78676 6.48121 7.78676 6.5768 7.78676 6.67238C7.69118 6.67238 7.59558 6.67238 7.5 6.67238C7.5 6.5768 7.5 6.48121 7.5 6.38562Z" fill="white"/>
<path opacity="0.739" fill-rule="evenodd" clip-rule="evenodd" d="M8.80151 6.45178C8.86034 6.45178 8.91915 6.45178 8.97798 6.45178C8.97798 6.51061 8.97798 6.56943 8.97798 6.62825C8.91915 6.62825 8.86034 6.62825 8.80151 6.62825C8.80151 6.56943 8.80151 6.51061 8.80151 6.45178Z" fill="white"/>
<path opacity="0.793" fill-rule="evenodd" clip-rule="evenodd" d="M2.53674 6.47388C2.57352 6.47388 2.61027 6.47388 2.64704 6.47388C2.64704 6.51799 2.64704 6.56211 2.64704 6.60623C2.61027 6.60623 2.57352 6.60623 2.53674 6.60623C2.53674 6.56211 2.53674 6.51799 2.53674 6.47388Z" fill="white"/>
<path opacity="0.913" fill-rule="evenodd" clip-rule="evenodd" d="M5.49268 7.0033C5.65443 7.0033 5.81621 7.0033 5.97797 7.0033C5.97797 7.1283 5.97797 7.2533 5.97797 7.3783C5.81621 7.3783 5.65443 7.3783 5.49268 7.3783C5.49268 7.2533 5.49268 7.1283 5.49268 7.0033Z" fill="white"/>
<path opacity="0.927" fill-rule="evenodd" clip-rule="evenodd" d="M6.72791 7.0033C6.91172 7.0033 7.09556 7.0033 7.27938 7.0033C7.27938 7.1283 7.27938 7.2533 7.27938 7.3783C7.09556 7.3783 6.91172 7.3783 6.72791 7.3783C6.72791 7.2533 6.72791 7.1283 6.72791 7.0033Z" fill="white"/>
<path opacity="0.896" fill-rule="evenodd" clip-rule="evenodd" d="M3.06616 7.02539C3.16911 7.02539 3.27204 7.02539 3.37499 7.02539C3.37499 7.12833 3.37499 7.23127 3.37499 7.33421C3.27204 7.33421 3.16911 7.33421 3.06616 7.33421C3.06616 7.23127 3.06616 7.12833 3.06616 7.02539Z" fill="white"/>
<path opacity="0.939" fill-rule="evenodd" clip-rule="evenodd" d="M4.25732 7.02539C4.39702 7.02539 4.53674 7.02539 4.67644 7.02539C4.67644 7.12833 4.67644 7.23127 4.67644 7.33421C4.53674 7.33421 4.39702 7.33421 4.25732 7.33421C4.25732 7.23127 4.25732 7.12833 4.25732 7.02539Z" fill="white"/>
<path opacity="0.92" fill-rule="evenodd" clip-rule="evenodd" d="M8.07349 7.02539C8.19113 7.02539 8.30879 7.02539 8.42643 7.02539C8.42643 7.12833 8.42643 7.23127 8.42643 7.33421C8.30879 7.33421 8.19113 7.33421 8.07349 7.33421C8.07349 7.23127 8.07349 7.12833 8.07349 7.02539Z" fill="white"/>
<path opacity="0.833" fill-rule="evenodd" clip-rule="evenodd" d="M9.39709 7.06946C9.47062 7.06946 9.54416 7.06946 9.61768 7.06946C9.61768 7.14299 9.61768 7.21652 9.61768 7.29005C9.54416 7.29005 9.47062 7.29005 9.39709 7.29005C9.39709 7.21652 9.39709 7.14299 9.39709 7.06946Z" fill="white"/>
<path opacity="0.627" fill-rule="evenodd" clip-rule="evenodd" d="M1.89709 7.11353C1.94121 7.11353 1.98533 7.11353 2.02945 7.11353C2.02945 7.15764 2.02945 7.20176 2.02945 7.24588C1.98533 7.24588 1.94121 7.24588 1.89709 7.24588C1.89709 7.20176 1.89709 7.15764 1.89709 7.11353Z" fill="white"/>
<path opacity="0.96" fill-rule="evenodd" clip-rule="evenodd" d="M4.76471 7.51062C5.00736 7.51062 5.25001 7.51062 5.49265 7.51062C5.49265 7.7165 5.49265 7.92239 5.49265 8.12827C5.27941 8.12827 5.06619 8.12827 4.85295 8.12827C4.85295 8.37091 4.85295 8.61356 4.85295 8.85621C4.64707 8.85621 4.44118 8.85621 4.2353 8.85621C4.2353 9.01062 4.2353 9.16503 4.2353 9.31944C4 9.31944 3.76472 9.31944 3.52942 9.31944C3.52942 9.15769 3.52942 8.99591 3.52942 8.83415C3.71324 8.83415 3.89707 8.83415 4.08089 8.83415C4.08089 8.58416 4.08089 8.33414 4.08089 8.08415C4.30882 8.08415 4.53678 8.08415 4.76471 8.08415C4.76471 7.89297 4.76471 7.7018 4.76471 7.51062Z" fill="white"/>
<path opacity="0.937" fill-rule="evenodd" clip-rule="evenodd" d="M5.93384 7.51062C6.17648 7.51062 6.41913 7.51062 6.66178 7.51062C6.66178 7.68709 6.66178 7.86356 6.66178 8.04003C6.41913 8.04003 6.17648 8.04003 5.93384 8.04003C5.93384 7.86356 5.93384 7.68709 5.93384 7.51062Z" fill="white"/>
<path opacity="0.971" fill-rule="evenodd" clip-rule="evenodd" d="M7.27935 7.53271C7.50729 7.53271 7.73524 7.53271 7.96318 7.53271C7.96318 7.71654 7.96318 7.90036 7.96318 8.08419C7.7573 8.08419 7.55141 8.08419 7.34553 8.08419C7.34553 8.32683 7.34553 8.56948 7.34553 8.81213C7.11023 8.81213 6.87495 8.81213 6.63965 8.81213C6.63965 8.56948 6.63965 8.32683 6.63965 8.08419C6.85289 8.08419 7.06611 8.08419 7.27935 8.08419C7.27935 7.90036 7.27935 7.71654 7.27935 7.53271Z" fill="white"/>
<path opacity="0.939" fill-rule="evenodd" clip-rule="evenodd" d="M3.61768 7.59888C3.76474 7.59888 3.91179 7.59888 4.05885 7.59888C4.05885 7.74594 4.05885 7.89299 4.05885 8.04005C3.91179 8.04005 3.76474 8.04005 3.61768 8.04005C3.61768 7.89299 3.61768 7.74594 3.61768 7.59888Z" fill="white"/>
<path opacity="0.913" fill-rule="evenodd" clip-rule="evenodd" d="M2.44849 7.66504C2.55143 7.66504 2.65436 7.66504 2.75731 7.66504C2.75731 7.76798 2.75731 7.87092 2.75731 7.97386C2.65436 7.97386 2.55143 7.97386 2.44849 7.97386C2.44849 7.87092 2.44849 7.76798 2.44849 7.66504Z" fill="white"/>
<path opacity="0.913" fill-rule="evenodd" clip-rule="evenodd" d="M8.73535 7.66504C8.8383 7.66504 8.94123 7.66504 9.04418 7.66504C9.04418 7.76798 9.04418 7.87092 9.04418 7.97386C8.94123 7.97386 8.8383 7.97386 8.73535 7.97386C8.73535 7.87092 8.73535 7.76798 8.73535 7.66504Z" fill="white"/>
<path opacity="0.887" fill-rule="evenodd" clip-rule="evenodd" d="M10.0367 7.70911C10.1103 7.70911 10.1838 7.70911 10.2573 7.70911C10.2573 7.78999 10.2573 7.87087 10.2573 7.95175C10.1838 7.95175 10.1103 7.95175 10.0367 7.95175C10.0367 7.87087 10.0367 7.78999 10.0367 7.70911Z" fill="white"/>
<path opacity="0.766" fill-rule="evenodd" clip-rule="evenodd" d="M1.27942 7.77539C1.31618 7.77539 1.35295 7.77539 1.38971 7.77539C1.38971 7.81216 1.38971 7.84892 1.38971 7.88568C1.35295 7.88568 1.31618 7.88568 1.27942 7.88568C1.27942 7.84892 1.27942 7.81216 1.27942 7.77539Z" fill="white"/>
<path opacity="0.935" fill-rule="evenodd" clip-rule="evenodd" d="M7.91907 8.1283C8.13966 8.1283 8.36024 8.1283 8.58083 8.1283C8.58083 8.34888 8.58083 8.56947 8.58083 8.79006C8.36024 8.79006 8.13966 8.79006 7.91907 8.79006C7.91907 8.56947 7.91907 8.34888 7.91907 8.1283Z" fill="white"/>
<path opacity="0.911" fill-rule="evenodd" clip-rule="evenodd" d="M2.95593 8.19446C3.1324 8.19446 3.30887 8.19446 3.48534 8.19446C3.48534 8.37827 3.48534 8.56211 3.48534 8.74593C3.30887 8.74593 3.1324 8.74593 2.95593 8.74593C2.95593 8.56211 2.95593 8.37827 2.95593 8.19446Z" fill="white"/>
<path opacity="0.966" fill-rule="evenodd" clip-rule="evenodd" d="M5.36035 8.19446C5.61034 8.19446 5.86036 8.19446 6.11035 8.19446C6.11035 8.37827 6.11035 8.56211 6.11035 8.74593C5.86036 8.74593 5.61034 8.74593 5.36035 8.74593C5.36035 8.56211 5.36035 8.37827 5.36035 8.19446Z" fill="white"/>
<path opacity="0.852" fill-rule="evenodd" clip-rule="evenodd" d="M1.80884 8.30469C1.91178 8.30469 2.01472 8.30469 2.11766 8.30469C2.11766 8.41498 2.11766 8.52528 2.11766 8.63557C2.01472 8.63557 1.91178 8.63557 1.80884 8.63557C1.80884 8.52528 1.80884 8.41498 1.80884 8.30469Z" fill="white"/>
<path opacity="0.871" fill-rule="evenodd" clip-rule="evenodd" d="M9.28674 8.30469C9.43381 8.30469 9.58085 8.30469 9.72792 8.30469C9.72792 8.41498 9.72792 8.52528 9.72792 8.63557C9.58085 8.63557 9.43381 8.63557 9.28674 8.63557C9.28674 8.52528 9.28674 8.41498 9.28674 8.30469Z" fill="white"/>
<path opacity="0.806" fill-rule="evenodd" clip-rule="evenodd" d="M10.6544 8.34888C10.7353 8.34888 10.8162 8.34888 10.8971 8.34888C10.8971 8.42977 10.8971 8.51063 10.8971 8.59152C10.8162 8.59152 10.7353 8.59152 10.6544 8.59152C10.6544 8.51063 10.6544 8.42977 10.6544 8.34888Z" fill="white"/>
<path opacity="0.704" fill-rule="evenodd" clip-rule="evenodd" d="M0.661743 8.41504C0.691154 8.41504 0.720567 8.41504 0.749978 8.41504C0.749978 8.45181 0.749978 8.48856 0.749978 8.52533C0.720567 8.52533 0.691154 8.52533 0.661743 8.52533C0.661743 8.48856 0.661743 8.45181 0.661743 8.41504Z" fill="white"/>
<path opacity="0.918" fill-rule="evenodd" clip-rule="evenodd" d="M7.27942 8.8562C7.51472 8.8562 7.75 8.8562 7.9853 8.8562C7.9853 9.01796 7.9853 9.17974 7.9853 9.3415C7.75 9.3415 7.51472 9.3415 7.27942 9.3415C7.27942 9.17974 7.27942 9.01796 7.27942 8.8562Z" fill="white"/>
<path opacity="0.94" fill-rule="evenodd" clip-rule="evenodd" d="M8.55884 8.8783C8.77943 8.8783 9.00001 8.8783 9.2206 8.8783C9.2206 9.03271 9.2206 9.18712 9.2206 9.34153C9.00001 9.34153 8.77943 9.34153 8.55884 9.34153C8.55884 9.18712 8.55884 9.03271 8.55884 8.8783Z" fill="white"/>
<path opacity="0.912" fill-rule="evenodd" clip-rule="evenodd" d="M2.31616 8.92236C2.49263 8.92236 2.6691 8.92236 2.84557 8.92236C2.84557 9.04737 2.84557 9.17236 2.84557 9.29736C2.6691 9.29736 2.49263 9.29736 2.31616 9.29736C2.31616 9.17236 2.31616 9.04737 2.31616 8.92236Z" fill="white"/>
<path opacity="0.956" fill-rule="evenodd" clip-rule="evenodd" d="M4.83093 8.92236C5.01475 8.92236 5.19859 8.92236 5.3824 8.92236C5.3824 9.04737 5.3824 9.17236 5.3824 9.29736C5.19859 9.29736 5.01475 9.29736 4.83093 9.29736C4.83093 9.17236 4.83093 9.04737 4.83093 8.92236Z" fill="white"/>
<path opacity="0.911" fill-rule="evenodd" clip-rule="evenodd" d="M6.15442 8.94446C6.30149 8.94446 6.44853 8.94446 6.5956 8.94446C6.5956 9.04741 6.5956 9.15033 6.5956 9.25328C6.44853 9.25328 6.30149 9.25328 6.15442 9.25328C6.15442 9.15033 6.15442 9.04741 6.15442 8.94446Z" fill="white"/>
<path opacity="0.907" fill-rule="evenodd" clip-rule="evenodd" d="M9.99268 8.96655C10.0883 8.96655 10.1839 8.96655 10.2794 8.96655C10.2794 9.06213 10.2794 9.15774 10.2794 9.25332C10.1839 9.25332 10.0883 9.25332 9.99268 9.25332C9.99268 9.15774 9.99268 9.06213 9.99268 8.96655Z" fill="white"/>
<path opacity="0.896" fill-rule="evenodd" clip-rule="evenodd" d="M1.21326 8.98853C1.30149 8.98853 1.38973 8.98853 1.47796 8.98853C1.47796 9.06942 1.47796 9.15028 1.47796 9.23117C1.38973 9.23117 1.30149 9.23117 1.21326 9.23117C1.21326 9.15028 1.21326 9.06942 1.21326 8.98853Z" fill="white"/>
<path opacity="0.965" fill-rule="evenodd" clip-rule="evenodd" d="M11.3162 9.03271C11.3676 9.03271 11.4191 9.03271 11.4706 9.03271C11.4706 9.08418 11.4706 9.13566 11.4706 9.18713C11.4191 9.18713 11.3676 9.18713 11.3162 9.18713C11.3162 9.13566 11.3162 9.08418 11.3162 9.03271Z" fill="white"/>
<path opacity="0.937" fill-rule="evenodd" clip-rule="evenodd" d="M2.82349 9.36353C3.09554 9.36353 3.36761 9.36353 3.63966 9.36353C3.63966 9.61352 3.63966 9.86353 3.63966 10.1135C3.36761 10.1135 3.09554 10.1135 2.82349 10.1135C2.82349 9.86353 2.82349 9.61352 2.82349 9.36353Z" fill="white"/>
<path opacity="0.942" fill-rule="evenodd" clip-rule="evenodd" d="M7.96326 9.42969C8.1765 9.42969 8.38972 9.42969 8.60296 9.42969C8.60296 9.65028 8.60296 9.87086 8.60296 10.0915C8.38972 10.0915 8.1765 10.0915 7.96326 10.0915C7.96326 9.87086 7.96326 9.65028 7.96326 9.42969Z" fill="white"/>
<path opacity="0.98" fill-rule="evenodd" clip-rule="evenodd" d="M9.24268 9.47388C9.41915 9.47388 9.59562 9.47388 9.77209 9.47388C9.77209 9.65769 9.77209 9.84153 9.77209 10.0253C9.59562 10.0253 9.41915 10.0253 9.24268 10.0253C9.24268 9.84153 9.24268 9.65769 9.24268 9.47388Z" fill="white"/>
<path opacity="0.921" fill-rule="evenodd" clip-rule="evenodd" d="M1.72058 9.56213C1.88235 9.56213 2.04411 9.56213 2.20588 9.56213C2.20588 9.67977 2.20588 9.79744 2.20588 9.91507C2.04411 9.91507 1.88235 9.91507 1.72058 9.91507C1.72058 9.79744 1.72058 9.67977 1.72058 9.56213Z" fill="white"/>
<path opacity="0.963" fill-rule="evenodd" clip-rule="evenodd" d="M4.21326 9.56213C4.39707 9.56213 4.58091 9.56213 4.76473 9.56213C4.76473 9.7092 4.76473 9.85624 4.76473 10.0033C4.58091 10.0033 4.39707 10.0033 4.21326 10.0033C4.21326 9.85624 4.21326 9.7092 4.21326 9.56213Z" fill="white"/>
<path opacity="0.933" fill-rule="evenodd" clip-rule="evenodd" d="M6.77209 9.58411C6.92651 9.58411 7.08092 9.58411 7.23533 9.58411C7.23533 9.6944 7.23533 9.80469 7.23533 9.91499C7.08092 9.91499 6.92651 9.91499 6.77209 9.91499C6.77209 9.80469 6.77209 9.6944 6.77209 9.58411Z" fill="white"/>
<path opacity="0.896" fill-rule="evenodd" clip-rule="evenodd" d="M5.51465 9.6062C5.66171 9.6062 5.80876 9.6062 5.95582 9.6062C5.95582 9.70178 5.95582 9.79738 5.95582 9.89297C5.80876 9.89297 5.66171 9.89297 5.51465 9.89297C5.51465 9.79738 5.51465 9.70178 5.51465 9.6062Z" fill="white"/>
<path opacity="0.87" fill-rule="evenodd" clip-rule="evenodd" d="M10.6323 9.6283C10.7279 9.6283 10.8235 9.6283 10.9191 9.6283C10.9191 9.72388 10.9191 9.81948 10.9191 9.91506C10.8235 9.91506 10.7279 9.91506 10.6323 9.91506C10.6323 9.81948 10.6323 9.72388 10.6323 9.6283Z" fill="white"/>
<path opacity="0.866" fill-rule="evenodd" clip-rule="evenodd" d="M0.595581 9.67236C0.661758 9.67236 0.727934 9.67236 0.79411 9.67236C0.79411 9.73854 0.79411 9.80472 0.79411 9.87089C0.727934 9.87089 0.661758 9.87089 0.595581 9.87089C0.595581 9.80472 0.595581 9.73854 0.595581 9.67236Z" fill="white"/>
<path opacity="0.803" fill-rule="evenodd" clip-rule="evenodd" d="M11.9779 9.69446C12.022 9.69446 12.0661 9.69446 12.1103 9.69446C12.1103 9.73858 12.1103 9.78269 12.1103 9.82681C12.0661 9.82681 12.022 9.82681 11.9779 9.82681C11.9779 9.78269 11.9779 9.73858 11.9779 9.69446Z" fill="white"/>
<path opacity="0.966" fill-rule="evenodd" clip-rule="evenodd" d="M2.27209 10.1577C2.48534 10.1577 2.69856 10.1577 2.9118 10.1577C2.9118 10.3121 2.9118 10.4665 2.9118 10.621C2.69856 10.621 2.48534 10.621 2.27209 10.621C2.27209 10.4665 2.27209 10.3121 2.27209 10.1577Z" fill="white"/>
<path opacity="0.991" fill-rule="evenodd" clip-rule="evenodd" d="M8.58093 10.1577C8.78681 10.1577 8.9927 10.1577 9.19858 10.1577C9.19858 10.3121 9.19858 10.4665 9.19858 10.621C8.9927 10.621 8.78681 10.621 8.58093 10.621C8.58093 10.4665 8.58093 10.3121 8.58093 10.1577Z" fill="white"/>
<path opacity="0.932" fill-rule="evenodd" clip-rule="evenodd" d="M3.59558 10.2018C3.7794 10.2018 3.96324 10.2018 4.14705 10.2018C4.14705 10.3415 4.14705 10.4812 4.14705 10.6209C3.96324 10.6209 3.7794 10.6209 3.59558 10.6209C3.59558 10.4812 3.59558 10.3415 3.59558 10.2018Z" fill="white"/>
<path opacity="0.896" fill-rule="evenodd" clip-rule="evenodd" d="M4.96326 10.246C5.06621 10.246 5.16913 10.246 5.27208 10.246C5.27208 10.3489 5.27208 10.4518 5.27208 10.5548C5.16913 10.5548 5.06621 10.5548 4.96326 10.5548C4.96326 10.4518 4.96326 10.3489 4.96326 10.246Z" fill="white"/>
<path opacity="0.923" fill-rule="evenodd" clip-rule="evenodd" d="M6.24268 10.246C6.33091 10.246 6.41915 10.246 6.50738 10.246C6.50738 10.3416 6.50738 10.4372 6.50738 10.5327C6.41915 10.5327 6.33091 10.5327 6.24268 10.5327C6.24268 10.4372 6.24268 10.3416 6.24268 10.246Z" fill="white"/>
<path opacity="0.896" fill-rule="evenodd" clip-rule="evenodd" d="M7.47791 10.246C7.58085 10.246 7.68378 10.246 7.78673 10.246C7.78673 10.3489 7.78673 10.4518 7.78673 10.5548C7.68378 10.5548 7.58085 10.5548 7.47791 10.5548C7.47791 10.4518 7.47791 10.3489 7.47791 10.246Z" fill="white"/>
<path opacity="0.89" fill-rule="evenodd" clip-rule="evenodd" d="M9.92651 10.246C10.0589 10.246 10.1912 10.246 10.3236 10.246C10.3236 10.3489 10.3236 10.4518 10.3236 10.5548C10.1912 10.5548 10.0589 10.5548 9.92651 10.5548C9.92651 10.4518 9.92651 10.3489 9.92651 10.246Z" fill="white"/>
<path opacity="0.897" fill-rule="evenodd" clip-rule="evenodd" d="M1.14709 10.2679C1.2721 10.2679 1.39709 10.2679 1.52209 10.2679C1.52209 10.3562 1.52209 10.4444 1.52209 10.5327C1.39709 10.5327 1.2721 10.5327 1.14709 10.5327C1.14709 10.4444 1.14709 10.3562 1.14709 10.2679Z" fill="white"/>
<path opacity="0.867" fill-rule="evenodd" clip-rule="evenodd" d="M11.2721 10.2679C11.3603 10.2679 11.4486 10.2679 11.5368 10.2679C11.5368 10.3635 11.5368 10.4591 11.5368 10.5547C11.4486 10.5547 11.3603 10.5547 11.2721 10.5547C11.2721 10.4591 11.2721 10.3635 11.2721 10.2679Z" fill="white"/>
<path opacity="0.788" fill-rule="evenodd" clip-rule="evenodd" d="M0 10.3341C0.0441176 10.3341 0.0882353 10.3341 0.132353 10.3341C0.132353 10.3856 0.132353 10.4371 0.132353 10.4885C0.0882353 10.4885 0.0441176 10.4885 0 10.4885C0 10.4371 0 10.3856 0 10.3341Z" fill="white"/>
<path opacity="0.933" fill-rule="evenodd" clip-rule="evenodd" d="M2.86768 10.6871C3.11032 10.6871 3.35297 10.6871 3.59562 10.6871C3.59562 10.9298 3.59562 11.1724 3.59562 11.4151C3.80149 11.4151 4.00739 11.4151 4.21326 11.4151C4.21326 11.5989 4.21326 11.7827 4.21326 11.9665C3.97062 11.9665 3.72797 11.9665 3.48532 11.9665C3.48532 11.7827 3.48532 11.5989 3.48532 11.4151C3.27945 11.4151 3.07355 11.4151 2.86768 11.4151C2.86768 11.1724 2.86768 10.9298 2.86768 10.6871Z" fill="white"/>
<path opacity="0.95" fill-rule="evenodd" clip-rule="evenodd" d="M4.16907 10.7974C4.3676 10.7974 4.56613 10.7974 4.76466 10.7974C4.76466 10.9738 4.76466 11.1503 4.76466 11.3268C4.56613 11.3268 4.3676 11.3268 4.16907 11.3268C4.16907 11.1503 4.16907 10.9738 4.16907 10.7974Z" fill="white"/>
<path opacity="0.96" fill-rule="evenodd" clip-rule="evenodd" d="M5.44849 10.7974C5.63967 10.7974 5.83083 10.7974 6.02202 10.7974C6.02202 10.9665 6.02202 11.1356 6.02202 11.3047C5.83083 11.3047 5.63967 11.3047 5.44849 11.3047C5.44849 11.1356 5.44849 10.9665 5.44849 10.7974Z" fill="white"/>
<path opacity="0.945" fill-rule="evenodd" clip-rule="evenodd" d="M6.68384 10.7974C6.89708 10.7974 7.1103 10.7974 7.32354 10.7974C7.32354 10.9665 7.32354 11.1356 7.32354 11.3047C7.1103 11.3047 6.89708 11.3047 6.68384 11.3047C6.68384 11.1356 6.68384 10.9665 6.68384 10.7974Z" fill="white"/>
<path opacity="0.915" fill-rule="evenodd" clip-rule="evenodd" d="M7.98535 10.7974C8.16182 10.7974 8.33829 10.7974 8.51476 10.7974C8.51476 10.9665 8.51476 11.1356 8.51476 11.3047C8.33829 11.3047 8.16182 11.3047 7.98535 11.3047C7.98535 11.1356 7.98535 10.9665 7.98535 10.7974Z" fill="white"/>
<path opacity="0.951" fill-rule="evenodd" clip-rule="evenodd" d="M9.30884 10.8195C9.4559 10.8195 9.60295 10.8195 9.75001 10.8195C9.75001 10.9665 9.75001 11.1136 9.75001 11.2606C9.60295 11.2606 9.4559 11.2606 9.30884 11.2606C9.30884 11.1136 9.30884 10.9665 9.30884 10.8195Z" fill="white"/>
<path opacity="0.909" fill-rule="evenodd" clip-rule="evenodd" d="M1.78674 10.8856C1.90439 10.8856 2.02204 10.8856 2.13968 10.8856C2.13968 11.0033 2.13968 11.1209 2.13968 11.2386C2.02204 11.2386 1.90439 11.2386 1.78674 11.2386C1.78674 11.1209 1.78674 11.0033 1.78674 10.8856Z" fill="white"/>
<path opacity="0.899" fill-rule="evenodd" clip-rule="evenodd" d="M0.573486 10.9077C0.661722 10.9077 0.749957 10.9077 0.838192 10.9077C0.838192 10.996 0.838192 11.0842 0.838192 11.1724C0.749957 11.1724 0.661722 11.1724 0.573486 11.1724C0.573486 11.0842 0.573486 10.996 0.573486 10.9077Z" fill="white"/>
<path opacity="0.867" fill-rule="evenodd" clip-rule="evenodd" d="M10.6323 10.9077C10.7206 10.9077 10.8088 10.9077 10.897 10.9077C10.897 11.0033 10.897 11.0989 10.897 11.1945C10.8088 11.1945 10.7206 11.1945 10.6323 11.1945C10.6323 11.0989 10.6323 11.0033 10.6323 10.9077Z" fill="white"/>
<path opacity="0.907" fill-rule="evenodd" clip-rule="evenodd" d="M11.9559 10.9518C12.0074 10.9518 12.0589 10.9518 12.1103 10.9518C12.1103 11.0106 12.1103 11.0694 12.1103 11.1283C12.0589 11.1283 12.0074 11.1283 11.9559 11.1283C11.9559 11.0694 11.9559 11.0106 11.9559 10.9518Z" fill="white"/>
<path opacity="0.935" fill-rule="evenodd" clip-rule="evenodd" d="M4.76465 11.415C4.99995 11.415 5.23523 11.415 5.47053 11.415C5.47053 11.5989 5.47053 11.7827 5.47053 11.9665C5.23523 11.9665 4.99995 11.9665 4.76465 11.9665C4.76465 11.7827 4.76465 11.5989 4.76465 11.415Z" fill="white"/>
<path opacity="0.97" fill-rule="evenodd" clip-rule="evenodd" d="M6.04407 11.4371C6.26466 11.4371 6.48524 11.4371 6.70583 11.4371C6.70583 11.6063 6.70583 11.7754 6.70583 11.9445C6.48524 11.9445 6.26466 11.9445 6.04407 11.9445C6.04407 11.7754 6.04407 11.6063 6.04407 11.4371Z" fill="white"/>
<path opacity="0.947" fill-rule="evenodd" clip-rule="evenodd" d="M7.27942 11.4371C7.50735 11.4371 7.73531 11.4371 7.96324 11.4371C7.96324 11.6063 7.96324 11.7754 7.96324 11.9445C7.73531 11.9445 7.50735 11.9445 7.27942 11.9445C7.27942 11.7754 7.27942 11.6063 7.27942 11.4371Z" fill="white"/>
<path opacity="0.945" fill-rule="evenodd" clip-rule="evenodd" d="M8.58093 11.4812C8.77946 11.4812 8.97799 11.4812 9.17652 11.4812C9.17652 11.6209 9.17652 11.7606 9.17652 11.9003C8.97799 11.9003 8.77946 11.9003 8.58093 11.9003C8.58093 11.7606 8.58093 11.6209 8.58093 11.4812Z" fill="white"/>
<path opacity="0.953" fill-rule="evenodd" clip-rule="evenodd" d="M2.33826 11.5033C2.50738 11.5033 2.67648 11.5033 2.84561 11.5033C2.84561 11.6283 2.84561 11.7533 2.84561 11.8783C2.67648 11.8783 2.50738 11.8783 2.33826 11.8783C2.33826 11.7533 2.33826 11.6283 2.33826 11.5033Z" fill="white"/>
<path opacity="0.83" fill-rule="evenodd" clip-rule="evenodd" d="M1.19116 11.5474C1.2794 11.5474 1.36763 11.5474 1.45587 11.5474C1.45587 11.6429 1.45587 11.7385 1.45587 11.8341C1.36763 11.8341 1.2794 11.8341 1.19116 11.8341C1.19116 11.7385 1.19116 11.6429 1.19116 11.5474Z" fill="white"/>
<path opacity="0.867" fill-rule="evenodd" clip-rule="evenodd" d="M11.2721 11.5474C11.3603 11.5474 11.4486 11.5474 11.5368 11.5474C11.5368 11.6429 11.5368 11.7385 11.5368 11.8341C11.4486 11.8341 11.3603 11.8341 11.2721 11.8341C11.2721 11.7385 11.2721 11.6429 11.2721 11.5474Z" fill="white"/>
<path opacity="0.932" fill-rule="evenodd" clip-rule="evenodd" d="M10.0146 11.5916C10.1029 11.5916 10.1911 11.5916 10.2794 11.5916C10.2794 11.6577 10.2794 11.7239 10.2794 11.7901C10.1911 11.7901 10.1029 11.7901 10.0146 11.7901C10.0146 11.7239 10.0146 11.6577 10.0146 11.5916Z" fill="white"/>
<path opacity="0.675" fill-rule="evenodd" clip-rule="evenodd" d="M0 11.6135C0.0514705 11.6135 0.102941 11.6135 0.154412 11.6135C0.154412 11.665 0.154412 11.7165 0.154412 11.7679C0.102941 11.7679 0.0514705 11.7679 0 11.7679C0 11.7165 0 11.665 0 11.6135Z" fill="white"/>
<path opacity="0.971" fill-rule="evenodd" clip-rule="evenodd" d="M4.08093 11.9885C4.34564 11.9885 4.61034 11.9885 4.87505 11.9885C4.87505 12.2018 4.87505 12.415 4.87505 12.6282C4.61034 12.6282 4.34564 12.6282 4.08093 12.6282C4.08093 12.415 4.08093 12.2018 4.08093 11.9885Z" fill="white"/>
<path opacity="0.951" fill-rule="evenodd" clip-rule="evenodd" d="M7.94116 12.0106C8.16175 12.0106 8.38234 12.0106 8.60293 12.0106C8.60293 12.2165 8.60293 12.4224 8.60293 12.6283C8.74263 12.6283 8.88235 12.6283 9.02204 12.6283C9.02204 12.4297 9.02204 12.2312 9.02204 12.0327C9.28675 12.0327 9.55146 12.0327 9.81616 12.0327C9.81616 12.2386 9.81616 12.4445 9.81616 12.6503C9.61763 12.6503 9.4191 12.6503 9.22057 12.6503C9.22057 12.8636 9.22057 13.0768 9.22057 13.29C9.4191 13.29 9.61763 13.29 9.81616 13.29C9.81616 13.5033 9.81616 13.7165 9.81616 13.9297C9.60292 13.9297 9.3897 13.9297 9.17646 13.9297C9.17646 13.7239 9.17646 13.518 9.17646 13.3121C8.96321 13.3121 8.74999 13.3121 8.53675 13.3121C8.53675 13.1062 8.53675 12.9003 8.53675 12.6944C8.33822 12.6944 8.13969 12.6944 7.94116 12.6944C7.94116 12.4665 7.94116 12.2386 7.94116 12.0106Z" fill="white"/>
<path opacity="0.983" fill-rule="evenodd" clip-rule="evenodd" d="M5.38232 12.0327C5.62497 12.0327 5.86762 12.0327 6.11027 12.0327C6.11027 12.2239 6.11027 12.4151 6.11027 12.6062C5.86762 12.6062 5.62497 12.6062 5.38232 12.6062C5.38232 12.4151 5.38232 12.2239 5.38232 12.0327Z" fill="white"/>
<path opacity="0.947" fill-rule="evenodd" clip-rule="evenodd" d="M6.68384 12.0327C6.88971 12.0327 7.09561 12.0327 7.30148 12.0327C7.30148 12.2386 7.30148 12.4445 7.30148 12.6504C7.09561 12.6504 6.88971 12.6504 6.68384 12.6504C6.68384 12.4445 6.68384 12.2386 6.68384 12.0327Z" fill="white"/>
<path opacity="0.932" fill-rule="evenodd" clip-rule="evenodd" d="M2.97791 12.0989C3.13232 12.0989 3.28673 12.0989 3.44114 12.0989C3.44114 12.2606 3.44114 12.4224 3.44114 12.5842C3.28673 12.5842 3.13232 12.5842 2.97791 12.5842C2.97791 12.4224 2.97791 12.2606 2.97791 12.0989Z" fill="white"/>
<path opacity="0.813" fill-rule="evenodd" clip-rule="evenodd" d="M1.80884 12.1871C1.91178 12.1871 2.01472 12.1871 2.11766 12.1871C2.11766 12.2901 2.11766 12.393 2.11766 12.496C2.01472 12.496 1.91178 12.496 1.80884 12.496C1.80884 12.393 1.80884 12.2901 1.80884 12.1871Z" fill="white"/>
<path opacity="0.8" fill-rule="evenodd" clip-rule="evenodd" d="M10.6323 12.1871C10.7279 12.1871 10.8235 12.1871 10.9191 12.1871C10.9191 12.2827 10.9191 12.3783 10.9191 12.4739C10.8235 12.4739 10.7279 12.4739 10.6323 12.4739C10.6323 12.3783 10.6323 12.2827 10.6323 12.1871Z" fill="white"/>
<path opacity="0.86" fill-rule="evenodd" clip-rule="evenodd" d="M0.573486 12.2091C0.661722 12.2091 0.749957 12.2091 0.838192 12.2091C0.838192 12.2973 0.838192 12.3856 0.838192 12.4738C0.749957 12.4738 0.661722 12.4738 0.573486 12.4738C0.573486 12.3856 0.573486 12.2973 0.573486 12.2091Z" fill="white"/>
<path opacity="0.875" fill-rule="evenodd" clip-rule="evenodd" d="M11.9338 12.2533C11.9927 12.2533 12.0515 12.2533 12.1103 12.2533C12.1103 12.3048 12.1103 12.3562 12.1103 12.4077C12.0515 12.4077 11.9927 12.4077 11.9338 12.4077C11.9338 12.3562 11.9338 12.3048 11.9338 12.2533Z" fill="white"/>
<path opacity="0.927" fill-rule="evenodd" clip-rule="evenodd" d="M2.36035 12.7606C2.50742 12.7606 2.65446 12.7606 2.80153 12.7606C2.80153 12.9077 2.80153 13.0547 2.80153 13.2018C2.65446 13.2018 2.50742 13.2018 2.36035 13.2018C2.36035 13.0547 2.36035 12.9077 2.36035 12.7606Z" fill="white"/>
<path opacity="0.919" fill-rule="evenodd" clip-rule="evenodd" d="M9.90442 12.7606C10.0588 12.7606 10.2132 12.7606 10.3677 12.7606C10.3677 12.915 10.3677 13.0694 10.3677 13.2239C10.2132 13.2239 10.0588 13.2239 9.90442 13.2239C9.90442 13.0694 9.90442 12.915 9.90442 12.7606Z" fill="white"/>
<path opacity="0.929" fill-rule="evenodd" clip-rule="evenodd" d="M7.34558 12.7827C7.5294 12.7827 7.71324 12.7827 7.89705 12.7827C7.89705 12.9224 7.89705 13.0621 7.89705 13.2018C7.71324 13.2018 7.5294 13.2018 7.34558 13.2018C7.34558 13.0621 7.34558 12.9224 7.34558 12.7827Z" fill="white"/>
<path opacity="0.921" fill-rule="evenodd" clip-rule="evenodd" d="M3.61768 12.8047C3.77943 12.8047 3.94121 12.8047 4.10297 12.8047C4.10297 12.9223 4.10297 13.04 4.10297 13.1576C3.94121 13.1576 3.77943 13.1576 3.61768 13.1576C3.61768 13.04 3.61768 12.9223 3.61768 12.8047Z" fill="white"/>
<path opacity="0.891" fill-rule="evenodd" clip-rule="evenodd" d="M4.89709 12.8047C5.03679 12.8047 5.17651 12.8047 5.31621 12.8047C5.31621 12.9223 5.31621 13.04 5.31621 13.1576C5.17651 13.1576 5.03679 13.1576 4.89709 13.1576C4.89709 13.04 4.89709 12.9223 4.89709 12.8047Z" fill="white"/>
<path opacity="0.879" fill-rule="evenodd" clip-rule="evenodd" d="M6.19849 12.8047C6.31613 12.8047 6.43379 12.8047 6.55143 12.8047C6.55143 12.9223 6.55143 13.04 6.55143 13.1576C6.43379 13.1576 6.31613 13.1576 6.19849 13.1576C6.19849 13.04 6.19849 12.9223 6.19849 12.8047Z" fill="white"/>
<path opacity="0.899" fill-rule="evenodd" clip-rule="evenodd" d="M1.14709 12.8268C1.27945 12.8268 1.4118 12.8268 1.54415 12.8268C1.54415 12.9224 1.54415 13.018 1.54415 13.1135C1.4118 13.1135 1.27945 13.1135 1.14709 13.1135C1.14709 13.018 1.14709 12.9224 1.14709 12.8268Z" fill="white"/>
<path opacity="0.867" fill-rule="evenodd" clip-rule="evenodd" d="M11.25 12.8489C11.3456 12.8489 11.4412 12.8489 11.5368 12.8489C11.5368 12.9371 11.5368 13.0253 11.5368 13.1136C11.4412 13.1136 11.3456 13.1136 11.25 13.1136C11.25 13.0253 11.25 12.9371 11.25 12.8489Z" fill="white"/>
<path opacity="0.675" fill-rule="evenodd" clip-rule="evenodd" d="M0 12.915C0.0514705 12.915 0.102941 12.915 0.154412 12.915C0.154412 12.9665 0.154412 13.018 0.154412 13.0695C0.102941 13.0695 0.0514705 13.0695 0 13.0695C0 13.018 0 12.9665 0 12.915Z" fill="white"/>
<path opacity="0.948" fill-rule="evenodd" clip-rule="evenodd" d="M2.86768 13.3562C3.09561 13.3562 3.32357 13.3562 3.5515 13.3562C3.5515 13.5327 3.5515 13.7091 3.5515 13.8856C3.32357 13.8856 3.09561 13.8856 2.86768 13.8856C2.86768 13.7091 2.86768 13.5327 2.86768 13.3562Z" fill="white"/>
<path opacity="0.953" fill-rule="evenodd" clip-rule="evenodd" d="M8.02942 13.4004C8.18383 13.4004 8.33824 13.4004 8.49265 13.4004C8.49265 13.5548 8.49265 13.7092 8.49265 13.8636C8.33824 13.8636 8.18383 13.8636 8.02942 13.8636C8.02942 13.7092 8.02942 13.5548 8.02942 13.4004Z" fill="white"/>
<path opacity="0.879" fill-rule="evenodd" clip-rule="evenodd" d="M1.78674 13.4445C1.90439 13.4445 2.02204 13.4445 2.13968 13.4445C2.13968 13.5621 2.13968 13.6798 2.13968 13.7974C2.02204 13.7974 1.90439 13.7974 1.78674 13.7974C1.78674 13.6798 1.78674 13.5621 1.78674 13.4445Z" fill="white"/>
<path opacity="0.911" fill-rule="evenodd" clip-rule="evenodd" d="M4.32349 13.4666C4.41907 13.4666 4.51467 13.4666 4.61025 13.4666C4.61025 13.5695 4.61025 13.6724 4.61025 13.7754C4.51467 13.7754 4.41907 13.7754 4.32349 13.7754C4.32349 13.6724 4.32349 13.5695 4.32349 13.4666Z" fill="white"/>
<path opacity="0.89" fill-rule="evenodd" clip-rule="evenodd" d="M5.53674 13.4666C5.6691 13.4666 5.80145 13.4666 5.9338 13.4666C5.9338 13.5695 5.9338 13.6724 5.9338 13.7754C5.80145 13.7754 5.6691 13.7754 5.53674 13.7754C5.53674 13.6724 5.53674 13.5695 5.53674 13.4666Z" fill="white"/>
<path opacity="0.863" fill-rule="evenodd" clip-rule="evenodd" d="M6.79407 13.4666C6.93377 13.4666 7.07349 13.4666 7.21319 13.4666C7.21319 13.5621 7.21319 13.6577 7.21319 13.7533C7.07349 13.7533 6.93377 13.7533 6.79407 13.7533C6.79407 13.6577 6.79407 13.5621 6.79407 13.4666Z" fill="white"/>
<path opacity="0.889" fill-rule="evenodd" clip-rule="evenodd" d="M10.6323 13.4885C10.7279 13.4885 10.8235 13.4885 10.9191 13.4885C10.9191 13.5841 10.9191 13.6797 10.9191 13.7753C10.8235 13.7753 10.7279 13.7753 10.6323 13.7753C10.6323 13.6797 10.6323 13.5841 10.6323 13.4885Z" fill="white"/>
<path opacity="0.887" fill-rule="evenodd" clip-rule="evenodd" d="M0.595581 13.5106C0.66911 13.5106 0.742641 13.5106 0.816169 13.5106C0.816169 13.5915 0.816169 13.6724 0.816169 13.7533C0.742641 13.7533 0.66911 13.7533 0.595581 13.7533C0.595581 13.6724 0.595581 13.5915 0.595581 13.5106Z" fill="white"/>
<path opacity="0.803" fill-rule="evenodd" clip-rule="evenodd" d="M11.9779 13.5547C12.022 13.5547 12.0661 13.5547 12.1103 13.5547C12.1103 13.5988 12.1103 13.6429 12.1103 13.687C12.0661 13.687 12.022 13.687 11.9779 13.687C11.9779 13.6429 11.9779 13.5988 11.9779 13.5547Z" fill="white"/>
<path opacity="0.962" fill-rule="evenodd" clip-rule="evenodd" d="M8.51465 14.04C8.7573 14.04 8.99994 14.04 9.24259 14.04C9.24259 14.1945 9.24259 14.3489 9.24259 14.5033C8.99994 14.5033 8.7573 14.5033 8.51465 14.5033C8.51465 14.3489 8.51465 14.1945 8.51465 14.04Z" fill="white"/>
<path opacity="0.964" fill-rule="evenodd" clip-rule="evenodd" d="M3.46326 14.0621C3.69856 14.0621 3.93384 14.0621 4.16914 14.0621C4.16914 14.2018 4.16914 14.3416 4.16914 14.4813C3.93384 14.4813 3.69856 14.4813 3.46326 14.4813C3.46326 14.3416 3.46326 14.2018 3.46326 14.0621Z" fill="white"/>
<path opacity="0.87" fill-rule="evenodd" clip-rule="evenodd" d="M4.89709 14.0621C5.02945 14.0621 5.1618 14.0621 5.29415 14.0621C5.29415 14.2018 5.29415 14.3416 5.29415 14.4813C5.1618 14.4813 5.02945 14.4813 4.89709 14.4813C4.89709 14.3416 4.89709 14.2018 4.89709 14.0621Z" fill="white"/>
<path opacity="0.887" fill-rule="evenodd" clip-rule="evenodd" d="M6.13232 14.0621C6.27939 14.0621 6.42643 14.0621 6.5735 14.0621C6.5735 14.2018 6.5735 14.3416 6.5735 14.4813C6.42643 14.4813 6.27939 14.4813 6.13232 14.4813C6.13232 14.3416 6.13232 14.2018 6.13232 14.0621Z" fill="white"/>
<path opacity="0.904" fill-rule="evenodd" clip-rule="evenodd" d="M2.31616 14.0841C2.49998 14.0841 2.68382 14.0841 2.86763 14.0841C2.86763 14.2091 2.86763 14.3341 2.86763 14.4591C2.68382 14.4591 2.49998 14.4591 2.31616 14.4591C2.31616 14.3341 2.31616 14.2091 2.31616 14.0841Z" fill="white"/>
<path opacity="0.928" fill-rule="evenodd" clip-rule="evenodd" d="M9.94849 14.0841C10.0735 14.0841 10.1985 14.0841 10.3235 14.0841C10.3235 14.2091 10.3235 14.3341 10.3235 14.4591C10.1985 14.4591 10.0735 14.4591 9.94849 14.4591C9.94849 14.3341 9.94849 14.2091 9.94849 14.0841Z" fill="white"/>
<path opacity="0.839" fill-rule="evenodd" clip-rule="evenodd" d="M7.38965 14.1062C7.55141 14.1062 7.71319 14.1062 7.87494 14.1062C7.87494 14.2165 7.87494 14.3268 7.87494 14.4371C7.71319 14.4371 7.55141 14.4371 7.38965 14.4371C7.38965 14.3268 7.38965 14.2165 7.38965 14.1062Z" fill="white"/>
<path opacity="0.906" fill-rule="evenodd" clip-rule="evenodd" d="M1.19116 14.1283C1.28675 14.1283 1.38234 14.1283 1.47793 14.1283C1.47793 14.2239 1.47793 14.3195 1.47793 14.4151C1.38234 14.4151 1.28675 14.4151 1.19116 14.4151C1.19116 14.3195 1.19116 14.2239 1.19116 14.1283Z" fill="white"/>
<path fill-rule="evenodd" clip-rule="evenodd" d="M11.2941 14.1724C11.3602 14.1724 11.4264 14.1724 11.4926 14.1724C11.4926 14.2385 11.4926 14.3047 11.4926 14.3709C11.4264 14.3709 11.3602 14.3709 11.2941 14.3709C11.2941 14.3047 11.2941 14.2385 11.2941 14.1724Z" fill="white"/>
<path opacity="0.563" fill-rule="evenodd" clip-rule="evenodd" d="M0.0220947 14.2166C0.0588595 14.2166 0.0956241 14.2166 0.132389 14.2166C0.132389 14.2533 0.132389 14.2901 0.132389 14.3268C0.0956241 14.3268 0.0588595 14.3268 0.0220947 14.3268C0.0220947 14.2901 0.0220947 14.2533 0.0220947 14.2166Z" fill="white"/>
<path opacity="0.945" fill-rule="evenodd" clip-rule="evenodd" d="M7.89709 14.5695C8.12503 14.5695 8.35298 14.5695 8.58092 14.5695C8.58092 14.8048 8.58092 15.04 8.58092 15.2753C8.35298 15.2753 8.12503 15.2753 7.89709 15.2753C7.89709 15.04 7.89709 14.8048 7.89709 14.5695Z" fill="white"/>
<path opacity="0.943" fill-rule="evenodd" clip-rule="evenodd" d="M2.95593 14.5916C3.17652 14.5916 3.39711 14.5916 3.6177 14.5916C3.6177 14.8121 3.6177 15.0327 3.6177 15.2533C3.39711 15.2533 3.17652 15.2533 2.95593 15.2533C2.95593 15.0327 2.95593 14.8121 2.95593 14.5916Z" fill="white"/>
<path opacity="0.957" fill-rule="evenodd" clip-rule="evenodd" d="M4.14709 14.5916C4.36034 14.5916 4.57356 14.5916 4.7868 14.5916C4.7868 14.8048 4.7868 15.018 4.7868 15.2313C4.57356 15.2313 4.36034 15.2313 4.14709 15.2313C4.14709 15.018 4.14709 14.8048 4.14709 14.5916Z" fill="white"/>
<path opacity="0.967" fill-rule="evenodd" clip-rule="evenodd" d="M6.68384 14.5916C6.89708 14.5916 7.1103 14.5916 7.32354 14.5916C7.32354 14.8121 7.32354 15.0327 7.32354 15.2533C7.1103 15.2533 6.89708 15.2533 6.68384 15.2533C6.68384 15.0327 6.68384 14.8121 6.68384 14.5916Z" fill="white"/>
<path opacity="0.992" fill-rule="evenodd" clip-rule="evenodd" d="M5.40442 14.6797C5.62501 14.6797 5.8456 14.6797 6.06618 14.6797C6.06618 14.8414 6.06618 15.0032 6.06618 15.165C5.8456 15.165 5.62501 15.165 5.40442 15.165C5.40442 15.0032 5.40442 14.8414 5.40442 14.6797Z" fill="white"/>
<path opacity="0.879" fill-rule="evenodd" clip-rule="evenodd" d="M9.26465 14.6797C9.42641 14.6797 9.58819 14.6797 9.74994 14.6797C9.74994 14.8414 9.74994 15.0032 9.74994 15.165C9.58819 15.165 9.42641 15.165 9.26465 15.165C9.26465 15.0032 9.26465 14.8414 9.26465 14.6797Z" fill="white"/>
<path opacity="0.906" fill-rule="evenodd" clip-rule="evenodd" d="M1.80884 14.7679C1.90443 14.7679 2.00002 14.7679 2.0956 14.7679C2.0956 14.8635 2.0956 14.9591 2.0956 15.0547C2.00002 15.0547 1.90443 15.0547 1.80884 15.0547C1.80884 14.9591 1.80884 14.8635 1.80884 14.7679Z" fill="white"/>
<path opacity="0.822" fill-rule="evenodd" clip-rule="evenodd" d="M10.6323 14.79C10.7206 14.79 10.8088 14.79 10.897 14.79C10.897 14.8783 10.897 14.9665 10.897 15.0547C10.8088 15.0547 10.7206 15.0547 10.6323 15.0547C10.6323 14.9665 10.6323 14.8783 10.6323 14.79Z" fill="white"/>
<path opacity="0.767" fill-rule="evenodd" clip-rule="evenodd" d="M0.639648 14.8562C0.683766 14.8562 0.727884 14.8562 0.772001 14.8562C0.772001 14.9003 0.772001 14.9444 0.772001 14.9886C0.727884 14.9886 0.683766 14.9886 0.639648 14.9886C0.639648 14.9444 0.639648 14.9003 0.639648 14.8562Z" fill="white"/>
<path opacity="0.894" fill-rule="evenodd" clip-rule="evenodd" d="M7.30151 15.3195C7.5221 15.3195 7.74269 15.3195 7.96328 15.3195C7.96328 15.4739 7.96328 15.6283 7.96328 15.7827C7.74269 15.7827 7.5221 15.7827 7.30151 15.7827C7.30151 15.6283 7.30151 15.4739 7.30151 15.3195Z" fill="white"/>
<path opacity="0.975" fill-rule="evenodd" clip-rule="evenodd" d="M4.78674 15.3416C4.99262 15.3416 5.19852 15.3416 5.40439 15.3416C5.40439 15.4886 5.40439 15.6357 5.40439 15.7827C5.19852 15.7827 4.99262 15.7827 4.78674 15.7827C4.78674 15.6357 4.78674 15.4886 4.78674 15.3416Z" fill="white"/>
<path opacity="0.961" fill-rule="evenodd" clip-rule="evenodd" d="M3.57349 15.3635C3.74996 15.3635 3.92643 15.3635 4.1029 15.3635C4.1029 15.4885 4.1029 15.6135 4.1029 15.7385C3.92643 15.7385 3.74996 15.7385 3.57349 15.7385C3.57349 15.6135 3.57349 15.4885 3.57349 15.3635Z" fill="white"/>
<path opacity="0.916" fill-rule="evenodd" clip-rule="evenodd" d="M6.08826 15.3635C6.27207 15.3635 6.45591 15.3635 6.63973 15.3635C6.63973 15.4959 6.63973 15.6282 6.63973 15.7606C6.45591 15.7606 6.27207 15.7606 6.08826 15.7606C6.08826 15.6282 6.08826 15.4959 6.08826 15.3635Z" fill="white"/>
<path opacity="0.911" fill-rule="evenodd" clip-rule="evenodd" d="M8.64709 15.3856C8.80151 15.3856 8.95592 15.3856 9.11033 15.3856C9.11033 15.4959 9.11033 15.6062 9.11033 15.7165C8.95592 15.7165 8.80151 15.7165 8.64709 15.7165C8.64709 15.6062 8.64709 15.4959 8.64709 15.3856Z" fill="white"/>
<path opacity="0.906" fill-rule="evenodd" clip-rule="evenodd" d="M2.44849 15.4077C2.54407 15.4077 2.63967 15.4077 2.73525 15.4077C2.73525 15.5033 2.73525 15.5989 2.73525 15.6945C2.63967 15.6945 2.54407 15.6945 2.44849 15.6945C2.44849 15.5989 2.44849 15.5033 2.44849 15.4077Z" fill="white"/>
<path opacity="0.842" fill-rule="evenodd" clip-rule="evenodd" d="M1.21326 15.4297C1.28679 15.4297 1.36032 15.4297 1.43385 15.4297C1.43385 15.5106 1.43385 15.5914 1.43385 15.6723C1.36032 15.6723 1.28679 15.6723 1.21326 15.6723C1.21326 15.5914 1.21326 15.5106 1.21326 15.4297Z" fill="white"/>
<path opacity="0.875" fill-rule="evenodd" clip-rule="evenodd" d="M10.0146 15.4297C10.0955 15.4297 10.1764 15.4297 10.2573 15.4297C10.2573 15.5179 10.2573 15.6062 10.2573 15.6944C10.1764 15.6944 10.0955 15.6944 10.0146 15.6944C10.0146 15.6062 10.0146 15.5179 10.0146 15.4297Z" fill="white"/>
<path opacity="0.57" fill-rule="evenodd" clip-rule="evenodd" d="M11.3604 15.5179C11.3898 15.5179 11.4192 15.5179 11.4486 15.5179C11.4486 15.5547 11.4486 15.5915 11.4486 15.6282C11.4192 15.6282 11.3898 15.6282 11.3604 15.6282C11.3604 15.5915 11.3604 15.5547 11.3604 15.5179Z" fill="white"/>
<path opacity="0.927" fill-rule="evenodd" clip-rule="evenodd" d="M6.75 15.9371C6.91913 15.9371 7.08823 15.9371 7.25735 15.9371C7.25735 16.1136 7.25735 16.2901 7.25735 16.4665C7.08823 16.4665 6.91913 16.4665 6.75 16.4665C6.75 16.2901 6.75 16.1136 6.75 15.9371Z" fill="white"/>
<path opacity="0.915" fill-rule="evenodd" clip-rule="evenodd" d="M4.21326 15.9591C4.41913 15.9591 4.62503 15.9591 4.8309 15.9591C4.8309 16.1209 4.8309 16.2826 4.8309 16.4444C4.62503 16.4444 4.41913 16.4444 4.21326 16.4444C4.21326 16.2826 4.21326 16.1209 4.21326 15.9591Z" fill="white"/>
<path fill-rule="evenodd" clip-rule="evenodd" d="M5.36035 16.0033C5.61034 16.0033 5.86036 16.0033 6.11035 16.0033C6.11035 16.143 6.11035 16.2827 6.11035 16.4224C5.86036 16.4224 5.61034 16.4224 5.36035 16.4224C5.36035 16.2827 5.36035 16.143 5.36035 16.0033Z" fill="white"/>
<path opacity="0.928" fill-rule="evenodd" clip-rule="evenodd" d="M8.07349 16.0254C8.19849 16.0254 8.32348 16.0254 8.44849 16.0254C8.44849 16.1504 8.44849 16.2754 8.44849 16.4004C8.32348 16.4004 8.19849 16.4004 8.07349 16.4004C8.07349 16.2754 8.07349 16.1504 8.07349 16.0254Z" fill="white"/>
<path opacity="0.842" fill-rule="evenodd" clip-rule="evenodd" d="M3.06616 16.0474C3.16174 16.0474 3.25735 16.0474 3.35293 16.0474C3.35293 16.1503 3.35293 16.2532 3.35293 16.3562C3.25735 16.3562 3.16174 16.3562 3.06616 16.3562C3.06616 16.2532 3.06616 16.1503 3.06616 16.0474Z" fill="white"/>
<path opacity="0.822" fill-rule="evenodd" clip-rule="evenodd" d="M1.83093 16.0695C1.91917 16.0695 2.0074 16.0695 2.09564 16.0695C2.09564 16.1577 2.09564 16.2459 2.09564 16.3342C2.0074 16.3342 1.91917 16.3342 1.83093 16.3342C1.83093 16.2459 1.83093 16.1577 1.83093 16.0695Z" fill="white"/>
<path opacity="0.822" fill-rule="evenodd" clip-rule="evenodd" d="M9.375 16.0695C9.46324 16.0695 9.55147 16.0695 9.63971 16.0695C9.63971 16.1577 9.63971 16.2459 9.63971 16.3342C9.55147 16.3342 9.46324 16.3342 9.375 16.3342C9.375 16.2459 9.375 16.1577 9.375 16.0695Z" fill="white"/>
<path opacity="0.904" fill-rule="evenodd" clip-rule="evenodd" d="M10.7206 16.1577C10.7574 16.1577 10.7941 16.1577 10.8309 16.1577C10.8309 16.1945 10.8309 16.2312 10.8309 16.268C10.7941 16.268 10.7574 16.268 10.7206 16.268C10.7206 16.2312 10.7206 16.1945 10.7206 16.1577Z" fill="white"/>
<path opacity="0.875" fill-rule="evenodd" clip-rule="evenodd" d="M2.47058 16.7091C2.55147 16.7091 2.63234 16.7091 2.71323 16.7091C2.71323 16.7973 2.71323 16.8856 2.71323 16.9738C2.63234 16.9738 2.55147 16.9738 2.47058 16.9738C2.47058 16.8856 2.47058 16.7973 2.47058 16.7091Z" fill="white"/>
<path opacity="0.888" fill-rule="evenodd" clip-rule="evenodd" d="M3.70593 16.7091C3.80151 16.7091 3.89712 16.7091 3.9927 16.7091C3.9927 16.8047 3.9927 16.9003 3.9927 16.9959C3.89712 16.9959 3.80151 16.9959 3.70593 16.9959C3.70593 16.9003 3.70593 16.8047 3.70593 16.7091Z" fill="white"/>
<path opacity="0.86" fill-rule="evenodd" clip-rule="evenodd" d="M4.98535 16.7091C5.07359 16.7091 5.16182 16.7091 5.25006 16.7091C5.25006 16.7973 5.25006 16.8856 5.25006 16.9738C5.16182 16.9738 5.07359 16.9738 4.98535 16.9738C4.98535 16.8856 4.98535 16.7973 4.98535 16.7091Z" fill="white"/>
<path opacity="0.86" fill-rule="evenodd" clip-rule="evenodd" d="M6.24268 16.7091C6.33091 16.7091 6.41915 16.7091 6.50738 16.7091C6.50738 16.7973 6.50738 16.8856 6.50738 16.9738C6.41915 16.9738 6.33091 16.9738 6.24268 16.9738C6.24268 16.8856 6.24268 16.7973 6.24268 16.7091Z" fill="white"/>
<path opacity="0.83" fill-rule="evenodd" clip-rule="evenodd" d="M7.5 16.7091C7.58824 16.7091 7.67647 16.7091 7.76471 16.7091C7.76471 16.8047 7.76471 16.9003 7.76471 16.9959C7.67647 16.9959 7.58824 16.9959 7.5 16.9959C7.5 16.9003 7.5 16.8047 7.5 16.7091Z" fill="white"/>
<path opacity="0.896" fill-rule="evenodd" clip-rule="evenodd" d="M8.75732 16.7091C8.83821 16.7091 8.91908 16.7091 8.99997 16.7091C8.99997 16.7973 8.99997 16.8856 8.99997 16.9738C8.91908 16.9738 8.83821 16.9738 8.75732 16.9738C8.75732 16.8856 8.75732 16.7973 8.75732 16.7091Z" fill="white"/>
<path opacity="0.638" fill-rule="evenodd" clip-rule="evenodd" d="M10.0809 16.7974C10.1177 16.7974 10.1545 16.7974 10.1912 16.7974C10.1912 16.8415 10.1912 16.8856 10.1912 16.9297C10.1545 16.9297 10.1177 16.9297 10.0809 16.9297C10.0809 16.8856 10.0809 16.8415 10.0809 16.7974Z" fill="white"/>
<path opacity="0.906" fill-rule="evenodd" clip-rule="evenodd" d="M4.34558 17.3489C4.44116 17.3489 4.53676 17.3489 4.63235 17.3489C4.63235 17.4445 4.63235 17.5401 4.63235 17.6356C4.53676 17.6356 4.44116 17.6356 4.34558 17.6356C4.34558 17.5401 4.34558 17.4445 4.34558 17.3489Z" fill="white"/>
<path opacity="0.885" fill-rule="evenodd" clip-rule="evenodd" d="M5.60291 17.3489C5.69849 17.3489 5.79409 17.3489 5.88967 17.3489C5.88967 17.4371 5.88967 17.5253 5.88967 17.6136C5.79409 17.6136 5.69849 17.6136 5.60291 17.6136C5.60291 17.5253 5.60291 17.4371 5.60291 17.3489Z" fill="white"/>
<path opacity="0.896" fill-rule="evenodd" clip-rule="evenodd" d="M6.86035 17.371C6.94859 17.371 7.03682 17.371 7.12506 17.371C7.12506 17.4519 7.12506 17.5327 7.12506 17.6136C7.03682 17.6136 6.94859 17.6136 6.86035 17.6136C6.86035 17.5327 6.86035 17.4519 6.86035 17.371Z" fill="white"/>
<path opacity="0.866" fill-rule="evenodd" clip-rule="evenodd" d="M3.11035 17.3929C3.17653 17.3929 3.2427 17.3929 3.30888 17.3929C3.30888 17.4591 3.30888 17.5253 3.30888 17.5915C3.2427 17.5915 3.17653 17.5915 3.11035 17.5915C3.11035 17.5253 3.11035 17.4591 3.11035 17.3929Z" fill="white"/>
<path opacity="0.866" fill-rule="evenodd" clip-rule="evenodd" d="M8.16174 17.3929C8.22792 17.3929 8.2941 17.3929 8.36027 17.3929C8.36027 17.4591 8.36027 17.5253 8.36027 17.5915C8.2941 17.5915 8.22792 17.5915 8.16174 17.5915C8.16174 17.5253 8.16174 17.4591 8.16174 17.3929Z" fill="white"/>
<path opacity="0.657" fill-rule="evenodd" clip-rule="evenodd" d="M9.46326 17.4591C9.50003 17.4591 9.53678 17.4591 9.57355 17.4591C9.57355 17.4885 9.57355 17.5179 9.57355 17.5473C9.53678 17.5473 9.50003 17.5473 9.46326 17.5473C9.46326 17.5179 9.46326 17.4885 9.46326 17.4591Z" fill="white"/>
<path opacity="0.618" fill-rule="evenodd" clip-rule="evenodd" d="M3.92651 18.2091C3.87504 18.2091 3.82356 18.2091 3.77209 18.2091C3.77209 18.1576 3.77209 18.1062 3.77209 18.0547C3.82356 18.0547 3.87504 18.0547 3.92651 18.0547C3.92651 18.1062 3.92651 18.1576 3.92651 18.2091Z" fill="white"/>
<path opacity="0.721" fill-rule="evenodd" clip-rule="evenodd" d="M5.18387 18.2091C5.13975 18.2091 5.09563 18.2091 5.05151 18.2091C5.05151 18.1576 5.05151 18.1062 5.05151 18.0547C5.09563 18.0547 5.13975 18.0547 5.18387 18.0547C5.18387 18.1062 5.18387 18.1576 5.18387 18.2091Z" fill="white"/>
<path opacity="0.814" fill-rule="evenodd" clip-rule="evenodd" d="M6.46321 18.2091C6.40438 18.2091 6.34557 18.2091 6.28674 18.2091C6.28674 18.1576 6.28674 18.1062 6.28674 18.0547C6.34557 18.0547 6.40438 18.0547 6.46321 18.0547C6.46321 18.1062 6.46321 18.1576 6.46321 18.2091Z" fill="white"/>
<path opacity="0.688" fill-rule="evenodd" clip-rule="evenodd" d="M7.69852 18.2091C7.6544 18.2091 7.61028 18.2091 7.56616 18.2091C7.56616 18.1576 7.56616 18.1062 7.56616 18.0547C7.61028 18.0547 7.6544 18.0547 7.69852 18.0547C7.69852 18.1062 7.69852 18.1576 7.69852 18.2091Z" fill="white"/>
<path opacity="0.98" fill-rule="evenodd" clip-rule="evenodd" d="M18.4854 9.05472C19.3464 9.04448 20.2067 9.05551 21.0662 9.08781C21.5084 9.21376 21.7988 9.49685 21.9376 9.93707C22.328 11.8592 21.545 12.7122 19.5883 12.4959C19.5883 13.3194 19.5883 14.143 19.5883 14.9665C19.2206 14.9665 18.853 14.9665 18.4854 14.9665C18.4854 12.9959 18.4854 11.0253 18.4854 9.05472ZM19.5883 9.93707C19.8384 9.93339 20.0884 9.93707 20.3383 9.9481C20.5816 9.94634 20.7544 10.0529 20.8567 10.268C21.0936 11.329 20.6708 11.7775 19.5883 11.6135C19.5883 11.0547 19.5883 10.4959 19.5883 9.93707Z" fill="white"/>
<path opacity="0.981" fill-rule="evenodd" clip-rule="evenodd" d="M22.5883 9.05471C23.3683 9.04472 24.1478 9.05575 24.9265 9.0878C25.6291 9.19527 26.0003 9.60336 26.0405 10.3121C26.087 10.7612 25.9988 11.1803 25.7758 11.5694C25.6282 11.748 25.4407 11.862 25.2133 11.9113C25.6533 11.9912 25.907 12.2522 25.9743 12.6944C25.9763 13.2248 25.9983 13.7542 26.0405 14.2827C26.0539 14.4019 26.076 14.5195 26.1066 14.6356C26.1263 14.7117 26.1631 14.7779 26.2169 14.8341C26.228 14.8776 26.2315 14.9218 26.228 14.9665C25.8232 14.9738 25.4188 14.9665 25.0147 14.9444C24.9735 14.8153 24.9477 14.683 24.9375 14.5474C24.9128 14.0845 24.898 13.6213 24.8934 13.1577C24.9005 12.7239 24.6909 12.4849 24.2647 12.4407C24.0737 12.4297 23.8824 12.426 23.6912 12.4297C23.6912 13.2753 23.6912 14.1209 23.6912 14.9665C23.3235 14.9665 22.956 14.9665 22.5883 14.9665C22.5883 12.9959 22.5883 11.0253 22.5883 9.05471ZM23.6912 9.93706C23.9341 9.93338 24.1767 9.93706 24.4191 9.94809C24.6102 9.96075 24.7463 10.0527 24.8272 10.2238C24.9294 10.5397 24.9294 10.8559 24.8272 11.1724C24.7392 11.3855 24.5811 11.5069 24.353 11.5363C24.1326 11.5474 23.912 11.551 23.6912 11.5474C23.6912 11.0106 23.6912 10.4738 23.6912 9.93706Z" fill="white"/>
<path opacity="0.972" fill-rule="evenodd" clip-rule="evenodd" d="M26.9117 9.05469C27.2795 9.05469 27.647 9.05469 28.0147 9.05469C28.0147 11.0253 28.0147 12.9959 28.0147 14.9665C27.647 14.9665 27.2795 14.9665 26.9117 14.9665C26.9117 12.9959 26.9117 11.0253 26.9117 9.05469Z" fill="white"/>
<path opacity="0.982" fill-rule="evenodd" clip-rule="evenodd" d="M28.8529 9.05473C29.5663 9.05104 30.2794 9.05473 30.9926 9.06576C31.6195 9.12642 31.9835 9.46833 32.0845 10.0915C32.1432 10.4718 32.1211 10.8468 32.0183 11.2165C31.918 11.4823 31.7378 11.6735 31.4779 11.79C31.8701 11.8917 32.109 12.1417 32.1948 12.54C32.259 12.9432 32.2663 13.3476 32.2169 13.7533C32.1591 14.0454 32.0413 14.3102 31.8639 14.5474C31.629 14.799 31.3385 14.935 30.9926 14.9555C30.2794 14.9665 29.5663 14.9702 28.8529 14.9665C28.8529 12.9959 28.8529 11.0253 28.8529 9.05473ZM29.9558 9.93708C30.1619 9.93342 30.3677 9.93708 30.5735 9.94811C30.855 9.97956 30.9983 10.1377 31.0036 10.4224C31.0407 10.7056 31.0039 10.9776 30.8933 11.2386C30.8122 11.3251 30.7129 11.3802 30.5956 11.404C30.3831 11.4314 30.17 11.4425 29.9558 11.4371C29.9558 10.9371 29.9558 10.4371 29.9558 9.93708ZM29.9558 12.3194C30.1619 12.3158 30.3677 12.3194 30.5735 12.3305C30.9006 12.3636 31.0808 12.5437 31.1139 12.8709C31.1333 13.122 31.1261 13.372 31.0919 13.6209C31.0334 13.9021 30.8605 14.0528 30.5735 14.0731C30.3677 14.0841 30.1619 14.0878 29.9558 14.0841C29.9558 13.4959 29.9558 12.9077 29.9558 12.3194Z" fill="white"/>
<path opacity="0.978" fill-rule="evenodd" clip-rule="evenodd" d="M36.0001 9.05469C36.0001 9.3488 36.0001 9.64293 36.0001 9.93704C35.3531 9.93704 34.7059 9.93704 34.0589 9.93704C34.0589 10.4223 34.0589 10.9076 34.0589 11.3929C34.6545 11.3929 35.2501 11.3929 35.8456 11.3929C35.8456 11.687 35.8456 11.9812 35.8456 12.2753C35.2501 12.2753 34.6545 12.2753 34.0589 12.2753C34.0589 12.8782 34.0589 13.4812 34.0589 14.0841C34.7059 14.0841 35.3531 14.0841 36.0001 14.0841C36.0001 14.3782 36.0001 14.6723 36.0001 14.9665C34.9853 14.9665 33.9706 14.9665 32.9559 14.9665C32.9559 12.9959 32.9559 11.0253 32.9559 9.05469C33.9706 9.05469 34.9853 9.05469 36.0001 9.05469Z" fill="white"/>
<path opacity="0.981" fill-rule="evenodd" clip-rule="evenodd" d="M15.8162 8.90029C16.2492 8.87432 16.6537 8.96622 17.0295 9.17602C17.3955 9.46316 17.5903 9.84182 17.614 10.3121C17.625 10.4957 17.6287 10.6796 17.625 10.8635C17.2794 10.8635 16.9339 10.8635 16.5883 10.8635C16.5903 10.6156 16.5572 10.3729 16.489 10.1356C16.3285 9.85872 16.0895 9.75945 15.7721 9.83779C15.4692 9.92445 15.3406 10.1266 15.3861 10.4444C15.4074 10.6305 15.4846 10.7886 15.6177 10.9187C15.9336 11.1502 16.2571 11.3707 16.5883 11.5804C16.9273 11.809 17.2324 12.0774 17.5037 12.3856C17.769 12.83 17.8498 13.3079 17.7464 13.8194C17.5713 14.5752 17.0971 14.998 16.3236 15.0878C15.8067 15.161 15.3214 15.0728 14.8677 14.8231C14.5007 14.5267 14.2985 14.1406 14.2611 13.665C14.25 13.4004 14.2464 13.1357 14.25 12.8709C14.6103 12.8709 14.9706 12.8709 15.3309 12.8709C15.3184 13.1601 15.3368 13.4468 15.3861 13.7312C15.4786 14.044 15.6882 14.1984 16.0147 14.1944C16.3758 14.1973 16.5853 14.0209 16.6434 13.665C16.683 13.392 16.6169 13.1493 16.4449 12.9371C16.2929 12.8005 16.1348 12.6718 15.9706 12.551C15.6128 12.3255 15.2672 12.0829 14.9339 11.8231C14.2908 11.262 14.1033 10.5745 14.3714 9.76058C14.5556 9.34859 14.8681 9.08756 15.3089 8.97749C15.48 8.94323 15.6491 8.91749 15.8162 8.90029Z" fill="white"/>
</svg>
