<svg width="36" height="24" viewBox="0 0 36 24" fill="none" xmlns="http://www.w3.org/2000/svg">
<g style="mix-blend-mode:luminosity">
<path d="M32.1208 14.6723C32.6412 13.302 32.9868 11.8773 33.4368 10.4849C33.5731 10.0632 33.6696 9.63679 33.6393 9.18994C34.0332 9.20179 34.4274 9.17209 34.8217 9.21514C35.4477 9.28339 35.977 9.85864 35.9991 10.488C36.0103 10.8084 35.9143 11.1003 35.8236 11.3969C35.6617 11.9259 35.4855 12.4512 35.3433 12.9858C35.1483 13.7172 34.6695 14.1819 34.0057 14.4854C33.7107 14.6205 33.3988 14.6879 33.0712 14.6801C32.7544 14.6723 32.4375 14.6745 32.1208 14.6723Z" fill="white"/>
<path d="M18.75 9.18994L17.25 14.6801L18 14.6797L19.5 9.24993V9.18994H18.75Z" fill="white"/>
<path fill-rule="evenodd" clip-rule="evenodd" d="M17.6857 14.6478L17.6867 14.6779C17.7242 14.9655 17.7641 15.2535 17.8898 15.5182C18.3027 16.3926 19.0191 16.8451 19.9626 16.8523C21.9585 16.8672 23.9545 16.8645 25.9504 16.8618C26.8211 16.8606 27.6917 16.8594 28.5623 16.8597C29.0714 16.8597 29.5578 16.7568 30.0242 16.5565C30.9353 16.1652 31.6386 15.541 32.1212 14.6721C32.2484 14.5528 32.2962 14.394 32.3433 14.2371C32.351 14.2117 32.3586 14.1863 32.3666 14.1612C32.5947 13.4409 32.8123 12.7173 33.0299 11.9937L33.03 11.9933C33.1811 11.4908 33.3323 10.9882 33.4869 10.4868C33.5958 10.1338 33.6798 9.77695 33.6987 9.40675C33.7028 9.3271 33.7007 9.25075 33.6395 9.18955L33.6353 9.16689C33.632 9.149 33.6286 9.13114 33.627 9.1132C33.575 8.5084 33.3404 7.99188 32.8707 7.59918C32.3963 7.20243 31.836 7.00717 31.2245 7.00561C29.5074 7.00076 27.7902 7.00094 26.0732 7.00113C24.9273 7.00125 23.7813 7.00138 22.6355 7C22.1451 6.99939 21.6797 7.10044 21.2355 7.30006C20.3523 7.69711 19.6929 8.33185 19.2459 9.18925L19.2292 9.23113C19.2275 9.21736 19.2232 9.2034 19.2153 9.18926L18.9506 9.18955L10.8403 9.1897L2.73006 9.18985C1.83071 9.18985 1.03382 9.7591 0.771929 10.596C0.610099 11.1129 0.452392 11.6313 0.294676 12.1496L0.294627 12.1498L0.294625 12.1498C0.218976 12.3985 0.143326 12.6471 0.0672169 12.8956C-0.00253807 13.123 -0.0212224 13.3569 0.0264227 13.5877C0.169669 14.2795 0.668543 14.6776 1.39101 14.6776C6.03966 14.6786 10.6881 14.6783 15.3367 14.678H15.3368H15.3369L17.6582 14.6779C17.67 14.6687 17.679 14.6586 17.6857 14.6478ZM17.6857 14.6478C17.6724 14.136 17.8247 13.6592 17.9769 13.1826C18.0057 13.0924 18.0346 13.0021 18.0623 12.9117C18.2135 12.4177 18.3655 11.9239 18.5175 11.4301L18.5176 11.4299C18.6941 10.8565 18.8707 10.283 19.046 9.7093C19.0851 9.5815 19.1357 9.45869 19.1863 9.33582C19.2007 9.30096 19.2151 9.26611 19.2292 9.23113C19.2335 9.26739 19.2195 9.30244 19.2058 9.33681L19.2051 9.33865C19.042 9.74429 18.9186 10.1628 18.7952 10.5812L18.7952 10.5813L18.7951 10.5814L18.7951 10.5816C18.7408 10.7655 18.6866 10.9495 18.629 11.1324C18.3601 11.9839 18.1011 12.8386 17.8442 13.6938C17.7632 13.9636 17.7136 14.2387 17.7075 14.521L17.7071 14.5387C17.7065 14.5767 17.7058 14.6154 17.6857 14.6478ZM28.1827 13.958H28.1826C27.9782 13.9572 27.7738 13.9563 27.5696 13.9607C27.4563 13.9633 27.4388 13.9304 27.4716 13.826C27.8721 12.554 28.2698 11.2814 28.6659 10.0079C28.6899 9.93084 28.7258 9.90279 28.8078 9.90339C29.3838 9.90684 29.9603 9.91029 30.5364 9.90189C30.6829 9.8996 30.6611 9.96536 30.6368 10.0387L30.6367 10.0387C30.634 10.047 30.6312 10.0554 30.6287 10.0637C30.3464 10.9774 30.0632 11.8909 29.78 12.8042C29.7464 12.9126 29.7123 13.0208 29.6782 13.129C29.6037 13.3657 29.5291 13.6025 29.46 13.8407C29.4329 13.9342 29.3924 13.9627 29.2982 13.9607C29.0893 13.9565 28.8802 13.9573 28.6711 13.9581C28.5894 13.9583 28.5077 13.9586 28.4261 13.9586C28.345 13.9586 28.2638 13.9583 28.1827 13.958ZM30.3209 7.90926C30.4399 7.90926 30.5591 7.90794 30.6782 7.90662C30.9437 7.90369 31.2092 7.90075 31.4741 7.91238C32.1147 7.94046 32.6216 8.35965 32.766 8.9623C32.8352 9.25105 32.8131 9.54025 32.7279 9.82195C32.6131 10.2021 32.5007 10.5831 32.3883 10.9642L32.3883 10.9642C32.1024 11.9333 31.8164 12.9025 31.4909 13.858C31.0875 15.0414 30.2018 15.7263 28.9751 15.9397C28.7512 15.9786 28.519 15.9696 28.2868 15.9606C28.1839 15.9566 28.0809 15.9526 27.9788 15.9528C27.8638 15.9529 27.7487 15.9536 27.6337 15.9543H27.6337H27.6336C27.3381 15.9561 27.0426 15.9578 26.7474 15.9508C25.7748 15.9282 25.1829 15.1474 25.3546 14.2233C25.4523 13.6977 25.6193 13.1902 25.7862 12.6826L25.7863 12.6824C25.87 12.4278 25.9538 12.1733 26.0288 11.9164C26.1645 11.4513 26.3094 10.9889 26.4544 10.5264L26.4544 10.5264C26.5137 10.3372 26.5729 10.1481 26.6316 9.95875C27 8.76955 28.1417 7.91518 29.3858 7.90053C29.6001 7.89795 29.8146 7.89862 30.029 7.89929L30.029 7.89929C30.1263 7.89959 30.2236 7.8999 30.3209 7.8999V7.90926ZM5.65904 13.5805H5.65908H5.65911H5.65914H5.65918H5.65921H5.65924C5.7607 13.5807 5.86215 13.581 5.96358 13.581L6.21877 13.5809C6.50242 13.5807 6.78614 13.5805 7.07023 13.5822C7.13635 13.5822 7.18626 13.5793 7.2109 13.4983C7.35874 13.0143 7.51033 12.5311 7.66536 12.0492C7.69747 11.9497 7.66005 11.9316 7.57272 11.9328C7.38058 11.9359 7.18813 11.9388 6.99631 11.9316C6.90679 11.9284 6.86625 11.961 6.84192 12.0436C6.81604 12.131 6.78785 12.2178 6.75966 12.3046C6.72397 12.4145 6.68828 12.5244 6.65727 12.6355C6.63106 12.7282 6.58491 12.7591 6.49164 12.7554C6.38101 12.751 6.27009 12.7519 6.15918 12.7527C6.10904 12.7531 6.05891 12.7535 6.0088 12.7534C5.91541 12.7533 5.86886 12.7532 5.85243 12.7309C5.83611 12.7088 5.84953 12.6647 5.87629 12.5769L5.87656 12.576C5.93177 12.395 5.98681 12.2139 6.04186 12.0329L6.04186 12.0328L6.04187 12.0328L6.04188 12.0328L6.04189 12.0328L6.04189 12.0327L6.0419 12.0327C6.20329 11.5019 6.36466 10.9712 6.53001 10.4416C6.56463 10.3303 6.55153 10.2919 6.42927 10.2963C6.24243 10.3029 6.05529 10.3024 5.86845 10.296C5.77987 10.2928 5.73901 10.3258 5.71374 10.4079C5.4009 11.4253 5.08713 12.4431 4.76898 13.459C4.73748 13.5597 4.75338 13.5841 4.85725 13.5828C5.12443 13.5794 5.39177 13.58 5.65904 13.5805ZM11.8257 13.5798C11.7949 13.5798 11.7642 13.5795 11.7334 13.5792C11.6602 13.5785 11.587 13.5779 11.5141 13.581C11.4252 13.5844 11.4049 13.5501 11.4311 13.4683C11.4548 13.3943 11.477 13.3199 11.4992 13.2454C11.5346 13.1266 11.57 13.0078 11.6114 12.8911C11.6441 12.7984 11.626 12.7641 11.5315 12.7435C11.1548 12.6609 10.9636 12.3739 11.0662 12.0052C11.1656 11.6477 11.2749 11.2929 11.3842 10.9382C11.4409 10.7544 11.4975 10.5706 11.5528 10.3864C11.5727 10.3197 11.6101 10.2985 11.6772 10.2997L11.761 10.3013C11.9254 10.3047 12.0902 10.308 12.2539 10.2979C12.3993 10.2888 12.3862 10.3546 12.3559 10.4523C12.3062 10.6128 12.2573 10.7737 12.2084 10.9346C12.1205 11.2237 12.0326 11.5128 11.9398 11.8003C11.9012 11.92 11.9323 11.9428 12.0453 11.9385C12.2321 11.9316 12.4195 11.9307 12.6064 11.9391C12.7031 11.9434 12.7402 11.907 12.7667 11.8185C12.8298 11.6084 12.8949 11.3989 12.96 11.1894L12.96 11.1894L12.96 11.1893L12.96 11.1893L12.96 11.1892L12.96 11.1892L12.96 11.1891L12.9601 11.1891L12.9601 11.1891L12.9601 11.189L12.9601 11.189L12.9601 11.189L12.9601 11.189L12.9601 11.1889L12.9601 11.1889C13.0392 10.9344 13.1183 10.68 13.1937 10.4245C13.2205 10.3335 13.2542 10.2957 13.3509 10.2988C13.5377 10.3053 13.7252 10.3047 13.912 10.2991C14.0106 10.296 14.0305 10.3365 14.0047 10.4199C13.9552 10.5783 13.9077 10.7375 13.8602 10.8968L13.8602 10.8968L13.8602 10.8968L13.8602 10.8969L13.8601 10.8969L13.8601 10.8969L13.8601 10.897L13.8601 10.897C13.7493 11.2682 13.6385 11.6394 13.5034 12.0018C13.3468 12.4216 13.0237 12.6834 12.563 12.7407C12.4854 12.7504 12.4613 12.7915 12.4423 12.858C12.4204 12.9341 12.3961 13.0097 12.3717 13.0853L12.3717 13.0853L12.3717 13.0853L12.3717 13.0853L12.3717 13.0853L12.3717 13.0853L12.3717 13.0853L12.3717 13.0854C12.3357 13.1969 12.2998 13.3085 12.2717 13.422C12.2415 13.5436 12.1903 13.6006 12.0596 13.5819C12.0066 13.5742 11.9524 13.5761 11.8983 13.578H11.8982C11.874 13.5789 11.8498 13.5798 11.8257 13.5798ZM9.63692 13.5759H9.63694H9.63696H9.63698H9.637H9.63702H9.63704H9.63706H9.63708C9.66442 13.5765 9.69174 13.5772 9.71898 13.5772C9.74924 13.5772 9.77953 13.577 9.80983 13.5769H9.80986H9.80989H9.80992H9.80996H9.80999H9.81H9.81002H9.81004H9.81006H9.81007H9.81009H9.81011H9.81012C9.87842 13.5765 9.94678 13.5761 10.015 13.5777C10.0845 13.5792 10.1241 13.5633 10.1482 13.4841C10.2473 13.1564 10.3487 12.8294 10.45 12.5025L10.4501 12.5023C10.5967 12.0292 10.7433 11.5562 10.8833 11.0811C11.0156 10.6326 10.7598 10.3078 10.2916 10.3014C10.0318 10.2976 9.772 10.2991 9.51219 10.3011C9.01002 10.3048 8.54683 10.636 8.39524 11.1175C8.2591 11.5496 8.12667 11.983 7.99423 12.4164L7.99417 12.4166L7.99412 12.4167L7.99406 12.4169L7.99401 12.4171L7.99396 12.4173L7.9939 12.4174L7.99385 12.4176L7.99379 12.4178L7.99377 12.4178L7.99376 12.4179L7.99374 12.4179L7.99372 12.418L7.99371 12.4181L7.99369 12.4181L7.99367 12.4182L7.99365 12.4182C7.889 12.7607 7.78434 13.1032 7.67785 13.4451C7.64292 13.5576 7.67817 13.5813 7.78234 13.5786C7.96917 13.5735 8.15664 13.5729 8.34346 13.5789C8.43298 13.582 8.47072 13.5474 8.49537 13.4638C8.54263 13.3038 8.59349 13.1447 8.64434 12.9857L8.64436 12.9856C8.67705 12.8834 8.70973 12.7812 8.74146 12.6787C8.76547 12.6007 8.80228 12.5586 8.89429 12.562C9.08643 12.5689 9.27919 12.5701 9.47101 12.562C9.59952 12.5568 9.60451 12.6082 9.57051 12.7089C9.53417 12.8167 9.5 12.9254 9.46583 13.0341L9.46582 13.0341L9.46581 13.0341C9.42549 13.1624 9.38515 13.2906 9.34126 13.4176C9.30102 13.5349 9.31194 13.5928 9.45417 13.5789C9.5145 13.5728 9.57573 13.5744 9.63692 13.5759ZM3.26074 12.7376C3.3187 12.7441 3.37486 12.7504 3.42339 12.7447L3.53891 12.745C3.60383 12.7452 3.66074 12.7454 3.71752 12.7447C4.23061 12.7386 4.58836 12.4771 4.78581 12.0258C4.92772 11.7015 5.02161 11.353 5.10894 11.008C5.20345 10.6344 4.95267 10.3138 4.56715 10.3057C4.22074 10.2984 3.8742 10.2991 3.5277 10.2998H3.52768H3.52767H3.52766H3.52765H3.52764H3.52763H3.52762H3.52761H3.5276C3.33938 10.3002 3.15118 10.3006 2.96301 10.2997C2.8894 10.2994 2.85603 10.3222 2.83513 10.3989C2.79586 10.5439 2.7503 10.6873 2.70475 10.8307L2.70475 10.8307L2.70475 10.8307L2.70475 10.8307L2.70475 10.8307L2.70474 10.8307L2.70474 10.8307L2.70474 10.8307L2.70474 10.8307L2.70474 10.8307L2.70474 10.8307L2.70474 10.8307L2.70474 10.8307L2.70474 10.8307L2.70474 10.8307L2.70474 10.8307L2.70474 10.8307C2.68299 10.8992 2.66125 10.9676 2.64019 11.0362C2.57402 11.2516 2.5081 11.4671 2.44218 11.6826L2.44214 11.6827L2.44214 11.6827L2.44213 11.6828L2.44212 11.6828L2.44211 11.6828L2.4421 11.6829L2.44209 11.6829L2.44208 11.6829C2.26473 12.2627 2.08736 12.8425 1.90503 13.4206C1.86198 13.5573 1.89879 13.587 2.02573 13.5783C2.0937 13.5735 2.16212 13.5747 2.23047 13.5759C2.26091 13.5764 2.29135 13.5769 2.32173 13.5769C2.67339 13.5769 2.67358 13.5763 2.78303 13.2404L2.78554 13.2327C2.80098 13.1852 2.81159 13.1331 2.82221 13.0809C2.84654 12.9614 2.87091 12.8416 2.95365 12.777C3.03652 12.7123 3.1518 12.7253 3.26074 12.7376ZM16.7859 11.9406C16.7121 11.9406 16.6396 11.9408 16.568 11.941H16.568H16.5679H16.5679H16.5678H16.5678C16.3939 11.9415 16.2251 11.942 16.0564 11.9394C15.9789 11.9381 15.966 11.9859 15.9525 12.0356L15.9525 12.0356L15.9525 12.0357L15.9525 12.0357L15.9525 12.0357L15.9525 12.0357C15.9502 12.0441 15.9479 12.0527 15.9453 12.061C15.9068 12.1837 15.8678 12.3064 15.8289 12.429C15.7223 12.7645 15.6157 13.1 15.5175 13.4379C15.4822 13.5594 15.4283 13.5894 15.3122 13.5835C15.1678 13.576 15.023 13.5781 14.8784 13.5801H14.8783C14.8411 13.5807 14.8039 13.5812 14.7667 13.5816C14.6896 13.5825 14.6528 13.5744 14.6837 13.4764C14.7519 13.2587 14.817 13.0401 14.8821 12.8215L14.8821 12.8215L14.8821 12.8215L14.8821 12.8214L14.8821 12.8214L14.8821 12.8214L14.8822 12.8213L14.8822 12.8212L14.8822 12.8212L14.8822 12.8211L14.8822 12.821C14.975 12.5095 15.0678 12.198 15.1693 11.8894C15.3172 11.4406 15.7791 11.1216 16.2538 11.115C16.5292 11.1112 16.8046 11.1112 17.08 11.1166C17.4874 11.1241 17.7501 11.4307 17.6472 11.8246C17.5471 12.2076 17.4302 12.5862 17.3133 12.9647L17.3132 12.9649L17.3132 12.965L17.3131 12.9652L17.3131 12.9654L17.313 12.9655C17.2575 13.1451 17.2021 13.3246 17.1484 13.5046C17.1303 13.5648 17.097 13.5832 17.0358 13.5822C16.833 13.5787 16.6303 13.5754 16.4278 13.5832C16.311 13.5876 16.2972 13.5469 16.3287 13.4463C16.439 13.0932 16.5466 12.7392 16.6543 12.3853L16.7376 12.1116C16.7495 12.0724 16.7604 12.0331 16.7724 11.9893L16.7724 11.9892L16.7859 11.9406ZM15.386 10.5122L15.4495 10.3042L15.1833 10.3043C14.9757 10.3045 14.7731 10.3046 14.571 10.3039C14.5049 10.3036 14.492 10.348 14.4783 10.3949L14.4755 10.4044L14.4264 10.5693L14.4264 10.5694C14.3693 10.7615 14.3122 10.9536 14.2506 11.1442C14.2248 11.2242 14.2297 11.2572 14.3239 11.256C14.5722 11.2525 14.8208 11.2531 15.0694 11.256C15.1308 11.2566 15.1657 11.236 15.1836 11.1777C15.2498 10.9583 15.3166 10.7394 15.386 10.5122ZM24.9508 7.90658C24.7778 7.90634 24.6049 7.90611 24.432 7.90611C24.2435 7.90611 24.0549 7.90592 23.8664 7.90574H23.8663H23.8663C23.4571 7.90534 23.0478 7.90494 22.6385 7.90642C21.461 7.91079 20.3223 8.74645 19.9672 9.8677C19.6461 10.882 19.3265 11.8968 19.0068 12.9115L19.0067 12.9119L18.7533 13.7164C18.6597 14.0133 18.5828 14.3109 18.5912 14.6293C18.6093 15.3211 19.1824 15.9234 19.8771 15.9511C20.4088 15.9726 20.9409 15.9686 21.4731 15.9646H21.4731C21.6998 15.9629 21.9265 15.9612 22.1532 15.9615C22.2617 15.9618 22.3734 15.9589 22.4784 15.9355C23.573 15.6925 24.3075 15.0238 24.6711 13.9792C24.8751 13.3937 25.0534 12.7992 25.2317 12.2047C25.327 11.8871 25.4223 11.5695 25.5215 11.2533C25.555 11.1459 25.5389 11.1201 25.4273 11.1204C24.533 11.1238 23.6391 11.1238 22.7451 11.1201C22.6566 11.1198 22.617 11.1481 22.5911 11.2305C22.4442 11.6995 22.2972 12.169 22.14 12.6349C22.0986 12.7579 22.1469 12.7681 22.2429 12.7672C22.3258 12.7664 22.4087 12.7668 22.4915 12.7672H22.4916H22.4916C22.6167 12.7678 22.7418 12.7684 22.8668 12.765C22.9803 12.762 23.0133 12.7894 22.9745 12.9076C22.8737 13.212 22.7775 13.5186 22.694 13.8283C22.6641 13.9393 22.6119 13.9609 22.509 13.96C21.9685 13.9555 21.4279 13.9537 20.8874 13.9606C20.7428 13.9624 20.7269 13.9243 20.7686 13.7922C21.1629 12.5436 21.5517 11.2935 21.9377 10.0423C21.9713 9.93295 22.0241 9.90325 22.1348 9.90355C22.6686 9.90533 23.2024 9.90555 23.7364 9.90577H23.7366C24.4189 9.90604 25.1012 9.90632 25.7835 9.90985C25.9139 9.91045 25.9584 9.8677 25.9946 9.7498C26.168 9.1858 26.3483 8.62405 26.5349 8.06457C26.5806 7.92763 26.5485 7.90206 26.4123 7.9033C25.9252 7.90791 25.438 7.90724 24.9508 7.90658H24.9508Z" fill="white"/>
<path d="M9.66545 11.1062C9.77304 11.1225 9.95177 11.0463 10.0213 11.1408C10.0675 11.2038 9.96737 11.3763 9.92963 11.4989C9.88596 11.6418 9.88721 11.8311 9.77991 11.9123C9.67167 11.9939 9.48984 11.934 9.34011 11.9352C8.97612 11.9384 8.97612 11.9363 9.08093 11.5832C9.10712 11.4945 9.14736 11.4078 9.15953 11.3171C9.18386 11.1339 9.28211 11.0757 9.45552 11.1044C9.51603 11.1147 9.57966 11.1062 9.66545 11.1062Z" fill="white"/>
<path d="M3.58438 11.9399C3.47646 11.9237 3.29743 12.0005 3.22725 11.9084C3.17953 11.8457 3.27559 11.6708 3.31302 11.548C3.35638 11.4059 3.36699 11.221 3.46336 11.1374C3.56349 11.0504 3.75094 11.1134 3.90034 11.1122C4.27183 11.1088 4.27183 11.1109 4.16359 11.4602C4.15455 11.4899 4.14613 11.5198 4.13677 11.5492C4.01512 11.9399 4.01512 11.9399 3.58438 11.9399Z" fill="white"/>
</g>
</svg>
