<svg width="36" height="24" viewBox="0 0 36 24" fill="none" xmlns="http://www.w3.org/2000/svg">
<path d="M34.4528 8.29438C35.2808 8.29438 36 7.58615 36 6.74717C36 5.91908 35.2917 5.19995 34.4528 5.19995C33.6029 5.19995 32.8947 5.90818 32.8947 6.74717C32.8947 7.58615 33.6029 8.29438 34.4528 8.29438Z" fill="white"/>
<path d="M30.4976 15.8561H32.7639V9.068H30.4976V15.8561ZM25.8232 13.568C25.0387 13.568 24.6247 12.936 24.6247 12.1842C24.6247 11.4542 25.0387 10.8549 25.8232 10.8549C26.2591 10.8549 26.7167 11.0293 27.0545 11.3888V13.0232C26.7167 13.3719 26.2591 13.568 25.8232 13.568ZM25.8014 18.8198C28.2094 18.8198 29.3317 17.6431 29.3317 15.6382V9.068H27.0654V9.44936C26.6513 9.068 26.052 8.85009 25.3765 8.85009C23.5242 8.85009 22.3039 10.2339 22.3039 12.1733C22.3039 14.1346 23.5242 15.5511 25.3765 15.5511C26.052 15.5511 26.6513 15.2787 27.0654 14.9518V15.6382C27.0654 16.3791 26.6404 16.7605 25.6598 16.7605C24.8753 16.7605 23.8184 16.4554 22.914 15.8234V18.0244C23.4915 18.3949 24.6465 18.8198 25.8014 18.8198ZM17.27 16.0741C18.1089 16.0741 18.6864 15.7581 19.1005 15.3549V15.8452H21.3341V9.068H19.0678V13.4046C18.8063 13.775 18.4358 14.0038 18.0109 14.0038C17.4661 14.0038 17.0956 13.6334 17.0956 13.045V9.068H14.8293V13.6116C14.8184 15.2024 16.006 16.0741 17.27 16.0741ZM7.52905 15.8561H13.7942V13.9603H10.5581L13.7179 10.8876V9.068H7.58353V10.9203H10.6889L7.52905 13.9929V15.8561ZM0 15.8561H6.70097V13.6552H2.33172V12.108H6.27603V9.98326H2.33172V8.37067H6.70097V6.24597H0V15.8561Z" fill="white"/>
</svg>
