<svg width="36" height="24" viewBox="0 0 36 24" fill="none" xmlns="http://www.w3.org/2000/svg">
<path d="M21.6761 13.5982H21.5156V9.89095C21.5608 9.89095 21.6086 9.88483 21.6533 9.89383C21.6734 9.89791 21.6927 9.92959 21.7035 9.95299C22.0845 10.7785 22.4644 11.6045 22.8447 12.4306C22.9814 12.7276 23.1183 13.0245 23.2552 13.3214C23.2647 13.3421 23.276 13.3622 23.2925 13.3946C23.3633 13.2406 23.4286 13.0984 23.494 12.9563C23.9471 11.9721 24.4001 10.988 24.8531 10.0036C24.9118 9.87619 24.9113 9.87595 25.0608 9.89827V13.598H24.9008V10.3119C24.8951 10.3107 24.8896 10.3095 24.8841 10.3083C24.81 10.4696 24.736 10.6309 24.662 10.7921C24.2427 11.7052 23.8228 12.6179 23.4058 13.532C23.379 13.5908 23.347 13.6041 23.2876 13.6046C23.2287 13.6052 23.1999 13.5855 23.1756 13.5325C22.6936 12.4802 22.2096 11.4287 21.7262 10.3771C21.7145 10.3517 21.7028 10.3265 21.6761 10.3037V13.5982Z" fill="white"/>
<path d="M21.6625 10.2742L21.685 10.2935C21.7144 10.3188 21.7272 10.3466 21.7385 10.3715L21.8958 10.7136C22.3199 11.6354 22.7582 12.5887 23.188 13.5269C23.21 13.5751 23.2339 13.591 23.2852 13.591H23.2867C23.3406 13.5905 23.3686 13.5812 23.3934 13.5264C23.733 12.7817 24.0803 12.0256 24.4163 11.2944L24.8762 10.2929L24.9144 10.3008V13.5844H25.0472V9.90996C24.9196 9.891 24.9184 9.89448 24.866 10.0081C24.5435 10.7092 24.2213 11.4091 23.8992 12.1088L23.2931 13.4256L23.265 13.3711C23.2561 13.3543 23.2492 13.3408 23.2429 13.3271C23.1059 13.0303 22.9691 12.7333 22.8323 12.4364L22.613 11.9597C22.3058 11.2926 21.9989 10.6254 21.6911 9.95868C21.6781 9.93048 21.6614 9.90924 21.6505 9.90708C21.62 9.9012 21.5874 9.90228 21.5557 9.9036C21.5468 9.90396 21.5378 9.9042 21.5291 9.90444V13.5846H21.6625V10.2742ZM23.2852 13.6182C23.223 13.6182 23.1899 13.5962 23.1632 13.5382C22.7335 12.6 22.295 11.6467 21.8711 10.7249L21.7139 10.3826C21.707 10.368 21.7001 10.353 21.6898 10.3385V13.6118H21.5018V9.87744H21.5154C21.5285 9.87744 21.5414 9.87684 21.5548 9.87648C21.588 9.87504 21.6226 9.87384 21.6558 9.88044C21.6838 9.88608 21.7054 9.92472 21.7157 9.94728C22.0236 10.614 22.3307 11.2812 22.6376 11.9484L22.857 12.4249C22.9938 12.7218 23.1305 13.0188 23.2675 13.3157C23.2738 13.3291 23.2806 13.3421 23.2891 13.3585L23.2918 13.3637L23.8745 12.0974C24.1966 11.3977 24.5188 10.6978 24.8407 9.99792C24.9018 9.86484 24.9085 9.86184 25.063 9.88476L25.0745 9.88656V13.6116H24.8872V10.3343L24.4409 11.3057C24.1051 12.037 23.7577 12.7931 23.4181 13.5377C23.3879 13.6044 23.3473 13.6177 23.2877 13.6182H23.2852Z" fill="white"/>
<path d="M14.8294 10.0422V11.7278C14.8372 11.7319 14.8415 11.7357 14.8456 11.7357C15.1463 11.7321 15.4484 11.7447 15.7473 11.7197C16.0373 11.6953 16.277 11.5548 16.4144 11.2856C16.6684 10.7881 16.4032 10.2103 15.8625 10.0749C15.7935 10.0577 15.7215 10.0446 15.6507 10.0436C15.379 10.04 15.1072 10.0422 14.8294 10.0422ZM14.6662 9.87741C15.0685 9.89121 15.4665 9.87153 15.8542 9.92541C16.5265 10.0189 16.8797 10.7346 16.5759 11.3335C16.4417 11.5979 16.2091 11.7401 15.9352 11.8256C15.9039 11.8355 15.8721 11.844 15.8421 11.8527C16.4548 12.2234 16.7228 12.8097 16.8769 13.4694C16.8851 13.5042 16.8908 13.5396 16.8969 13.5747C16.8979 13.5812 16.8955 13.5884 16.8938 13.6023C16.8628 13.6023 16.832 13.5993 16.8019 13.6029C16.7545 13.6088 16.7363 13.5899 16.7266 13.5433C16.6754 13.2997 16.6 13.0637 16.4915 12.839C16.3472 12.5407 16.159 12.2755 15.8957 12.0697C15.7346 11.9439 15.5541 11.8747 15.3452 11.8821C15.176 11.8883 15.0063 11.8835 14.827 11.8835V13.5984H14.6662V9.87741Z" fill="white"/>
<path d="M14.843 11.7199C14.843 11.7199 14.8435 11.7203 14.8439 11.7203C14.8453 11.7212 14.8463 11.7221 14.8473 11.7224C14.9358 11.721 15.0264 11.7213 15.117 11.7218C15.3239 11.7227 15.5376 11.7236 15.7463 11.706C16.0457 11.6809 16.2726 11.5333 16.4022 11.2794C16.521 11.0468 16.5293 10.7815 16.4247 10.5516C16.3199 10.3208 16.1137 10.1519 15.8593 10.0881C15.7779 10.0679 15.7117 10.058 15.6505 10.0572C15.4532 10.0547 15.2604 10.0549 15.056 10.0554C14.9853 10.0556 14.9144 10.0557 14.843 10.0557V11.7199ZM15.254 11.7494C15.2081 11.7494 15.1623 11.7492 15.1169 11.7491C15.0265 11.7486 14.9359 11.7482 14.8457 11.7493C14.8392 11.7493 14.8344 11.7464 14.8298 11.7437C14.828 11.7425 14.8259 11.7413 14.8233 11.7401L14.8158 11.7362V10.0286H14.8295C14.9054 10.0286 14.9808 10.0284 15.0559 10.0283C15.2511 10.0277 15.4532 10.0274 15.6509 10.0299C15.7142 10.0309 15.7825 10.041 15.8658 10.0619C16.1285 10.1275 16.3411 10.302 16.4495 10.5403C16.5575 10.7778 16.5491 11.0516 16.4264 11.2917C16.2923 11.5547 16.0579 11.7072 15.7485 11.7332C15.5847 11.7469 15.4179 11.7494 15.254 11.7494ZM15.3765 11.8681C15.5669 11.8681 15.7398 11.9307 15.9041 12.059C16.1478 12.2495 16.3439 12.5027 16.5037 12.8331C16.6077 13.0484 16.685 13.2799 16.7399 13.5405C16.7487 13.5833 16.7623 13.5942 16.8003 13.5895C16.8219 13.5867 16.844 13.5876 16.8653 13.5882C16.8708 13.5883 16.8764 13.5885 16.8821 13.5887L16.8823 13.5873C16.8831 13.5827 16.8837 13.5791 16.8834 13.5771L16.8806 13.5614C16.8757 13.532 16.8705 13.5017 16.8637 13.4724C16.6782 12.6786 16.3609 12.1825 15.8352 11.8644L15.8087 11.8483L15.8669 11.8315C15.8881 11.8255 15.9097 11.8194 15.9312 11.8127C16.2443 11.7149 16.4454 11.5607 16.5637 11.3274C16.7096 11.04 16.7095 10.7148 16.5633 10.4351C16.421 10.1628 16.1619 9.98193 15.8525 9.93897C15.5864 9.90201 15.3093 9.89961 15.0411 9.89745C14.9229 9.89649 14.8009 9.89541 14.6798 9.89157V13.5848H14.8135V11.8699H14.8271C14.8831 11.8699 14.9382 11.8703 14.9925 11.8707C15.1139 11.8717 15.2286 11.8729 15.3449 11.8687C15.3555 11.8682 15.366 11.8681 15.3765 11.8681ZM16.7862 13.6176C16.7454 13.6176 16.7237 13.5959 16.7132 13.5461C16.659 13.2876 16.5823 13.0581 16.4792 12.845C16.3212 12.5184 16.1276 12.2683 15.8873 12.0805C15.7193 11.9491 15.5425 11.8874 15.3457 11.8958C15.2291 11.9 15.1142 11.8991 14.9923 11.898C14.9424 11.8975 14.8919 11.8971 14.8406 11.897V13.6119H14.6526V9.86337L14.6666 9.86397C14.792 9.86817 14.9189 9.86925 15.0414 9.87021C15.3104 9.87249 15.5885 9.87477 15.8561 9.91197C16.1744 9.95625 16.4409 10.1424 16.5873 10.4225C16.7376 10.71 16.7378 11.0443 16.5879 11.3397C16.4659 11.5799 16.2599 11.7385 15.9393 11.8386C15.918 11.8453 15.8965 11.8513 15.8755 11.8573C16.3925 12.1801 16.7059 12.6779 16.8902 13.4661C16.8972 13.4963 16.9025 13.5271 16.9075 13.5569L16.9103 13.5725C16.9112 13.5791 16.9103 13.5849 16.9091 13.5919C16.9086 13.5953 16.9079 13.5992 16.9073 13.604L16.9057 13.6159H16.8938C16.884 13.6159 16.8741 13.6155 16.8644 13.6152C16.8433 13.6147 16.8233 13.6142 16.8036 13.6164C16.7975 13.6172 16.7916 13.6176 16.7862 13.6176Z" fill="white"/>
<path d="M10.0797 11.6605V9.89528H10.2375V13.5979C10.2154 13.5996 10.1968 13.6017 10.1782 13.6021C10.1477 13.6028 10.1173 13.6023 10.0804 13.6023V11.8161H7.54051V13.597H7.37683V9.89468H7.53607V11.6605H10.0797Z" fill="white"/>
<path d="M10.094 13.5887L10.1127 13.5889C10.1359 13.5887 10.1568 13.5891 10.1779 13.5885C10.1906 13.5881 10.2033 13.5871 10.2171 13.586L10.224 13.5854V9.90882H10.0933V11.674H7.5224V9.90822H7.3904V13.5835H7.52684V11.8027H10.094V13.5887ZM10.1402 13.6162C10.1313 13.6162 10.1221 13.6161 10.1126 13.6161L10.0668 13.616V11.8298H7.55408V13.6107H7.36316V9.8811H7.54964V11.6468H10.0662V9.8817H10.2512V13.6106L10.2195 13.613C10.205 13.6142 10.1918 13.6154 10.1785 13.6157C10.166 13.6161 10.1533 13.6162 10.1402 13.6162Z" fill="white"/>
<path d="M28.0519 12.1661C27.7916 11.4797 27.535 10.8027 27.2723 10.1099C27.0068 10.8049 26.748 11.4827 26.4869 12.1661H28.0519ZM28.7802 13.5976C28.601 13.6125 28.6013 13.6124 28.5426 13.4585C28.4064 13.102 28.2693 12.7459 28.1348 12.3886C28.1155 12.3373 28.0928 12.3159 28.0334 12.3163C27.522 12.3193 27.0106 12.3188 26.4993 12.3167C26.4473 12.3165 26.4251 12.3337 26.4074 12.3812C26.2676 12.7565 26.1227 13.1302 25.9849 13.5063C25.9577 13.5812 25.9234 13.6183 25.8426 13.6027C25.8202 13.5985 25.7966 13.6003 25.7648 13.5988C25.7755 13.5677 25.7831 13.5434 25.7922 13.5196C26.2451 12.3344 26.6993 11.1496 27.1487 9.96307C27.1801 9.88015 27.2322 9.89479 27.292 9.88915C27.352 9.88363 27.3731 9.90967 27.3929 9.96175C27.8428 11.143 28.2946 12.3236 28.746 13.5043C28.757 13.5329 28.7673 13.5619 28.7802 13.5976Z" fill="white"/>
<path d="M26.5066 12.1526H28.0324L27.2723 10.1481L26.5066 12.1526ZM28.0716 12.1798H26.4671L26.4741 12.1613L27.2723 10.0718L27.285 10.1051L28.0716 12.1798ZM25.7837 13.5858C25.7874 13.586 25.7909 13.586 25.7944 13.586C25.813 13.5861 25.8291 13.5863 25.8451 13.5893C25.9123 13.6024 25.9438 13.58 25.9722 13.5017C26.053 13.2812 26.1376 13.0577 26.2194 12.8418C26.2782 12.6868 26.3369 12.5318 26.3946 12.3764C26.4145 12.3231 26.4427 12.303 26.4983 12.303H26.4993C27.0725 12.3056 27.5745 12.3052 28.0333 12.3027H28.0345C28.1037 12.3027 28.1284 12.3326 28.1477 12.3839C28.2438 12.6398 28.3431 12.8993 28.4391 13.1501L28.5553 13.4536C28.6084 13.5928 28.6099 13.5977 28.7615 13.5856L28.7568 13.5726C28.7485 13.5498 28.7411 13.5294 28.7334 13.5092L28.4507 12.7702C28.0935 11.8359 27.7362 10.9014 27.3802 9.96663C27.3619 9.91863 27.345 9.89751 27.2933 9.90279C27.2829 9.90375 27.2728 9.90411 27.2629 9.90447C27.2155 9.90627 27.1842 9.90735 27.1614 9.96783C26.8013 10.9186 26.4321 11.884 26.0749 12.8177L25.8049 13.5245C25.7991 13.5396 25.7939 13.5551 25.7881 13.5724C25.7868 13.5768 25.7853 13.5813 25.7837 13.5858ZM25.8766 13.6198C25.8654 13.6198 25.8534 13.6186 25.8401 13.6162C25.8263 13.6134 25.8114 13.6132 25.7941 13.613C25.7849 13.613 25.7751 13.6128 25.7643 13.6125L25.7461 13.6116L25.7623 13.5638C25.7683 13.5461 25.7735 13.5304 25.7795 13.5148L26.0496 12.808C26.4067 11.8744 26.7759 10.909 27.1359 9.95823C27.1651 9.88083 27.2143 9.87903 27.262 9.87735C27.2712 9.87699 27.2808 9.87663 27.2907 9.87567C27.3593 9.86979 27.3841 9.90063 27.4056 9.95691C27.7617 10.8918 28.119 11.8262 28.4763 12.7605L28.7587 13.4994C28.7667 13.5198 28.7741 13.5405 28.7824 13.5634L28.7992 13.6097L28.7814 13.6113C28.5953 13.626 28.5911 13.6238 28.5301 13.4639L28.4139 13.16C28.3177 12.9089 28.2184 12.6494 28.1221 12.3934C28.1037 12.3443 28.084 12.3299 28.0348 12.3299H28.0336C27.5745 12.3324 27.0726 12.3327 26.4991 12.3303H26.4982C26.4538 12.3303 26.4361 12.3429 26.4202 12.386C26.3623 12.5412 26.3035 12.6964 26.2447 12.8514C26.1631 13.0673 26.0784 13.2906 25.9978 13.5111C25.974 13.5761 25.9431 13.6198 25.8766 13.6198Z" fill="white"/>
<path d="M13.2316 12.1639C12.972 11.48 12.7151 10.8032 12.4521 10.11C12.1867 10.805 11.9286 11.4816 11.6682 12.1639H13.2316ZM13.959 13.5976C13.7813 13.6112 13.7814 13.6112 13.7237 13.4604C13.5853 13.0994 13.4461 12.739 13.3099 12.3773C13.2927 12.3311 13.2705 12.3167 13.2222 12.3169C12.7083 12.3187 12.1943 12.3188 11.6803 12.3168C11.629 12.3166 11.6055 12.3328 11.5876 12.3808C11.4495 12.7519 11.3097 13.1225 11.1678 13.4922C11.1163 13.6261 11.1551 13.5989 11.0091 13.602C10.9905 13.6025 10.9721 13.6 10.9459 13.5984C10.9558 13.5689 10.963 13.5442 10.972 13.5203C11.4251 12.3348 11.8791 11.1496 12.3305 9.96348C12.3517 9.90792 12.3769 9.88296 12.4377 9.88944C12.4943 9.89556 12.5445 9.8802 12.5753 9.96144C13.0247 11.1484 13.4793 12.3335 13.9324 13.519C13.9416 13.543 13.9491 13.5676 13.959 13.5976Z" fill="white"/>
<path d="M11.688 12.1503H13.2119L12.452 10.1481L11.688 12.1503ZM13.2512 12.1776H11.6485L12.4521 10.0718L13.2512 12.1776ZM13.2231 12.3033C13.2774 12.3033 13.3035 12.3214 13.3227 12.3724C13.4269 12.6493 13.5347 12.93 13.6388 13.2014L13.7364 13.4554C13.7886 13.5919 13.7906 13.5968 13.9406 13.5853L13.937 13.5742C13.9311 13.5561 13.9259 13.5398 13.9197 13.5238L13.6242 12.7508C13.2752 11.8386 12.9144 10.8952 12.5627 9.9662C12.5405 9.90788 12.5112 9.9068 12.4668 9.905C12.4568 9.90464 12.4465 9.90416 12.4361 9.90296C12.3864 9.89732 12.3641 9.91352 12.3432 9.96824C11.9826 10.9155 11.6205 11.8624 11.2585 12.8092L10.9848 13.5253C10.9787 13.541 10.9735 13.5572 10.9679 13.575L10.9643 13.586C10.9665 13.5862 10.9689 13.5864 10.9711 13.5866C10.9851 13.5877 10.9974 13.5884 11.0087 13.5884C11.0342 13.5879 11.0539 13.5882 11.0696 13.5885C11.1191 13.5892 11.1194 13.5894 11.1353 13.5429C11.1403 13.5283 11.1463 13.5103 11.1552 13.4874C11.2904 13.135 11.4277 12.7716 11.5748 12.3759C11.5946 12.3229 11.6229 12.3032 11.6795 12.3032H11.6805C12.1646 12.3051 12.669 12.3051 13.2221 12.3033H13.2231ZM13.8614 13.6165C13.7711 13.6165 13.7579 13.5878 13.7111 13.4654L13.6135 13.2111C13.5093 12.9396 13.4015 12.6589 13.2973 12.382C13.2823 12.3422 13.2655 12.3304 13.2233 12.3304H13.2222C12.6689 12.3324 12.1646 12.3322 11.6804 12.3303H11.6795C11.6346 12.3303 11.6159 12.3433 11.6004 12.3855C11.4531 12.781 11.3157 13.1448 11.1805 13.4971C11.1719 13.5195 11.1657 13.5373 11.1609 13.5516C11.1402 13.6132 11.1344 13.6166 11.0691 13.6156C11.0535 13.6153 11.0341 13.6152 11.0093 13.6155C10.9959 13.6153 10.9839 13.6149 10.9691 13.6137C10.9617 13.6131 10.9538 13.6125 10.9452 13.6119L10.9275 13.6108L10.9419 13.5667C10.9477 13.5484 10.9531 13.5318 10.9593 13.5154L11.2331 12.7995C11.5952 11.8527 11.9571 10.9058 12.3179 9.95864C12.3389 9.90344 12.3675 9.86852 12.4391 9.87596C12.4489 9.87704 12.4585 9.87752 12.468 9.87788C12.513 9.87968 12.5595 9.88148 12.588 9.9566C12.9398 10.8855 13.3005 11.8288 13.6495 12.7412L13.9452 13.5141C13.9514 13.5304 13.9568 13.5472 13.9629 13.5657L13.9775 13.6096L13.9601 13.611C13.9193 13.6142 13.8872 13.6165 13.8614 13.6165Z" fill="white"/>
<path d="M35.9828 13.1186C35.9828 13.1857 35.9885 13.2408 35.9803 13.2937C35.9765 13.318 35.9491 13.3439 35.9257 13.3586C35.6021 13.564 35.2469 13.6595 34.8649 13.6542C34.1263 13.6439 33.556 13.3242 33.2026 12.6782C32.6667 11.699 33.0397 10.294 34.3186 9.91597C34.8643 9.75457 35.396 9.82177 35.8943 10.1114C35.9628 10.1513 35.9967 10.1954 35.9837 10.2745C35.9791 10.3024 35.983 10.3315 35.983 10.3721C35.4774 9.99013 34.9237 9.90577 34.3316 10.0786C33.945 10.1914 33.6516 10.4381 33.4272 10.7687C33.0155 11.3752 33.0264 12.3962 33.6686 13.0229C34.2629 13.6027 35.3116 13.6619 35.9828 13.1186Z" fill="white"/>
<path d="M34.8937 9.84361C34.7055 9.84361 34.515 9.87193 34.3224 9.92881C33.7653 10.0936 33.3404 10.4707 33.1257 10.9908C32.9019 11.533 32.9353 12.1613 33.2145 12.6718C33.5606 13.3042 34.116 13.6302 34.8651 13.6406C34.875 13.6408 34.8848 13.6409 34.8945 13.6409C35.2669 13.6409 35.6112 13.5421 35.9185 13.3474C35.9403 13.3334 35.9639 13.3099 35.9669 13.2917C35.9724 13.256 35.9714 13.2192 35.9703 13.1768C35.97 13.167 35.9697 13.1569 35.9695 13.1466C35.6472 13.3985 35.2308 13.5263 34.7963 13.5055C34.3547 13.4851 33.9509 13.3171 33.6593 13.0326C32.9959 12.3854 33.0164 11.3496 33.4159 10.7611C33.6571 10.4057 33.9639 10.1717 34.3278 10.0655C34.9277 9.89041 35.4794 9.98425 35.9688 10.3445C35.9687 10.3414 35.9685 10.3382 35.9684 10.3351C35.9676 10.312 35.9669 10.292 35.9703 10.2724C35.9813 10.2052 35.9589 10.1647 35.8874 10.1232C35.5673 9.93697 35.2346 9.84361 34.8937 9.84361ZM34.8945 13.6681C34.8847 13.6681 34.8747 13.668 34.8648 13.6679C34.1049 13.6572 33.5417 13.3265 33.1908 12.6847C32.9075 12.1672 32.8739 11.5301 33.1007 10.9805C33.3185 10.4526 33.7496 10.0699 34.3147 9.90289C34.8637 9.74053 35.3976 9.80689 35.9011 10.0997C35.9821 10.1468 36.0101 10.1982 35.997 10.2768C35.9942 10.2938 35.9948 10.3116 35.9957 10.334C35.9961 10.3457 35.9965 10.3583 35.9965 10.3721V10.3993L35.9748 10.3829C35.4869 10.0145 34.9355 9.91633 34.3355 10.0915C33.9777 10.1959 33.6761 10.4263 33.4383 10.7764C33.0451 11.3558 33.0249 12.3757 33.6781 13.013C34.2715 13.592 35.3229 13.6354 35.9742 13.1081L35.9964 13.0903V13.1186C35.9964 13.1388 35.9969 13.1579 35.9975 13.1761C35.9985 13.2181 35.9997 13.2577 35.9936 13.2959C35.9889 13.3253 35.9581 13.3543 35.9331 13.3702C35.6214 13.5679 35.2721 13.6681 34.8945 13.6681Z" fill="white"/>
<path d="M20.5597 10.2886C20.4176 10.2135 20.2855 10.1249 20.1403 10.0708C19.8751 9.97195 19.6012 9.96859 19.3349 10.0747C18.8626 10.2629 18.7481 10.8158 19.1063 11.1758C19.1731 11.243 19.2505 11.3013 19.3293 11.3543C19.6304 11.5569 19.9369 11.7518 20.2358 11.9575C20.4211 12.0848 20.5787 12.2405 20.6481 12.4651C20.8078 12.9814 20.495 13.498 19.9437 13.6174C19.5269 13.7078 19.1327 13.6396 18.7627 13.4271C18.7221 13.4037 18.7047 13.3775 18.7084 13.3307C18.7124 13.2788 18.7093 13.2261 18.7093 13.1582C18.7473 13.1867 18.7745 13.208 18.8024 13.2281C19.1659 13.4889 19.5645 13.5622 19.9915 13.4307C20.3421 13.3225 20.5461 13.0069 20.5069 12.6578C20.4867 12.4784 20.3939 12.3334 20.2651 12.214C20.1796 12.1351 20.0852 12.0644 19.9883 11.9992C19.7288 11.8246 19.4654 11.656 19.2046 11.4832C18.9986 11.3468 18.8293 11.1778 18.758 10.9334C18.6362 10.5152 18.8529 10.0689 19.267 9.92155C19.6833 9.77335 20.0929 9.80755 20.483 10.0263C20.543 10.06 20.5696 10.1 20.5606 10.1686C20.5551 10.2105 20.5597 10.2536 20.5597 10.2886Z" fill="white"/>
<path d="M18.7231 13.1856C18.7232 13.197 18.7233 13.2081 18.7236 13.2187C18.7243 13.26 18.7248 13.2957 18.7219 13.3318C18.7189 13.3715 18.7313 13.3932 18.7695 13.4153C19.1408 13.6285 19.5348 13.692 19.9409 13.6042C20.2098 13.546 20.4294 13.3915 20.5592 13.1693C20.6826 12.9581 20.7096 12.7096 20.6353 12.4691C20.576 12.2781 20.4467 12.1189 20.228 11.9686C20.0543 11.8491 19.8749 11.7311 19.7012 11.617C19.5765 11.535 19.4477 11.4503 19.3217 11.3656C19.2267 11.3017 19.1553 11.2444 19.0965 11.1853C18.9227 11.0105 18.8496 10.7819 18.8958 10.5581C18.9422 10.3343 19.1005 10.1536 19.3299 10.062C19.5949 9.95642 19.8691 9.95522 20.1452 10.0581C20.2458 10.0956 20.3423 10.1507 20.4355 10.204C20.4714 10.2245 20.5083 10.2456 20.5457 10.2658C20.5455 10.2627 20.5454 10.2594 20.5453 10.2562C20.5442 10.2286 20.5431 10.1974 20.5472 10.1668C20.5551 10.1074 20.5352 10.0711 20.4762 10.0381C20.0909 9.82214 19.6855 9.7871 19.2715 9.93434C18.87 10.0774 18.6501 10.5145 18.771 10.9296C18.8327 11.1411 18.9727 11.3134 19.2121 11.4719C19.3189 11.5427 19.4262 11.6128 19.5336 11.683C19.6855 11.7822 19.8427 11.8849 19.9959 11.988C20.1061 12.0621 20.1972 12.1329 20.2743 12.204C20.4188 12.3378 20.5015 12.49 20.5202 12.6562C20.5608 13.0179 20.3501 13.3343 19.9955 13.4435C19.5703 13.575 19.1661 13.506 18.7945 13.2391C18.776 13.2258 18.7579 13.212 18.7367 13.1959L18.7231 13.1856ZM19.5901 13.6697C19.3028 13.6697 19.0236 13.5927 18.7559 13.4388C18.7087 13.4117 18.6909 13.38 18.6949 13.3296C18.6975 13.2948 18.6971 13.2597 18.6963 13.2191C18.696 13.2 18.6957 13.1799 18.6957 13.1581V13.131L18.7532 13.1743C18.7741 13.1903 18.792 13.2039 18.8105 13.2171C19.1749 13.4785 19.5709 13.5462 19.9873 13.4177C20.3292 13.3125 20.5325 13.0075 20.4932 12.6592C20.475 12.4974 20.3973 12.3551 20.2557 12.2241C20.1799 12.1537 20.0899 12.0839 19.9808 12.0106C19.8277 11.9076 19.6706 11.805 19.5187 11.7057C19.4112 11.6356 19.3039 11.5655 19.197 11.4946C18.9522 11.3322 18.8085 11.1552 18.7449 10.9372C18.6201 10.5083 18.8473 10.0565 19.2624 9.90878C19.6843 9.75854 20.0971 9.79442 20.4897 10.0145C20.5583 10.053 20.5835 10.0996 20.5742 10.1705C20.5705 10.1988 20.5715 10.2287 20.5723 10.2553C20.5728 10.267 20.5733 10.2781 20.5733 10.2887V10.3113L20.5532 10.3007C20.5088 10.2772 20.4647 10.252 20.4219 10.2276C20.3256 10.1724 20.2344 10.1203 20.1356 10.0835C19.8661 9.98306 19.5985 9.98426 19.3399 10.0873C19.1192 10.1753 18.9669 10.3489 18.9224 10.5636C18.8779 10.7782 18.9485 10.998 19.1159 11.1663C19.1732 11.2239 19.2435 11.2801 19.3369 11.3431C19.4627 11.4277 19.5915 11.5125 19.7161 11.5943C19.8899 11.7084 20.0694 11.8265 20.2435 11.9463C20.4674 12.1002 20.6003 12.2638 20.6611 12.4611C20.7378 12.7087 20.7099 12.9652 20.5826 13.183C20.4491 13.4119 20.2231 13.5709 19.9466 13.6308C19.8266 13.6569 19.7077 13.6697 19.5901 13.6697Z" fill="white"/>
<path d="M30.2607 13.5985H30.0911V10.0393H29.0174V9.89587H31.3185V10.0358H30.2607V13.5985Z" fill="white"/>
<path d="M30.1047 13.5849H30.2472V10.0222H31.305V9.90939H29.031V10.0257H30.1047V13.5849ZM30.2743 13.6121H30.0775V10.0528H29.0037V9.88227H31.3322V10.0493H30.2743V13.6121Z" fill="white"/>
<path d="M17.6863 9.89284H17.8427V13.5964H17.6863V9.89284Z" fill="white"/>
<path d="M17.6998 13.5827H17.8291V9.9064H17.6998V13.5827ZM17.8563 13.61H17.6727V9.87928H17.8563V13.61Z" fill="white"/>
<path d="M31.9739 9.8932H32.1267V13.5995H31.9739V9.8932Z" fill="white"/>
<path d="M31.9875 13.586H32.1133V9.90688H31.9875V13.586ZM32.1405 13.613H31.9604V9.87964H32.1405V13.613Z" fill="white"/>
<path d="M1.68186 13.9394C2.85906 14.8794 4.65246 14.7344 5.08554 14.5869C4.39146 14.9084 3.1821 14.9468 2.20182 14.4246C1.13658 13.8571 0.625498 12.8841 0.549898 12.248C0.736618 12.9282 1.1151 13.4869 1.68186 13.9394ZM0.437218 9.86875C-0.726062 12.043 0.539578 14.6288 2.96094 14.9953C3.47394 15.0728 3.93042 15.078 4.43646 14.9682C6.01458 14.6259 6.6087 13.4202 6.63762 13.2063C6.65346 13.0893 6.57426 13.2574 6.47622 13.3996C6.3063 13.646 6.2049 13.7488 5.85018 13.9965C4.95342 14.6224 4.0485 14.5884 3.22338 14.3071C2.6937 14.1081 2.24802 13.7836 1.90386 13.316C1.4313 12.674 1.25778 11.9715 1.47306 11.2053C1.48566 11.2038 1.4985 11.2021 1.51122 11.2005C1.51146 11.245 1.51314 11.2897 1.5117 11.3342C1.49874 11.7482 1.55934 12.1479 1.7313 12.5331C1.95174 13.0272 2.29566 13.4204 2.76558 13.7107C3.24126 14.0048 3.76962 14.1574 4.33578 14.1199C4.66362 14.0982 5.10546 13.9756 5.20614 13.9256C5.84106 13.6105 5.11962 13.8613 4.75722 13.8896C4.53066 13.9348 4.12182 13.9269 3.91902 13.9009C2.9451 13.7763 2.2575 13.1968 1.87842 12.3292C1.65474 11.8174 1.64958 11.287 1.84554 10.7584C2.09154 10.0948 2.56194 9.64123 3.24594 9.38227C3.37494 9.33343 3.50286 9.28183 3.62874 9.22639C3.66522 9.21019 3.69318 9.17623 3.72498 9.15043C3.76386 9.11695 3.71202 9.12823 3.70542 9.11707C3.59826 9.11167 3.4125 9.15739 3.36786 9.16675C2.54694 9.33823 1.93266 9.77203 1.53438 10.4793C1.23582 11.009 1.13802 11.576 1.24086 12.162C1.38738 12.9962 1.83966 13.657 2.57538 14.1373C2.67834 14.2045 2.7879 14.2623 2.89434 14.3245C2.89038 14.3329 2.8863 14.3414 2.88234 14.3498C2.71002 14.2723 2.53242 14.2041 2.36658 14.1158C1.77846 13.8025 1.33758 13.355 1.06554 12.7669C0.828058 12.2534 0.741418 11.7193 0.838018 11.1585C0.951418 10.4997 1.26666 9.95215 1.77078 9.49015C2.76558 8.57827 3.7005 8.66119 3.78306 8.66335C4.58454 8.68399 5.21034 8.94619 5.84106 9.40099C6.0429 9.56539 6.22518 9.66439 6.08286 9.48415C5.74938 9.13255 5.3481 8.85931 4.8735 8.68651C3.6555 8.24311 2.74938 8.59687 2.6553 8.62723C2.08482 8.81155 1.67262 9.11287 1.27566 9.54439C0.994498 9.85027 0.781138 10.194 0.649978 10.5823C0.640738 10.6098 0.622498 10.6345 0.608818 10.6596C0.571738 10.456 1.01046 9.70423 1.39782 9.30919C1.75782 8.94199 2.56734 8.49739 2.95218 8.42119C3.84126 8.19751 4.50522 8.25631 5.31366 8.66779C5.95794 8.99587 6.2817 9.30931 6.5889 9.81115C6.6999 9.99271 6.62562 9.77683 6.56958 9.65863C6.12786 8.69287 5.0445 8.11243 3.99402 8.01571C2.62962 7.89019 1.1601 8.51755 0.437218 9.86875Z" fill="white"/>
<path d="M4.28635 13.3458C3.91207 13.3458 3.56467 13.2308 3.27715 13.0344C3.14887 12.9717 3.02803 12.8798 2.89531 12.7368C2.71759 12.5452 2.58643 12.2486 2.53111 11.9181C2.50675 11.8002 2.49379 11.6782 2.49379 11.5532C2.49379 10.5632 3.29635 9.7606 4.28635 9.7606C4.75891 9.7606 5.18743 9.9448 5.50771 10.2435C5.56807 10.2862 5.62831 10.3318 5.68819 10.3838C5.68819 10.3433 5.76931 10.1968 5.16667 9.84208C4.59919 9.52504 4.00207 9.466 3.40003 9.6934C2.26435 10.1033 1.86283 11.4785 2.32651 12.4402C2.67943 13.1721 3.29431 13.5364 4.10947 13.5498C4.50823 13.5564 4.87843 13.4541 5.21779 13.2423C5.83699 12.8441 5.95999 12.3417 5.76511 12.5658C5.44207 13.0366 4.90051 13.3458 4.28635 13.3458Z" fill="white"/>
</svg>
