<svg width="36" height="24" viewBox="0 0 36 24" fill="none" xmlns="http://www.w3.org/2000/svg">
<path fill-rule="evenodd" clip-rule="evenodd" d="M20.6334 5.74741C20.6271 5.93069 20.642 6.13575 20.3515 6.22944C20.1795 6.28497 19.968 6.05321 19.9567 5.89165C20.0427 5.77867 20.1603 5.69302 20.2952 5.64516C20.5654 5.54468 20.6295 5.5256 20.6334 5.74741ZM15.6426 6.22944C15.3521 6.13544 15.3671 5.93069 15.3608 5.74741C15.3647 5.5256 15.4284 5.54468 15.699 5.64548C15.8337 5.69328 15.9514 5.77898 16.0373 5.89191C16.0257 6.05435 15.8147 6.28497 15.6426 6.22944ZM22.2235 11.5909C22.4013 11.5077 22.5628 11.3943 22.7008 11.256C23.3787 10.543 23.5107 9.7217 23.5918 8.77107C23.613 8.52344 23.6084 8.27375 23.6215 8.01964C23.6233 7.98055 23.6297 7.80432 23.6479 7.80457C23.7011 7.86223 23.7433 7.9288 23.7726 8.00113C23.8557 8.22257 23.9085 8.45392 23.9297 8.6891C24.0073 9.15148 24.0207 9.62205 23.9696 10.088C23.9465 10.2502 23.8918 10.4065 23.8085 10.5483C23.3847 11.2475 22.9162 11.8958 22.4685 12.5838C22.4315 12.6405 22.4042 12.5315 22.3789 12.513L22.3432 12.4775C22.2415 12.4234 22.2021 12.4169 22.1531 12.4498C22.1373 12.4792 22.1233 12.5086 22.1085 12.538C22.0037 12.7665 21.8146 13.1316 21.6827 13.3675C21.6743 13.3821 21.6613 13.3935 21.6456 13.4C21.6298 13.4065 21.6124 13.4077 21.5959 13.4034C21.5794 13.3991 21.5648 13.3896 21.5544 13.3763C21.544 13.363 21.5384 13.3467 21.5384 13.3299C21.5384 13.0676 21.5402 12.8053 21.5366 12.5429C21.5345 12.3793 21.5384 12.1795 21.3081 12.1799C21.0835 12.1799 21.0766 12.3731 21.0739 12.5409C21.0715 12.6939 21.0739 12.8473 21.0739 13.0235C21.0741 13.0373 21.0706 13.0509 21.0636 13.0628C21.0566 13.0747 21.0464 13.0846 21.0342 13.0913C21.022 13.0981 21.0081 13.1015 20.9941 13.1011C20.9801 13.1007 20.9665 13.0967 20.9546 13.0894C20.7656 12.9492 20.5569 12.8368 20.3351 12.7556C20.1585 12.686 19.9672 12.6603 19.7782 12.6808C19.589 12.7013 19.4079 12.7673 19.2509 12.8731L19.2993 12.8299C19.433 12.7103 19.5938 12.6239 19.7684 12.5779C19.9429 12.5319 20.1261 12.5277 20.3026 12.5656C20.4005 12.5865 20.5009 12.5944 20.6009 12.5891C20.613 12.5884 20.6248 12.585 20.6352 12.5791C20.6457 12.5732 20.6545 12.5649 20.6612 12.5549C20.6678 12.545 20.6719 12.5336 20.6733 12.5218C20.6746 12.51 20.6731 12.498 20.6689 12.4868C20.5299 12.1229 20.0957 10.7889 20.9884 10.3359C21 10.3304 21.01 10.3221 21.0176 10.3119C21.0251 10.3017 21.0302 10.2897 21.032 10.2772C21.0633 10.0322 21.5166 8.97317 20.2844 8.28225C20.0911 8.45143 19.8529 8.84656 19.5489 9.09947C20.0858 9.21318 20.3692 8.89385 20.629 8.67386C20.5225 9.29074 20.0349 9.33481 19.6462 9.55895C19.9809 9.41735 20.3139 9.60945 20.7116 9.40263C20.424 9.9449 19.8546 9.67732 19.5048 9.96341C19.8403 10.177 20.1502 10.0604 20.4577 10.0275C20.5446 10.0159 20.6329 10.0192 20.7187 10.0372C20.6463 10.1405 20.5624 10.2355 20.4685 10.3203C20.3494 10.4089 20.2146 10.4747 20.0709 10.5142C19.9246 10.5598 19.7681 10.5639 19.6195 10.5263C19.1799 10.3908 18.7483 10.2296 18.3194 10.0633C18.2782 10.0439 18.2416 10.016 18.2123 9.98161C18.183 9.94713 18.1616 9.9069 18.1494 9.86355C18.1225 9.72605 18.1547 9.57891 18.1413 9.43731C18.1248 9.35088 18.144 9.2616 18.1943 9.18896C18.2446 9.11632 18.3221 9.06629 18.4098 9.04986C18.8137 8.93947 19.1682 8.6989 19.4168 8.36655C19.5 8.24777 19.5597 8.11462 19.5931 7.97407C19.5929 7.97147 19.5929 7.96883 19.5931 7.96618C19.5939 7.83656 19.5709 7.70788 19.5253 7.58635C19.4997 7.48965 19.5023 7.38787 19.5328 7.29258L19.5403 7.26116C19.5403 7.25965 19.5403 7.2582 19.5403 7.25675H19.542L19.6295 6.88687C19.6584 6.77234 19.7282 6.67185 19.8261 6.60373L19.8526 6.58781C19.863 6.57962 19.8741 6.57231 19.8859 6.56609C20.0501 6.48157 20.2221 6.4122 20.3993 6.35901C20.7078 6.23919 20.985 6.05264 21.2104 5.81315C21.4359 5.57367 21.6038 5.28736 21.7018 4.97539C21.7769 4.76536 21.7953 4.53972 21.7553 4.32061C21.6956 4.44017 21.6034 4.67986 21.5464 4.80062C21.5123 4.89446 21.4472 4.97425 21.3614 5.02714C21.2757 5.08008 21.1743 5.10299 21.0736 5.09231C20.5024 5.09641 19.9523 5.19129 19.6396 5.77764C19.5069 6.09168 19.2655 6.34926 18.9583 6.5047C18.9531 6.33448 18.9794 6.16473 19.0361 6.00385C18.7706 5.89632 18.8753 5.74414 19.017 5.59259C19.21 5.38696 19.4048 5.18367 19.6095 4.96891C19.4369 4.92655 19.2787 4.84002 19.151 4.71807H20.2678C20.2678 4.70687 20.2695 4.69604 20.2707 4.68484C19.9292 4.62366 19.6002 4.50768 19.2968 4.34145C19.8155 4.02627 20.8939 4.1828 21.0758 4.12556C21.0779 4.08294 20.9267 4.05121 20.7719 4.00159C20.4139 3.91049 20.2794 3.88203 19.9223 3.78683C19.5678 3.69206 19.2261 3.55565 18.9046 3.38056H20.3709C19.8722 3.1013 19.3224 2.92165 18.7531 2.85181C18.4312 2.83154 18.1992 2.83211 18.0009 2.83532L17.9994 2.74283V2.83532C17.8007 2.83211 17.569 2.83154 17.2471 2.85181C16.6777 2.92165 16.1278 3.1013 15.6289 3.38056H17.0952C16.7737 3.5557 16.4319 3.69206 16.0772 3.78683C15.7193 3.88172 15.5857 3.91023 15.2281 4.00159C15.073 4.05121 14.9221 4.08294 14.9241 4.12556C15.1061 4.1843 16.1843 4.02653 16.703 4.34145C16.3998 4.50768 16.0708 4.62366 15.7294 4.68484C15.7294 4.69604 15.7313 4.70687 15.7325 4.71807H16.8491C16.7215 4.84002 16.5636 4.92655 16.3911 4.96891C16.5954 5.18367 16.7907 5.38696 16.9834 5.59259C17.1251 5.74357 17.2298 5.89575 16.9643 6.00385C17.0212 6.16468 17.0477 6.33443 17.0425 6.5047C16.7352 6.34931 16.4937 6.09173 16.3609 5.77764C16.0486 5.19015 15.498 5.0961 14.9268 5.09231C14.8262 5.10299 14.7249 5.08008 14.6391 5.02714C14.5534 4.97425 14.4881 4.89446 14.454 4.80062C14.3973 4.67986 14.3048 4.44043 14.2452 4.32061C14.205 4.53977 14.2236 4.76541 14.2989 4.97539C14.3968 5.28741 14.5648 5.57377 14.7903 5.81326C15.0158 6.05274 15.293 6.23929 15.6015 6.35901C15.7787 6.41225 15.9504 6.48157 16.1145 6.56609C16.1263 6.57231 16.1375 6.57962 16.148 6.58781C16.1566 6.59284 16.1655 6.59782 16.1745 6.60373C16.2723 6.67185 16.3422 6.77234 16.3711 6.88687L16.4585 7.25675H16.46C16.4601 7.2582 16.4601 7.25965 16.46 7.26116L16.4674 7.29258C16.4977 7.38787 16.5001 7.4897 16.4745 7.58635C16.429 7.70793 16.406 7.83656 16.4068 7.96618C16.4072 7.96878 16.4072 7.97147 16.4068 7.97407C16.4402 8.11462 16.5002 8.24777 16.5835 8.36655C16.8318 8.69895 17.1863 8.93958 17.5901 9.04986C17.6778 9.06629 17.7553 9.11632 17.8055 9.18896C17.8559 9.2616 17.875 9.35088 17.8586 9.43731C17.8454 9.5786 17.8774 9.72605 17.8506 9.86355C17.8384 9.9069 17.8168 9.94713 17.7875 9.98161C17.7582 10.016 17.7216 10.0439 17.6804 10.0633C17.2515 10.2296 16.8197 10.3908 16.3803 10.5263C16.2317 10.564 16.0753 10.5599 15.9289 10.5146C15.7853 10.4749 15.6504 10.4092 15.5313 10.3206C15.4375 10.2358 15.3537 10.1408 15.2814 10.0375C15.3671 10.0194 15.4553 10.0161 15.5421 10.0278C15.8499 10.0607 16.1593 10.1773 16.4967 9.96373C16.1465 9.67763 15.5771 9.94522 15.2899 9.40294C15.6875 9.60857 16.0206 9.41761 16.3549 9.55921C15.9672 9.33507 15.4786 9.29043 15.3721 8.67411C15.6322 8.89385 15.9165 9.21349 16.4525 9.09979C16.1486 8.84687 15.9102 8.45174 15.7166 8.28256C14.4844 8.97348 14.9375 10.0328 14.9692 10.2775C14.971 10.29 14.9758 10.302 14.9834 10.3122C14.991 10.3225 15.0011 10.3307 15.0127 10.3362C15.9054 10.7892 15.4708 12.1232 15.3318 12.4871C15.3277 12.4983 15.3262 12.5103 15.3276 12.5221C15.3289 12.5339 15.3331 12.5453 15.3397 12.5553C15.3462 12.5652 15.3549 12.5734 15.3653 12.5794C15.3757 12.5854 15.3873 12.5889 15.3992 12.5897C15.4993 12.595 15.5996 12.5871 15.6975 12.5662C15.8741 12.5283 16.0572 12.5325 16.2317 12.5785C16.4063 12.6245 16.5672 12.7109 16.701 12.8305L16.7495 12.8737C16.5925 12.768 16.4116 12.7019 16.2226 12.6814C16.0335 12.6609 15.8422 12.6866 15.6656 12.7562C15.4437 12.8372 15.2348 12.9496 15.0458 13.0899C15.0339 13.0973 15.0203 13.1013 15.0063 13.1017C14.9923 13.102 14.9784 13.0987 14.9662 13.0919C14.954 13.0852 14.944 13.0754 14.937 13.0634C14.93 13.0515 14.9263 13.0379 14.9265 13.0241C14.9265 12.8479 14.9265 12.6946 14.9265 12.5415C14.9238 12.3735 14.9169 12.1811 14.6923 12.1804C14.462 12.1804 14.466 12.3799 14.4636 12.5435C14.46 12.8059 14.4611 13.0682 14.4617 13.3305C14.4617 13.3473 14.4561 13.3636 14.4457 13.3769C14.4353 13.3902 14.4207 13.3997 14.4042 13.404C14.3877 13.4083 14.3704 13.4071 14.3547 13.4006C14.339 13.3941 14.3258 13.3827 14.3174 13.3681C14.1859 13.1331 13.9968 12.7671 13.8918 12.5385C13.8784 12.5092 13.8619 12.4798 13.847 12.4504C13.7981 12.4172 13.7576 12.4237 13.6571 12.478L13.6212 12.5135C13.5962 12.5321 13.5688 12.641 13.5318 12.5844C13.0844 11.8961 12.6151 11.248 12.1916 10.5489C12.1082 10.4071 12.0535 10.2508 12.0305 10.0886C11.9792 9.62267 11.9926 9.15205 12.0704 8.68967C12.0915 8.45449 12.1445 8.22314 12.2277 8.0017C12.2568 7.92937 12.299 7.8628 12.3521 7.8052C12.3703 7.8052 12.3765 7.98143 12.3783 8.02021C12.3914 8.27432 12.387 8.52402 12.4082 8.77164C12.4893 9.72227 12.6211 10.5436 13.2991 11.2566C13.437 11.395 13.5985 11.5084 13.7763 11.5917C13.7909 11.5975 13.8068 11.5986 13.8221 11.5953C13.8373 11.5919 13.8512 11.5841 13.8618 11.5728C13.8725 11.5615 13.8793 11.5473 13.8816 11.5321C13.884 11.5169 13.8816 11.5013 13.8748 11.4875C13.6681 11.073 13.445 10.6649 13.2782 10.2351C13.1085 9.79719 12.9948 9.33746 12.8645 8.88389C12.8605 8.87062 12.8603 8.85657 12.8639 8.84319C12.8674 8.82981 12.8746 8.81768 12.8847 8.80804C12.8948 8.79845 12.9074 8.79171 12.9211 8.78859C12.9348 8.78548 12.949 8.78616 12.9623 8.79046C13.059 8.82333 13.1885 8.87534 13.2905 8.91412C13.3039 8.91915 13.3185 8.92039 13.3326 8.91775C13.3467 8.91505 13.3597 8.90857 13.3703 8.89898C13.3808 8.88944 13.3884 8.8771 13.3923 8.86351C13.3961 8.84988 13.3961 8.83546 13.3921 8.82188C13.263 8.38418 12.8433 7.1037 12.8433 7.1037C12.8687 7.13304 13.1141 7.48555 13.1314 7.51697C13.3285 7.82946 13.5015 8.15605 13.6489 8.49405C13.719 8.67266 13.7763 8.80161 13.8074 8.86917C13.8214 8.89856 13.8267 8.93351 13.8011 8.95497C13.4527 9.24579 13.7346 9.8004 13.8822 9.97311C14.0862 10.2147 14.2331 10.4978 14.3123 10.8021C14.3332 10.8644 14.3604 10.9534 14.3902 11.0471C14.3965 11.0639 14.4086 11.078 14.4244 11.0869C14.4403 11.0957 14.4588 11.0987 14.4767 11.0954C14.4946 11.092 14.5107 11.0825 14.5222 11.0686C14.5336 11.0547 14.5398 11.0371 14.5394 11.0192C14.5131 10.6276 14.443 10.0962 14.3117 9.97461C14.1095 9.78718 14.1522 9.14121 14.3789 9.02606C14.5897 8.91915 14.6371 8.80544 14.5306 8.62299C14.5253 8.61423 14.5219 8.60443 14.5204 8.59432C14.519 8.58416 14.5196 8.57384 14.5222 8.56394C14.5248 8.55403 14.5293 8.5447 14.5356 8.53656C14.5419 8.52837 14.5497 8.52153 14.5587 8.51639L15.5287 7.96971C15.5427 7.96188 15.5539 7.95001 15.5608 7.93565C15.5676 7.92134 15.5697 7.90526 15.5669 7.88966C15.564 7.8741 15.5564 7.85979 15.5449 7.8487C15.5334 7.8376 15.5187 7.83029 15.5028 7.8278C15.1664 7.79757 14.8309 7.89479 14.5647 8.09954C14.5094 8.13179 14.4474 8.15133 14.3834 8.15672C14.3193 8.16212 14.2549 8.15315 14.1949 8.13054C14.1349 8.10799 14.0808 8.07232 14.0367 8.02622C13.9927 7.98018 13.9597 7.92486 13.9403 7.86451C13.9198 7.81609 13.9027 7.76631 13.8891 7.7156C13.8777 7.67418 13.9159 7.63918 13.9577 7.62746C14.4349 7.50997 14.5065 7.48587 14.5303 7.34339C14.532 7.33255 14.5314 7.32151 14.5284 7.31098C14.5254 7.30041 14.5202 7.29066 14.513 7.28226C14.5058 7.27391 14.4968 7.26717 14.4868 7.26251C14.4767 7.25784 14.4657 7.2554 14.4546 7.25525C14.2884 7.27905 14.1189 7.25877 13.9633 7.1965C13.8711 7.1039 13.8109 6.98491 13.7915 6.85664C13.7875 6.8428 13.7877 6.82818 13.7918 6.81438C13.7959 6.80059 13.8037 6.78825 13.8146 6.77871C13.8255 6.76917 13.839 6.76285 13.8534 6.76046C13.8678 6.75808 13.8824 6.75974 13.8959 6.76529C14.0641 6.83575 14.1102 6.83341 14.2026 6.76352C14.211 6.75714 14.218 6.74916 14.2232 6.74004C14.2284 6.73091 14.2317 6.7209 14.2329 6.71053C14.2341 6.70011 14.2332 6.68964 14.2302 6.67958C14.2272 6.66957 14.2222 6.66024 14.2154 6.65215C14.1948 6.62628 14.1712 6.60274 14.1452 6.58195C13.7954 6.31317 13.2579 4.82851 13.2758 4.39024C13.1352 4.50856 13.0304 4.66244 12.9722 4.83525C12.6027 4.6866 12.3207 4.63989 12.3732 4.1267L12.7825 4.33528C12.7825 4.33528 12.8039 4.17927 12.5844 3.99863C12.1137 3.61117 12.0425 3.09591 12.0276 2.53601C12.0196 2.44517 12.0372 2.35392 12.0787 2.27241C12.1202 2.19091 12.1838 2.12231 12.2625 2.07425C12.3412 2.02619 12.4318 2.00057 12.5244 2.00021C12.617 1.99982 12.7079 2.02473 12.787 2.07218C13.7006 2.49515 14.9596 2.92113 15.9991 2.7898L16.0331 2.78275L16.0364 2.78099L16.034 2.78249C16.6807 2.65106 17.3391 2.5822 17.9994 2.57681H18.005C18.6653 2.5822 19.3237 2.65106 19.9704 2.78249L19.9679 2.78099L19.971 2.78275L20.0052 2.7898C21.0444 2.92113 22.3019 2.49603 23.2171 2.07218C23.2961 2.02463 23.387 1.99968 23.4797 2C23.5723 2.00031 23.6631 2.02598 23.7418 2.07404C23.8206 2.1221 23.8841 2.1907 23.9256 2.27226C23.9671 2.35381 23.9848 2.44512 23.9767 2.53601C23.9618 3.09591 23.8906 3.61143 23.4197 3.99863C23.2001 4.17927 23.2219 4.33528 23.2219 4.33528L23.6311 4.1267C23.6836 4.63989 23.4014 4.6866 23.0321 4.83525C22.9739 4.66244 22.8691 4.50856 22.7286 4.39024C22.7465 4.82851 22.2092 6.31317 21.8594 6.58195C21.8334 6.60279 21.8097 6.62633 21.7889 6.65215C21.782 6.66024 21.7769 6.66963 21.7739 6.67974C21.7709 6.68985 21.7701 6.70047 21.7714 6.71095C21.7725 6.72127 21.7757 6.73122 21.7809 6.74035C21.786 6.74942 21.7928 6.7574 21.8012 6.76378C21.8936 6.83372 21.9393 6.83606 22.1081 6.76554C22.1216 6.76 22.1363 6.75829 22.1507 6.76067C22.1651 6.76305 22.1785 6.76933 22.1894 6.77892C22.2003 6.78846 22.2083 6.80085 22.2123 6.8147C22.2163 6.82849 22.2163 6.84311 22.2123 6.8569C22.1928 6.98517 22.1327 7.10406 22.0407 7.19681C21.8851 7.25903 21.7154 7.27936 21.5492 7.25556C21.5381 7.25571 21.5272 7.25825 21.5171 7.26292C21.5071 7.26759 21.4981 7.27433 21.4909 7.28267C21.4837 7.29102 21.4785 7.30077 21.4755 7.31129C21.4724 7.32182 21.4718 7.33286 21.4734 7.3437C21.4973 7.48618 21.5677 7.50998 22.0458 7.62777C22.0876 7.63804 22.1257 7.6733 22.1144 7.71586C22.1007 7.76662 22.0836 7.8164 22.0631 7.86482C22.0437 7.92512 22.0108 7.98039 21.9667 8.02643C21.9226 8.07247 21.8686 8.10809 21.8086 8.1307C21.7485 8.1533 21.6841 8.16222 21.6201 8.15688C21.5561 8.15154 21.4941 8.13205 21.4388 8.0998C21.1725 7.89505 20.8371 7.79789 20.5007 7.82811C20.4848 7.83065 20.4702 7.83797 20.4588 7.84906C20.4473 7.86016 20.4397 7.87452 20.4369 7.89007C20.4341 7.90568 20.4362 7.9217 20.443 7.93601C20.4498 7.95032 20.461 7.96219 20.475 7.96997L21.445 8.51665C21.454 8.52184 21.4618 8.52873 21.468 8.53687C21.4743 8.54506 21.4788 8.55435 21.4815 8.56425C21.484 8.57415 21.4846 8.58447 21.4832 8.59463C21.4818 8.60474 21.4784 8.61449 21.4732 8.6233C21.3667 8.80602 21.4134 8.91972 21.6246 9.02632C21.8516 9.14121 21.8931 9.78749 21.6921 9.97487C21.5608 10.0965 21.4906 10.6282 21.4641 11.0195C21.4637 11.0374 21.4698 11.0549 21.4813 11.0689C21.4928 11.0828 21.5088 11.0923 21.5267 11.0957C21.5446 11.099 21.5632 11.096 21.579 11.0872C21.5948 11.0783 21.6069 11.0642 21.6133 11.0474C21.6431 10.9537 21.6703 10.865 21.6912 10.8024C21.7706 10.4982 21.9174 10.215 22.1213 9.97342C22.2704 9.80072 22.5511 9.2461 22.2027 8.95523C22.1919 8.94377 22.1853 8.92905 22.1842 8.9135C22.183 8.89794 22.1873 8.88239 22.1961 8.86948C22.2259 8.80192 22.2855 8.67297 22.3544 8.49436C22.502 8.15641 22.6751 7.82982 22.872 7.51729C22.8896 7.48467 23.1351 7.13216 23.1601 7.10396C23.1601 7.10396 22.7408 8.38449 22.6116 8.82219C22.6077 8.83572 22.6076 8.85009 22.6115 8.86367C22.6153 8.87725 22.6229 8.88954 22.6335 8.89908C22.644 8.90867 22.657 8.91515 22.6711 8.91785C22.6851 8.92055 22.6996 8.91941 22.713 8.91443C22.815 8.87565 22.9445 8.82364 23.0411 8.79072C23.0545 8.78631 23.0688 8.78559 23.0825 8.78865C23.0962 8.79171 23.1088 8.79845 23.1189 8.80809C23.129 8.81773 23.1362 8.82992 23.1398 8.84335C23.1433 8.85677 23.1431 8.87088 23.139 8.88415C23.0086 9.33714 22.8952 9.79688 22.7252 10.2355C22.5582 10.665 22.3351 11.0733 22.1287 11.4877C22.1217 11.5016 22.1191 11.5172 22.1214 11.5325C22.1236 11.5478 22.1306 11.5621 22.1413 11.5734C22.1521 11.5847 22.1659 11.5926 22.1812 11.5959C22.1966 11.5993 22.2126 11.5979 22.2271 11.5921L22.2235 11.5909ZM15.8484 8.20821L15.8059 8.22968C15.8214 8.22231 15.8356 8.21557 15.8484 8.20821ZM14.0976 2.61414C14.1784 2.63374 14.2559 2.65152 14.3305 2.6676C14.2543 2.64432 14.1764 2.62648 14.0976 2.61414ZM13.9958 2.72344C12.9187 2.64027 13.1184 3.42255 13.3272 3.88732L13.5011 4.17077C13.5113 4.18212 13.5197 4.19503 13.5258 4.20898C13.5258 4.21162 13.5281 4.21427 13.529 4.21691C13.7975 4.84054 14.0206 6.16686 15.3127 6.67538C15.2632 6.64718 15.214 6.61596 15.165 6.58169C14.7924 6.27086 14.4875 5.88906 14.2685 5.45924C13.6916 4.3162 13.8428 3.59941 13.7727 3.31476C13.8843 3.35292 14.2798 3.4364 14.3573 3.46341C14.3648 3.44578 13.6632 3.14615 13.4625 3.04214C13.5513 2.98755 13.6511 2.95219 13.7549 2.93845C14.2101 2.89205 14.3813 3.03421 14.676 3.07564C14.8731 3.09306 15.0718 3.07776 15.2638 3.03038L13.9958 2.72344ZM20.1452 8.20852C20.158 8.21583 20.1726 8.22288 20.1879 8.22993L20.1452 8.20852ZM21.6633 2.66791C21.7379 2.65147 21.8153 2.63353 21.8964 2.61445C21.8175 2.62664 21.7396 2.64473 21.6633 2.66791ZM22.4645 4.21748C22.4645 4.21484 22.467 4.21219 22.4682 4.20955C22.4742 4.19555 22.4826 4.18269 22.493 4.17139L22.6665 3.88789C22.8753 3.42317 23.0748 2.64089 21.998 2.72401L20.7292 3.03038C20.9212 3.07776 21.1199 3.09306 21.317 3.07564C21.6117 3.0339 21.7831 2.89205 22.2382 2.93845C22.342 2.95224 22.4416 2.98755 22.5305 3.04214C22.3304 3.14615 21.6288 3.44578 21.6357 3.46341C21.7141 3.43665 22.109 3.35292 22.2203 3.31476C22.1499 3.60086 22.3011 4.31734 21.7242 5.45924C21.5053 5.88906 21.2003 6.27086 20.8277 6.58169C20.7787 6.61601 20.7295 6.64718 20.6799 6.67538C21.973 6.16598 22.1961 4.84142 22.4645 4.21748ZM17.994 8.27872C17.8392 8.27872 17.6718 8.27872 17.457 8.27489C17.2619 8.27779 17.0683 8.24103 16.8883 8.16678C16.839 8.13287 16.8006 8.08569 16.7779 8.03089C16.7551 7.97609 16.7489 7.91594 16.76 7.85777C16.771 7.69766 16.9825 7.58458 16.9825 7.58458C16.9748 7.95913 17.3047 8.05956 17.9934 8.06547H17.9997C18.6884 8.0593 19.0182 7.95913 19.0104 7.58458C19.0104 7.58458 19.2217 7.69766 19.2327 7.85777C19.2437 7.916 19.2374 7.97609 19.2147 8.03094C19.1919 8.08575 19.1534 8.13293 19.1041 8.16678C18.9241 8.24103 18.7305 8.27784 18.5354 8.27489C18.3215 8.27872 18.1541 8.27992 17.9984 8.27872L17.9955 8.26198L17.994 8.27872ZM17.9969 12.2912C18.0172 12.7853 17.1553 12.8279 16.4272 12.3984C16.386 12.2457 16.4659 11.9827 16.3815 11.9252C16.2559 11.8397 16.056 11.9525 15.9295 12.0318C15.8031 12.1111 15.7208 12.2636 15.5967 12.3588C15.6504 11.595 16.4235 10.9023 17.6122 10.8371C17.7425 10.8301 17.8746 10.8215 17.9972 10.8221C18.1198 10.8227 18.252 10.8301 18.3823 10.8371C19.5707 10.902 20.3442 11.5956 20.3978 12.3588C20.2726 12.2636 20.192 12.1114 20.0649 12.0318C19.9378 11.9522 19.7383 11.84 19.613 11.9252C19.5286 11.9839 19.6082 12.2457 19.5674 12.3984C18.8387 12.8279 17.9766 12.7853 17.9969 12.2912Z" fill="white"/>
<path fill-rule="evenodd" clip-rule="evenodd" d="M34.6494 19.1338L36 21.3212L34.4605 21.3225L33.1869 19.2686H33.1729V21.3225H31.7855V15.9966H33.8567C34.3384 15.9682 34.8149 16.1079 35.205 16.3918C35.3798 16.5435 35.5167 16.7338 35.6051 16.9476C35.6935 17.1615 35.7309 17.3929 35.7143 17.6237C35.7229 17.9789 35.6147 18.3272 35.4063 18.6149C35.3252 18.751 35.2155 18.8678 35.0848 18.9574C34.9542 19.047 34.8056 19.1072 34.6494 19.1338ZM34.1892 17.3704C34.1366 17.2827 34.0603 17.2114 33.9692 17.1648C33.8737 17.1166 33.771 17.0844 33.665 17.0694C33.5466 17.0524 33.4271 17.044 33.3075 17.0446H33.1731V18.3761H33.3075C33.4271 18.3768 33.5466 18.3686 33.665 18.3515C33.771 18.3365 33.8737 18.3043 33.9692 18.2561C34.0605 18.2097 34.1368 18.1384 34.1892 18.0505C34.2423 17.945 34.27 17.8286 34.27 17.7105C34.27 17.5923 34.2423 17.4759 34.1892 17.3704ZM27.893 15.9968H30.9289V17.1761H29.2858V18.0336H30.9289V19.2486H29.2858V20.1061H30.9289V21.3212H27.893V15.9968ZM7.82174 17.1761H6.1788V18.0336H7.82174V19.2486H6.1788V20.1061H7.82174V21.3212H4.78591V15.9968H7.82174V17.1761ZM2.67501 21.3225L1.4014 19.2686H1.38756V21.3225H0V15.9966H2.07163C2.55323 15.9683 3.02967 16.108 3.4198 16.3918C3.59453 16.5435 3.7315 16.7338 3.8199 16.9476C3.9083 17.1614 3.94569 17.3929 3.92909 17.6237C3.93761 17.9789 3.82949 18.3271 3.62116 18.6149C3.51893 18.7536 3.39034 18.8706 3.24274 18.9593C3.09514 19.0481 2.9314 19.1068 2.76104 19.1321L4.21477 21.3195L2.67501 21.3225ZM2.40328 17.3709C2.35071 17.2831 2.27456 17.2118 2.18343 17.1653C2.08802 17.117 1.98527 17.0848 1.87936 17.0698C1.76088 17.0528 1.64129 17.0446 1.5216 17.0452H1.38756V18.3766H1.5216C1.6413 18.3773 1.76089 18.369 1.87936 18.352C1.98527 18.337 2.08801 18.3048 2.18343 18.2565C2.27479 18.2103 2.35103 18.139 2.40328 18.051C2.45656 17.9455 2.48432 17.829 2.48432 17.7109C2.48432 17.5928 2.45656 17.4763 2.40328 17.3709ZM11.4645 16.1986C11.7679 16.3321 12.0413 16.5253 12.2683 16.7669C12.5011 17.0147 12.6843 17.3049 12.8076 17.6217C13.0653 18.2901 13.0642 19.0305 12.8046 19.6981C12.6795 20.0138 12.4952 20.3026 12.2614 20.5489C12.0335 20.7895 11.7603 20.9826 11.4575 21.1172C11.1553 21.2532 10.8275 21.3232 10.4961 21.3223H8.67856V15.997H10.4961C10.8294 15.9954 11.1593 16.0639 11.4645 16.1979V16.1986ZM9.96056 17.1697V20.1498H10.2481C10.4347 20.1514 10.6203 20.1216 10.7972 20.0619C10.9712 20.0032 11.1296 19.9062 11.2608 19.7778C11.3921 19.6494 11.4927 19.493 11.5551 19.3204C11.633 19.1091 11.6708 18.8851 11.6665 18.66C11.6781 18.4611 11.6499 18.2619 11.5838 18.074C11.5176 17.8861 11.4147 17.7132 11.281 17.5654C11.1475 17.4325 10.9879 17.3288 10.8122 17.2608C10.6365 17.1927 10.4486 17.1619 10.2604 17.1702L9.96056 17.1697ZM18.786 17.1697H17.6395V21.3223H16.2532V17.1697H15.1065V15.9973H18.786V17.1697ZM21.0194 21.3234H19.6317V15.9819H21.0194V21.3234ZM22.6012 16.7325C22.843 16.4917 23.1335 16.3054 23.4532 16.1862C23.8005 16.0577 24.1684 15.9937 24.5387 15.9975C25.0107 15.9858 25.4766 16.1075 25.8826 16.3485C26.2773 16.599 26.586 16.9639 26.7679 17.3946L25.5485 17.9108C25.469 17.6812 25.3254 17.4791 25.1349 17.3283C24.9469 17.1854 24.7158 17.1107 24.4797 17.1165C24.29 17.1136 24.1028 17.1592 23.9356 17.2488C23.7742 17.3365 23.635 17.4599 23.5288 17.6098C23.4182 17.7648 23.334 17.937 23.2795 18.1195C23.1664 18.493 23.1664 18.8918 23.2795 19.2653C23.3341 19.4474 23.4194 19.6187 23.532 19.7719C23.641 19.9199 23.7824 20.041 23.9453 20.1261C24.1165 20.2139 24.3066 20.2582 24.499 20.255C24.7561 20.2651 25.0086 20.1856 25.2135 20.0301C25.3088 19.9512 25.3866 19.8533 25.442 19.7427C25.4973 19.6321 25.5289 19.5111 25.5348 19.3876H24.4862V18.3681H27.036C27.034 18.737 26.9979 19.1049 26.9282 19.4671C26.858 19.783 26.7228 20.0808 26.5311 20.3415C26.309 20.6609 26.006 20.9157 25.6533 21.0799C25.2887 21.2441 24.8928 21.3266 24.493 21.3216C24.1303 21.3254 23.77 21.2614 23.4308 21.1329C23.1168 21.013 22.831 20.8291 22.5917 20.5931C22.353 20.3558 22.1675 20.0705 22.0474 19.7562C21.9175 19.4148 21.8529 19.0522 21.8571 18.687C21.8525 18.3118 21.918 17.9389 22.0503 17.5878C22.1722 17.2672 22.3599 16.9756 22.6012 16.7318V16.7325Z" fill="white"/>
</svg>
