<svg width="36" height="24" viewBox="0 0 36 24" fill="none" xmlns="http://www.w3.org/2000/svg">
<g clip-path="url(#clip0_1_2193)">
<path d="M5.85571 9.13379H9.88017V10.0457H6.90155V11.3761H8.88451V12.2881H6.90155V13.7774H9.9722V14.6893H5.85571V9.13379Z" fill="white"/>
<path d="M9.68237 10.7402H10.7534L11.6904 13.4929L12.5606 10.7402H13.5981L12.159 14.6893H11.1968L9.68237 10.7402Z" fill="white"/>
<path d="M16.4374 12.7483V12.7148C16.4374 11.9618 16.0693 11.5099 15.4669 11.5099C14.8561 11.5099 14.4879 11.9618 14.4879 12.7148V12.7483C14.4879 13.4845 14.8477 13.9196 15.4501 13.9196C16.0609 13.9196 16.4374 13.4845 16.4374 12.7483ZM13.4337 12.7232C13.4337 11.5183 14.2704 10.6649 15.4669 10.6649C16.6549 10.6649 17.4917 11.5183 17.4917 12.7232C17.4917 13.9112 16.6382 14.7646 15.4417 14.7646C14.2537 14.7646 13.4337 13.928 13.4337 12.7232Z" fill="white"/>
<path d="M17.963 9.05847H19.0089V14.6893H17.963V9.05847Z" fill="white"/>
<path d="M19.606 13.108V10.7402H20.6435V13.0495C20.6435 13.5766 20.8944 13.8861 21.363 13.8861C21.9068 13.8861 22.1327 13.426 22.1327 12.7483V10.7402H23.1702V14.6893H22.1327V14.1288C21.9236 14.5388 21.5638 14.7646 21.0534 14.7646C20.1582 14.7646 19.606 14.1288 19.606 13.108Z" fill="white"/>
<path d="M24.1186 13.6435V11.5769H23.558V10.7402H24.1186V9.99555L25.131 9.42662V10.7402H25.9091V11.5769H25.1227V13.5431C25.1227 13.7355 25.2146 13.8192 25.4071 13.8276H25.8673V14.6893H25.064C24.3027 14.6475 24.1353 14.2962 24.1186 13.6435Z" fill="white"/>
<path d="M26.3973 10.7402H27.4432V14.6893H26.3973V10.7402ZM26.3806 9.1505H27.46V10.1629H26.3806V9.1505Z" fill="white"/>
<path d="M30.9184 12.7483V12.7148C30.9184 11.9618 30.5502 11.5099 29.9478 11.5099C29.337 11.5099 28.9689 11.9618 28.9689 12.7148V12.7483C28.9689 13.4845 29.3287 13.9196 29.9311 13.9196C30.5419 13.9196 30.9184 13.4845 30.9184 12.7483ZM27.9147 12.7232C27.9147 11.5183 28.7513 10.6649 29.9478 10.6649C31.1359 10.6649 31.9726 11.5183 31.9726 12.7232C31.9726 13.9112 31.1192 14.7646 29.9227 14.7646C28.7346 14.7646 27.9147 13.928 27.9147 12.7232Z" fill="white"/>
<path d="M32.4358 10.7402H33.4733V11.3844C33.6825 10.9243 34.0673 10.6565 34.6279 10.6565C35.4897 10.6565 36.0001 11.2338 36.0001 12.3216V14.6893H34.9626V12.3801C34.9626 11.8279 34.7534 11.5434 34.2682 11.5434C33.7744 11.5434 33.4733 11.945 33.4733 12.6813V14.6893H32.4358V10.7402Z" fill="white"/>
<path d="M4.09059 9.74413C3.14584 8.49754 1.42532 8.14595 0 8.90704C0.557023 10.1608 0.974466 11.6324 3.71969 11.7185C4.04188 11.7286 4.39573 11.7199 4.78606 11.6893C4.7299 10.903 4.47399 10.25 4.09059 9.74413Z" fill="white"/>
<path d="M3.58446 11.9411C1.93253 12.0229 1.15679 12.6251 0.672351 13.3679C0.38732 13.805 0.202903 14.2906 0 14.7473C2.00372 15.8172 4.59145 14.6889 4.78606 11.9648C4.34032 11.9299 3.94207 11.9234 3.58446 11.9411Z" fill="white"/>
<path d="M4.38085 14.6893C4.15745 14.6893 3.97595 14.8709 3.97595 15.0949C3.97595 15.3185 4.15745 15.5 4.38085 15.5C4.60473 15.5 4.78595 15.3185 4.78611 15.0949C4.78611 14.8709 4.60473 14.6893 4.38085 14.6893ZM4.38085 15.4177C4.20276 15.4177 4.05868 15.2731 4.05833 15.0949C4.05868 14.9164 4.20276 14.7722 4.38085 14.7722C4.55942 14.7722 4.70326 14.9164 4.70358 15.0949C4.70326 15.2731 4.55942 15.4177 4.38085 15.4177Z" fill="white"/>
<path d="M4.22616 15.0291H4.16565V14.989H4.33757V15.0291H4.27741V15.2004H4.22616V15.0291Z" fill="white"/>
<path d="M4.35889 14.989H4.4398L4.47861 15.124L4.51908 14.989H4.59801V15.2004H4.54771V15.0297L4.49425 15.2004H4.45413L4.40253 15.0307V15.2004H4.35889V14.989Z" fill="white"/>
</g>
<defs>
<clipPath id="clip0_1_2193">
<rect width="36" height="24" fill="white"/>
</clipPath>
</defs>
</svg>
