<svg width="36" height="24" viewBox="0 0 36 24" fill="none" xmlns="http://www.w3.org/2000/svg">
<path d="M30.9919 8.43848C29.2033 8.54979 30.0062 10.8793 31.9839 10.7564C33.9183 10.6358 32.8976 8.31989 30.9919 8.43848Z" fill="white"/>
<path d="M30.2371 6.99934C27.0546 6.99934 24.4742 9.5792 24.4742 12.7622C24.4742 15.9453 27.0541 18.5251 30.2371 18.5251C33.4202 18.5251 36 15.9453 36 12.7622C35.9996 9.57969 33.4197 6.99934 30.2371 6.99934ZM30.2371 17.921C27.389 17.9215 25.0794 15.6128 25.0789 12.7647C25.0784 9.91651 27.387 7.60688 30.2352 7.60639C33.0834 7.60591 35.393 9.91457 35.3935 12.7627V12.7637C35.3935 15.6119 33.0848 17.9205 30.2371 17.921ZM30.0631 2.97644C28.695 4.01072 28.9326 5.59665 28.9326 5.59665C28.9326 5.59665 28.0728 3.3643 26.9564 2C26.8057 3.75652 27.3564 6.08365 27.3564 6.08365C27.3564 6.08365 26.657 4.64062 24.9438 4.55994C26.3649 5.37647 26.9161 6.84818 27.0424 7.24284C27.8896 6.71987 28.8578 6.42679 29.8527 6.39228C29.7399 6.02533 29.3419 4.47683 30.0631 2.97644Z" fill="white"/>
<path d="M0.502073 13.3275V14.5339H0V11.4267H1.05615C1.41436 11.4267 1.68362 11.5117 1.86394 11.6823C2.04426 11.8524 2.13514 12.0857 2.13612 12.3822C2.13612 12.6758 2.04377 12.9071 1.85908 13.0758C1.67438 13.2444 1.40707 13.3285 1.05809 13.3285H0.502073V13.3275ZM1.62384 12.3812C1.62384 12.2053 1.57475 12.0706 1.47657 11.9783C1.37839 11.886 1.22043 11.8398 1.00366 11.8398H0.502073V12.9178H1.00415C1.41679 12.9178 1.62384 12.7389 1.62384 12.3812ZM4.20759 14.5334L3.43285 13.2925H3.07659V14.5334H2.57452V11.4262H3.67101C4.02582 11.4262 4.29508 11.5127 4.4788 11.6857C4.66252 11.8587 4.75389 12.0877 4.75389 12.3725C4.75389 12.6145 4.68585 12.8138 4.54927 12.9708C4.4127 13.1278 4.21634 13.2274 3.95923 13.2697L4.77576 14.5329H4.20759V14.5334ZM3.07659 12.9358H3.63018C4.03554 12.9358 4.23821 12.7569 4.23773 12.3992C4.23773 12.2291 4.18864 12.0964 4.09046 12.0007C3.99179 11.9054 3.83918 11.8578 3.63018 11.8578H3.07659V12.9358ZM7.06012 13.8602H5.74832L5.51065 14.5334H4.97407L6.11867 11.4748H6.6956L7.83534 14.5334H7.29828L7.06012 13.8602ZM6.91917 13.4729L6.40398 12.0206L5.88878 13.4729H6.91917ZM10.37 11.6726C10.6164 11.8544 10.7895 12.1183 10.8585 12.4167H10.3302C10.2645 12.2514 10.1479 12.111 9.99771 12.0162C9.83391 11.9137 9.64339 11.8616 9.44995 11.8665C9.26671 11.8636 9.08639 11.9107 8.92795 12.0026C8.7729 12.0945 8.64799 12.2286 8.56731 12.3895C8.4774 12.5737 8.43365 12.7764 8.43997 12.981C8.43414 13.1929 8.47934 13.4029 8.57217 13.5929C8.65431 13.7567 8.7836 13.8928 8.94399 13.9822C9.11458 14.075 9.30657 14.1217 9.50098 14.1183C9.74497 14.1227 9.98167 14.0357 10.1649 13.8753C10.3496 13.7154 10.4609 13.4962 10.4993 13.2172H9.35809V12.8473H10.9202V13.327C10.8871 13.5506 10.8036 13.7635 10.6762 13.9501C10.5469 14.1382 10.3729 14.2918 10.1702 14.3973C9.94765 14.5115 9.70074 14.5689 9.45043 14.5645C9.16999 14.5703 8.89295 14.5003 8.64896 14.3623C8.42004 14.2306 8.23389 14.0357 8.11238 13.8009C7.86013 13.2828 7.86013 12.6772 8.11238 12.1591C8.23341 11.9253 8.41907 11.7314 8.64702 11.6002C8.89052 11.4636 9.16659 11.3941 9.44606 11.3999C9.81544 11.3999 10.1236 11.4908 10.37 11.6726ZM14.4634 11.4748V14.5334H13.9569V12.2408L13.0724 14.5339H12.632L11.7426 12.2408V14.5339H11.241V11.4753H11.848L12.8604 13.9181L13.8549 11.4753H14.4634V11.4748ZM16.9188 13.8602H15.6094L15.3718 14.5334H14.8333L15.9779 11.4748H16.5543L17.6945 14.5334H17.157L16.9188 13.8602ZM16.7784 13.4729L16.2632 12.0206L15.748 13.4729H16.7784ZM19.8418 11.4262V11.831H18.9747V14.5339H18.4683V11.831H17.6061V11.4262H19.8418ZM20.6117 11.4262V14.5334H20.1101V11.4262H20.6117ZM23.4511 11.6857C23.7058 11.883 23.8856 12.161 23.9614 12.4741H23.4288C23.3607 12.2928 23.2387 12.1367 23.0788 12.0269C22.9048 11.9127 22.6992 11.8548 22.4912 11.8617C22.3167 11.8587 22.1447 11.9059 21.9959 11.9977C21.8472 12.093 21.7281 12.2276 21.6523 12.3871C21.4851 12.7628 21.4851 13.1914 21.6523 13.5667C21.7281 13.7261 21.8472 13.8612 21.9959 13.9565C22.1447 14.0483 22.3162 14.0955 22.4912 14.0925C22.6992 14.0993 22.9043 14.042 23.0788 13.9278C23.2377 13.8194 23.3597 13.6648 23.4288 13.4855H23.9614C23.8861 13.798 23.7058 14.075 23.4511 14.2709C23.1989 14.4634 22.882 14.5596 22.5004 14.5596C22.2273 14.565 21.958 14.4955 21.7213 14.3589C21.4968 14.2267 21.315 14.0328 21.1979 13.8C20.951 13.2804 20.951 12.6777 21.1979 12.1581C21.3155 11.9248 21.4973 11.7304 21.7213 11.5968C21.9575 11.4592 22.2273 11.3892 22.5004 11.3946C22.8815 11.3951 23.1984 11.4918 23.4511 11.6857ZM26.3284 13.3275V14.5339H25.8268V11.4267H26.883C27.2407 11.4267 27.51 11.5117 27.6908 11.6823C27.8716 11.8524 27.9625 12.0857 27.963 12.3822C27.963 12.6758 27.8706 12.9071 27.6859 13.0758C27.5012 13.2444 27.2339 13.3285 26.8849 13.3285H26.3284V13.3275ZM27.4526 12.3812C27.4526 12.2053 27.4035 12.0706 27.3054 11.9783C27.2072 11.886 27.0492 11.8398 26.832 11.8398H26.3284V12.9178H26.8305C27.2451 12.9178 27.4526 12.7389 27.4526 12.3812ZM28.8242 14.1416H29.8983V14.5334H28.3226V11.4262H28.8247L28.8242 14.1416ZM32.1958 13.8602H30.8845L30.6468 14.5334H30.1098L31.2544 11.4748H31.8308L32.971 14.5334H32.434L32.1958 13.8602ZM32.0554 13.4729L31.5402 12.0206L31.025 13.4729H32.0554ZM34.9852 11.4262L33.9509 13.4024V14.5334H33.4459V13.4024L32.4072 11.4262H32.9885L33.702 12.8653L34.4151 11.4262H34.9852Z" fill="white"/>
</svg>
